URWPalladioL-Bold.ufo
<glyph name="exclam" format="1">
  <advance width="278"/>
  <unicode hex="0021"/>
  <outline>
    <contour>
      <point x="142" y="144" type="curve" smooth="yes"/>
      <point x="100" y="144"/>
      <point x="63" y="107"/>
      <point x="63" y="65" type="curve" smooth="yes"/>
      <point x="63" y="23"/>
      <point x="99" y="-12"/>
      <point x="140" y="-12" type="curve" smooth="yes"/>
      <point x="182" y="-12"/>
      <point x="219" y="24"/>
      <point x="219" y="65" type="curve" smooth="yes"/>
      <point x="219" y="106"/>
      <point x="182" y="144"/>
    </contour>
    <contour>
      <point x="168" y="688" type="line"/>
      <point x="68" y="644" type="line"/>
      <point x="69" y="592"/>
      <point x="70" y="582"/>
      <point x="72" y="565" type="curve" smooth="yes"/>
      <point x="119" y="207" type="line"/>
      <point x="124" y="199" type="line"/>
      <point x="162" y="220" type="line"/>
      <point x="212" y="592" type="line" smooth="yes"/>
      <point x="217" y="631"/>
      <point x="219" y="654"/>
      <point x="219" y="688" type="curve"/>
    </contour>
  </outline>
</glyph>
<glyph name="quotedbl" format="1">
  <advance width="402"/>
  <unicode hex="0022"/>
  <outline>
    <contour>
      <point x="113" y="376" type="line"/>
      <point x="157" y="615" type="line"/>
      <point x="158" y="618"/>
      <point x="158" y="621"/>
      <point x="158" y="624" type="curve" smooth="yes"/>
      <point x="158" y="660"/>
      <point x="125" y="695"/>
      <point x="90" y="695" type="curve" smooth="yes"/>
      <point x="56" y="695"/>
      <point x="22" y="660"/>
      <point x="22" y="624" type="curve" smooth="yes"/>
      <point x="22" y="621"/>
      <point x="22" y="619"/>
      <point x="23" y="615" type="curve"/>
      <point x="67" y="376" type="line"/>
    </contour>
    <contour>
      <point x="335" y="376" type="line"/>
      <point x="379" y="615" type="line"/>
      <point x="380" y="618"/>
      <point x="380" y="621"/>
      <point x="380" y="624" type="curve" smooth="yes"/>
      <point x="380" y="660"/>
      <point x="347" y="695"/>
      <point x="312" y="695" type="curve" smooth="yes"/>
      <point x="278" y="695"/>
      <point x="244" y="660"/>
      <point x="244" y="624" type="curve" smooth="yes"/>
      <point x="244" y="621"/>
      <point x="244" y="619"/>
      <point x="245" y="615" type="curve"/>
      <point x="289" y="376" type="line"/>
    </contour>
  </outline>
</glyph>
<glyph name="numbersign" format="1">
  <advance width="500"/>
  <unicode hex="0023"/>
  <outline>
    <contour>
      <point x="470" y="290" type="line"/>
      <point x="376" y="290" type="line"/>
      <point x="392" y="396" type="line"/>
      <point x="496" y="396" type="line"/>
      <point x="496" y="471" type="line"/>
      <point x="403" y="471" type="line"/>
      <point x="432" y="673" type="line"/>
      <point x="357" y="673" type="line"/>
      <point x="328" y="471" type="line"/>
      <point x="221" y="471" type="line"/>
      <point x="251" y="673" type="line"/>
      <point x="176" y="673" type="line"/>
      <point x="146" y="471" type="line"/>
      <point x="32" y="471" type="line"/>
      <point x="32" y="396" type="line"/>
      <point x="135" y="396" type="line"/>
      <point x="119" y="290" type="line"/>
      <point x="4" y="290" type="line"/>
      <point x="4" y="215" type="line"/>
      <point x="107" y="215" type="line"/>
      <point x="75" y="0" type="line"/>
      <point x="150" y="0" type="line"/>
      <point x="182" y="215" type="line"/>
      <point x="290" y="215" type="line"/>
      <point x="258" y="0" type="line"/>
      <point x="333" y="0" type="line"/>
      <point x="365" y="215" type="line"/>
      <point x="470" y="215" type="line"/>
    </contour>
    <contour>
      <point x="317" y="396" type="line"/>
      <point x="301" y="290" type="line"/>
      <point x="194" y="290" type="line"/>
      <point x="210" y="396" type="line"/>
    </contour>
  </outline>
</glyph>
<glyph name="dollar" format="1">
  <advance width="500"/>
  <unicode hex="0024"/>
  <outline>
    <contour>
      <point x="221" y="37" type="line"/>
      <point x="176" y="40"/>
      <point x="143" y="51"/>
      <point x="109" y="75" type="curve" smooth="yes"/>
      <point x="89" y="90"/>
      <point x="80" y="110"/>
      <point x="80" y="141" type="curve" smooth="yes"/>
      <point x="80" y="181" type="line"/>
      <point x="39" y="181" type="line"/>
      <point x="37" y="109"/>
      <point x="35" y="77"/>
      <point x="30" y="32" type="curve"/>
      <point x="33" y="23" type="line"/>
      <point x="86" y="-2"/>
      <point x="142" y="-14"/>
      <point x="221" y="-17" type="curve"/>
      <point x="218" y="-114" type="line"/>
      <point x="269" y="-114" type="line"/>
      <point x="267" y="-13" type="line"/>
      <point x="315" y="-6"/>
      <point x="338" y="1"/>
      <point x="368" y="19" type="curve" smooth="yes"/>
      <point x="433" y="60"/>
      <point x="472" y="131"/>
      <point x="472" y="214" type="curve" smooth="yes"/>
      <point x="472" y="267"/>
      <point x="458" y="307"/>
      <point x="429" y="337" type="curve" smooth="yes"/>
      <point x="398" y="369"/>
      <point x="357" y="385"/>
      <point x="267" y="402" type="curve"/>
      <point x="267" y="614" type="line"/>
      <point x="303" y="613"/>
      <point x="341" y="599"/>
      <point x="366" y="579" type="curve" smooth="yes"/>
      <point x="377" y="571"/>
      <point x="381" y="546"/>
      <point x="381" y="488" type="curve"/>
      <point x="420" y="488" type="line"/>
      <point x="420" y="551"/>
      <point x="424" y="593"/>
      <point x="434" y="628" type="curve"/>
      <point x="432" y="635" type="line"/>
      <point x="381" y="657"/>
      <point x="332" y="667"/>
      <point x="267" y="668" type="curve"/>
      <point x="269" y="721" type="line"/>
      <point x="219" y="721" type="line"/>
      <point x="221" y="668" type="line"/>
      <point x="152" y="653"/>
      <point x="122" y="639"/>
      <point x="88" y="609" type="curve" smooth="yes"/>
      <point x="48" y="574"/>
      <point x="28" y="524"/>
      <point x="28" y="462" type="curve" smooth="yes"/>
      <point x="28" y="403"/>
      <point x="42" y="361"/>
      <point x="72" y="332" type="curve" smooth="yes"/>
      <point x="102" y="302"/>
      <point x="140" y="288"/>
      <point x="221" y="277" type="curve"/>
    </contour>
    <contour>
      <point x="267" y="267" type="line"/>
      <point x="332" y="256"/>
      <point x="365" y="221"/>
      <point x="365" y="161" type="curve" smooth="yes"/>
      <point x="365" y="101"/>
      <point x="331" y="59"/>
      <point x="267" y="40" type="curve"/>
    </contour>
    <contour>
      <point x="221" y="408" type="line"/>
      <point x="161" y="418"/>
      <point x="130" y="451"/>
      <point x="130" y="505" type="curve" smooth="yes"/>
      <point x="130" y="563"/>
      <point x="169" y="610"/>
      <point x="221" y="614" type="curve"/>
    </contour>
  </outline>
</glyph>
<glyph name="percent" format="1">
  <advance width="889"/>
  <unicode hex="0025"/>
  <outline>
    <contour>
      <point x="226" y="700" type="curve" smooth="yes"/>
      <point x="129" y="700"/>
      <point x="61" y="632"/>
      <point x="61" y="535" type="curve" smooth="yes"/>
      <point x="61" y="443"/>
      <point x="132" y="372"/>
      <point x="224" y="372" type="curve" smooth="yes"/>
      <point x="317" y="372"/>
      <point x="387" y="443"/>
      <point x="387" y="536" type="curve" smooth="yes"/>
      <point x="387" y="630"/>
      <point x="318" y="700"/>
    </contour>
    <contour>
      <point x="225" y="668" type="curve" smooth="yes"/>
      <point x="266" y="668"/>
      <point x="287" y="624"/>
      <point x="287" y="536" type="curve" smooth="yes"/>
      <point x="287" y="446"/>
      <point x="267" y="404"/>
      <point x="224" y="404" type="curve" smooth="yes"/>
      <point x="181" y="404"/>
      <point x="161" y="446"/>
      <point x="161" y="539" type="curve" smooth="yes"/>
      <point x="161" y="625"/>
      <point x="182" y="668"/>
    </contour>
    <contour>
      <point x="667" y="328" type="curve" smooth="yes"/>
      <point x="570" y="328"/>
      <point x="502" y="260"/>
      <point x="502" y="163" type="curve" smooth="yes"/>
      <point x="502" y="71"/>
      <point x="573" y="0"/>
      <point x="665" y="0" type="curve" smooth="yes"/>
      <point x="758" y="0"/>
      <point x="828" y="71"/>
      <point x="828" y="164" type="curve" smooth="yes"/>
      <point x="828" y="258"/>
      <point x="759" y="328"/>
    </contour>
    <contour>
      <point x="666" y="296" type="curve" smooth="yes"/>
      <point x="707" y="296"/>
      <point x="728" y="252"/>
      <point x="728" y="164" type="curve" smooth="yes"/>
      <point x="728" y="74"/>
      <point x="708" y="32"/>
      <point x="665" y="32" type="curve" smooth="yes"/>
      <point x="622" y="32"/>
      <point x="602" y="74"/>
      <point x="602" y="167" type="curve" smooth="yes"/>
      <point x="602" y="253"/>
      <point x="623" y="296"/>
    </contour>
    <contour>
      <point x="283" y="-9" type="line"/>
      <point x="649" y="714" type="line"/>
      <point x="600" y="714" type="line"/>
      <point x="234" y="-9" type="line"/>
    </contour>
  </outline>
</glyph>
<glyph name="ampersand" format="1">
  <advance width="833"/>
  <unicode hex="0026"/>
  <outline>
    <contour>
      <point x="537" y="328" type="line"/>
      <point x="550" y="300"/>
      <point x="557" y="275"/>
      <point x="557" y="250" type="curve" smooth="yes"/>
      <point x="557" y="219"/>
      <point x="549" y="195"/>
      <point x="525" y="158" type="curve"/>
      <point x="441" y="227"/>
      <point x="380" y="294"/>
      <point x="319" y="385" type="curve"/>
      <point x="438" y="462"/>
      <point x="477" y="510"/>
      <point x="477" y="580" type="curve" smooth="yes"/>
      <point x="477" y="643"/>
      <point x="432" y="684"/>
      <point x="362" y="684" type="curve" smooth="yes"/>
      <point x="321" y="684"/>
      <point x="282" y="669"/>
      <point x="260" y="646" type="curve" smooth="yes"/>
      <point x="225" y="608" type="line" smooth="yes"/>
      <point x="186" y="566"/>
      <point x="174" y="541"/>
      <point x="174" y="503" type="curve" smooth="yes"/>
      <point x="174" y="467"/>
      <point x="183" y="433"/>
      <point x="207" y="373" type="curve"/>
      <point x="93" y="314"/>
      <point x="52" y="262"/>
      <point x="52" y="176" type="curve" smooth="yes"/>
      <point x="52" y="63"/>
      <point x="147" y="-17"/>
      <point x="282" y="-17" type="curve" smooth="yes"/>
      <point x="358" y="-17"/>
      <point x="415" y="3"/>
      <point x="483" y="53" type="curve"/>
      <point x="540" y="7"/>
      <point x="590" y="-12"/>
      <point x="654" y="-12" type="curve" smooth="yes"/>
      <point x="720" y="-9" type="line"/>
      <point x="741" y="23"/>
      <point x="772" y="55"/>
      <point x="813" y="90" type="curve"/>
      <point x="799" y="122" type="line"/>
      <point x="782" y="111" type="line" smooth="yes"/>
      <point x="779" y="109"/>
      <point x="775" y="107"/>
      <point x="771" y="104" type="curve" smooth="yes"/>
      <point x="748" y="88"/>
      <point x="737" y="84"/>
      <point x="719" y="84" type="curve" smooth="yes"/>
      <point x="668" y="84"/>
      <point x="621" y="100"/>
      <point x="568" y="133" type="curve"/>
      <point x="615" y="195"/>
      <point x="633" y="239"/>
      <point x="633" y="286" type="curve" smooth="yes"/>
      <point x="633" y="295"/>
      <point x="632" y="307"/>
      <point x="630" y="323" type="curve"/>
      <point x="685" y="323"/>
      <point x="721" y="321"/>
      <point x="771" y="316" type="curve"/>
      <point x="775" y="342"/>
      <point x="780" y="360"/>
      <point x="791" y="386" type="curve"/>
      <point x="788" y="395" type="line"/>
      <point x="711" y="390"/>
      <point x="681" y="389"/>
      <point x="643" y="389" type="curve" smooth="yes"/>
      <point x="631" y="389"/>
      <point x="613" y="389"/>
      <point x="594" y="390" type="curve" smooth="yes"/>
      <point x="476" y="394" type="line"/>
      <point x="472" y="377"/>
      <point x="467" y="365"/>
      <point x="447" y="328" type="curve"/>
    </contour>
    <contour>
      <point x="222" y="336" type="curve"/>
      <point x="285" y="235"/>
      <point x="344" y="167"/>
      <point x="441" y="83" type="curve"/>
      <point x="411" y="62"/>
      <point x="384" y="53"/>
      <point x="350" y="53" type="curve" smooth="yes"/>
      <point x="254" y="53"/>
      <point x="171" y="137"/>
      <point x="171" y="233" type="curve" smooth="yes"/>
      <point x="171" y="275"/>
      <point x="183" y="299"/>
    </contour>
    <contour>
      <point x="299" y="426" type="curve"/>
      <point x="273" y="484"/>
      <point x="265" y="511"/>
      <point x="265" y="544" type="curve" smooth="yes"/>
      <point x="265" y="594"/>
      <point x="289" y="622"/>
      <point x="331" y="622" type="curve" smooth="yes"/>
      <point x="366" y="622"/>
      <point x="390" y="596"/>
      <point x="390" y="557" type="curve" smooth="yes"/>
      <point x="390" y="513"/>
      <point x="364" y="472"/>
      <point x="314" y="436" type="curve"/>
      <point x="309" y="433"/>
      <point x="305" y="430"/>
    </contour>
  </outline>
</glyph>
<glyph name="quotesingle" format="1">
  <advance width="227"/>
  <unicode hex="0027"/>
  <outline>
    <contour>
      <point x="136" y="376" type="line"/>
      <point x="180" y="615" type="line"/>
      <point x="181" y="618"/>
      <point x="181" y="621"/>
      <point x="181" y="624" type="curve" smooth="yes"/>
      <point x="181" y="660"/>
      <point x="148" y="695"/>
      <point x="113" y="695" type="curve" smooth="yes"/>
      <point x="79" y="695"/>
      <point x="45" y="660"/>
      <point x="45" y="624" type="curve" smooth="yes"/>
      <point x="45" y="621"/>
      <point x="45" y="619"/>
      <point x="46" y="615" type="curve"/>
      <point x="90" y="376" type="line"/>
    </contour>
  </outline>
</glyph>
<glyph name="parenleft" format="1">
  <advance width="333"/>
  <unicode hex="0028"/>
  <outline>
    <contour>
      <point x="279" y="723" type="line"/>
      <point x="179" y="643"/>
      <point x="139" y="595"/>
      <point x="104" y="511" type="curve" smooth="yes"/>
      <point x="78" y="450"/>
      <point x="65" y="382"/>
      <point x="65" y="307" type="curve" smooth="yes"/>
      <point x="65" y="231"/>
      <point x="78" y="164"/>
      <point x="105" y="103" type="curve" smooth="yes"/>
      <point x="141" y="19"/>
      <point x="181" y="-28"/>
      <point x="281" y="-104" type="curve"/>
      <point x="305" y="-80" type="line"/>
      <point x="218" y="30"/>
      <point x="198" y="104"/>
      <point x="198" y="308" type="curve" smooth="yes"/>
      <point x="198" y="417"/>
      <point x="208" y="505"/>
      <point x="226" y="562" type="curve" smooth="yes"/>
      <point x="244" y="617"/>
      <point x="261" y="647"/>
      <point x="305" y="701" type="curve"/>
    </contour>
  </outline>
</glyph>
<glyph name="parenright" format="1">
  <advance width="333"/>
  <unicode hex="0029"/>
  <outline>
    <contour>
      <point x="28" y="701" type="line"/>
      <point x="70" y="648"/>
      <point x="86" y="621"/>
      <point x="104" y="570" type="curve" smooth="yes"/>
      <point x="125" y="509"/>
      <point x="135" y="424"/>
      <point x="135" y="308" type="curve" smooth="yes"/>
      <point x="135" y="103"/>
      <point x="115" y="31"/>
      <point x="28" y="-80" type="curve"/>
      <point x="52" y="-104" type="line"/>
      <point x="152" y="-28"/>
      <point x="192" y="19"/>
      <point x="228" y="103" type="curve" smooth="yes"/>
      <point x="255" y="164"/>
      <point x="268" y="231"/>
      <point x="268" y="307" type="curve" smooth="yes"/>
      <point x="268" y="382"/>
      <point x="255" y="450"/>
      <point x="229" y="511" type="curve" smooth="yes"/>
      <point x="194" y="594"/>
      <point x="154" y="643"/>
      <point x="54" y="723" type="curve"/>
    </contour>
  </outline>
</glyph>
<glyph name="asterisk" format="1">
  <advance width="444"/>
  <unicode hex="002A"/>
  <outline>
    <contour>
      <point x="319" y="673" type="line"/>
      <point x="283" y="678"/>
      <point x="260" y="683"/>
      <point x="227" y="695" type="curve"/>
      <point x="219" y="688" type="line"/>
      <point x="219" y="633"/>
      <point x="216" y="597"/>
      <point x="206" y="546" type="curve"/>
      <point x="104" y="660" type="line"/>
      <point x="88" y="660" type="line"/>
      <point x="77" y="637"/>
      <point x="67" y="619"/>
      <point x="44" y="583" type="curve"/>
      <point x="47" y="576" type="line"/>
      <point x="103" y="560"/>
      <point x="151" y="540"/>
      <point x="185" y="517" type="curve"/>
      <point x="136" y="492"/>
      <point x="91" y="475"/>
      <point x="48" y="464" type="curve"/>
      <point x="44" y="457" type="line"/>
      <point x="59" y="440"/>
      <point x="74" y="413"/>
      <point x="83" y="387" type="curve"/>
      <point x="102" y="379" type="line"/>
      <point x="131" y="420"/>
      <point x="171" y="461"/>
      <point x="203" y="484" type="curve"/>
      <point x="211" y="434"/>
      <point x="214" y="398"/>
      <point x="214" y="339" type="curve"/>
      <point x="229" y="332" type="line"/>
      <point x="260" y="349"/>
      <point x="293" y="362"/>
      <point x="314" y="366" type="curve"/>
      <point x="316" y="378" type="line"/>
      <point x="291" y="407"/>
      <point x="282" y="420"/>
      <point x="243" y="484" type="curve" smooth="yes"/>
      <point x="236" y="496" type="line"/>
      <point x="299" y="490"/>
      <point x="345" y="480"/>
      <point x="390" y="462" type="curve"/>
      <point x="399" y="473" type="line"/>
      <point x="392" y="499"/>
      <point x="388" y="521"/>
      <point x="388" y="540" type="curve" smooth="yes"/>
      <point x="388" y="545"/>
      <point x="388" y="551"/>
      <point x="389" y="560" type="curve"/>
      <point x="383" y="563" type="line"/>
      <point x="364" y="556"/>
      <point x="344" y="551"/>
      <point x="287" y="541" type="curve" smooth="yes"/>
      <point x="273" y="538"/>
      <point x="265" y="537"/>
      <point x="242" y="532" type="curve"/>
      <point x="269" y="587"/>
      <point x="300" y="635"/>
      <point x="324" y="659" type="curve"/>
    </contour>
  </outline>
</glyph>
<glyph name="plus" format="1">
  <advance width="606"/>
  <unicode hex="002B"/>
  <outline>
    <contour>
      <point x="260" y="298" type="line"/>
      <point x="51" y="298" type="line"/>
      <point x="51" y="212" type="line"/>
      <point x="260" y="212" type="line"/>
      <point x="260" y="0" type="line"/>
      <point x="346" y="0" type="line"/>
      <point x="346" y="212" type="line"/>
      <point x="555" y="212" type="line"/>
      <point x="555" y="298" type="line"/>
      <point x="346" y="298" type="line"/>
      <point x="346" y="505" type="line"/>
      <point x="260" y="505" type="line"/>
    </contour>
  </outline>
</glyph>
<glyph name="comma" format="1">
  <advance width="250"/>
  <unicode hex="002C"/>
  <outline>
    <contour>
      <point x="80" y="-136" type="line"/>
      <point x="158" y="-11"/>
      <point x="191" y="47"/>
      <point x="227" y="125" type="curve"/>
      <point x="210" y="141" type="line"/>
      <point x="163" y="126"/>
      <point x="130" y="117"/>
      <point x="76" y="103" type="curve"/>
      <point x="68" y="32"/>
      <point x="38" y="-64"/>
      <point x="-6" y="-153" type="curve"/>
      <point x="9" y="-166" type="line"/>
    </contour>
  </outline>
</glyph>
<glyph name="hyphen" format="1">
  <advance width="333"/>
  <unicode hex="002D"/>
  <outline>
    <contour>
      <point x="50" y="305" type="line"/>
      <point x="45" y="287"/>
      <point x="43" y="281"/>
      <point x="31" y="246" type="curve" smooth="yes"/>
      <point x="24" y="227"/>
      <point x="21" y="218"/>
      <point x="16" y="203" type="curve"/>
      <point x="24" y="195" type="line"/>
      <point x="285" y="195" type="line"/>
      <point x="290" y="223"/>
      <point x="301" y="259"/>
      <point x="317" y="295" type="curve"/>
      <point x="308" y="305" type="line"/>
    </contour>
  </outline>
</glyph>
<glyph name="period" format="1">
  <advance width="250"/>
  <unicode hex="002E"/>
  <outline>
    <contour>
      <point x="126" y="144" type="curve" smooth="yes"/>
      <point x="84" y="144"/>
      <point x="47" y="107"/>
      <point x="47" y="65" type="curve" smooth="yes"/>
      <point x="47" y="23"/>
      <point x="83" y="-12"/>
      <point x="124" y="-12" type="curve" smooth="yes"/>
      <point x="166" y="-12"/>
      <point x="203" y="24"/>
      <point x="203" y="65" type="curve" smooth="yes"/>
      <point x="203" y="106"/>
      <point x="166" y="144"/>
    </contour>
  </outline>
</glyph>
<glyph name="slash" format="1">
  <advance width="296"/>
  <unicode hex="002F"/>
  <outline>
    <contour>
      <point x="215" y="720" type="line"/>
      <point x="-9" y="-17" type="line"/>
      <point x="81" y="-17" type="line"/>
      <point x="305" y="720" type="line"/>
    </contour>
  </outline>
</glyph>
<glyph name="zero" format="1">
  <advance width="500"/>
  <unicode hex="0030"/>
  <outline>
    <contour>
      <point x="266" y="660" type="curve" smooth="yes"/>
      <point x="178" y="660"/>
      <point x="119" y="628"/>
      <point x="81" y="561" type="curve" smooth="yes"/>
      <point x="47" y="502"/>
      <point x="33" y="424"/>
      <point x="33" y="302" type="curve" smooth="yes"/>
      <point x="33" y="79"/>
      <point x="96" y="-17"/>
      <point x="242" y="-17" type="curve" smooth="yes"/>
      <point x="398" y="-17"/>
      <point x="468" y="96"/>
      <point x="468" y="348" type="curve" smooth="yes"/>
      <point x="468" y="455"/>
      <point x="456" y="522"/>
      <point x="427" y="573" type="curve" smooth="yes"/>
      <point x="395" y="630"/>
      <point x="339" y="660"/>
    </contour>
    <contour>
      <point x="245" y="610" type="curve" smooth="yes"/>
      <point x="274" y="610"/>
      <point x="298" y="592"/>
      <point x="314" y="558" type="curve" smooth="yes"/>
      <point x="334" y="515"/>
      <point x="348" y="386"/>
      <point x="348" y="252" type="curve" smooth="yes"/>
      <point x="348" y="110"/>
      <point x="315" y="33"/>
      <point x="255" y="33" type="curve" smooth="yes"/>
      <point x="225" y="33"/>
      <point x="201" y="51"/>
      <point x="185" y="85" type="curve" smooth="yes"/>
      <point x="165" y="128"/>
      <point x="153" y="238"/>
      <point x="153" y="372" type="curve" smooth="yes"/>
      <point x="153" y="482"/>
      <point x="160" y="533"/>
      <point x="180" y="570" type="curve" smooth="yes"/>
      <point x="195" y="597"/>
      <point x="217" y="610"/>
    </contour>
  </outline>
</glyph>
<glyph name="one" format="1">
  <advance width="500"/>
  <unicode hex="0031"/>
  <outline>
    <contour>
      <point x="189" y="564" type="line" smooth="yes"/>
      <point x="191" y="565"/>
      <point x="193" y="565"/>
      <point x="194" y="565" type="curve"/>
      <point x="202" y="564"/>
      <point x="204" y="557"/>
      <point x="204" y="527" type="curve" smooth="yes"/>
      <point x="204" y="84" type="line" smooth="yes"/>
      <point x="204" y="55"/>
      <point x="185" y="39"/>
      <point x="147" y="37" type="curve" smooth="yes"/>
      <point x="75" y="34" type="line"/>
      <point x="75" y="-3" type="line"/>
      <point x="136" y="-2"/>
      <point x="197" y="-1"/>
      <point x="215" y="-1" type="curve" smooth="yes"/>
      <point x="245" y="0"/>
      <point x="266" y="0"/>
      <point x="278" y="0" type="curve" smooth="yes"/>
      <point x="290" y="0"/>
      <point x="314" y="0"/>
      <point x="347" y="-1" type="curve" smooth="yes"/>
      <point x="360" y="-1"/>
      <point x="406" y="-2"/>
      <point x="455" y="-3" type="curve"/>
      <point x="455" y="34" type="line"/>
      <point x="393" y="37" type="line" smooth="yes"/>
      <point x="355" y="39"/>
      <point x="336" y="54"/>
      <point x="336" y="84" type="curve" smooth="yes"/>
      <point x="336" y="406" type="line" smooth="yes"/>
      <point x="336" y="485"/>
      <point x="338" y="548"/>
      <point x="346" y="660" type="curve"/>
      <point x="334" y="670" type="line"/>
      <point x="212" y="622"/>
      <point x="97" y="583"/>
      <point x="35" y="569" type="curve"/>
      <point x="35" y="544"/>
      <point x="39" y="525"/>
      <point x="49" y="499" type="curve"/>
    </contour>
  </outline>
</glyph>
<glyph name="two" format="1">
  <advance width="500"/>
  <unicode hex="0032"/>
  <outline>
    <contour>
      <point x="25" y="-3" type="line"/>
      <point x="197" y="0" type="line"/>
      <point x="241" y="0" type="line"/>
      <point x="471" y="-3" type="line"/>
      <point x="469" y="21"/>
      <point x="469" y="34"/>
      <point x="469" y="50" type="curve" smooth="yes"/>
      <point x="469" y="72"/>
      <point x="470" y="85"/>
      <point x="472" y="112" type="curve"/>
      <point x="468" y="117" type="line"/>
      <point x="166" y="106" type="line"/>
      <point x="164" y="114" type="line"/>
      <point x="338" y="285" type="line" smooth="yes"/>
      <point x="404" y="350"/>
      <point x="441" y="423"/>
      <point x="441" y="487" type="curve" smooth="yes"/>
      <point x="441" y="588"/>
      <point x="352" y="660"/>
      <point x="228" y="660" type="curve" smooth="yes"/>
      <point x="169" y="660"/>
      <point x="124" y="643"/>
      <point x="67" y="600" type="curve"/>
      <point x="49" y="435" type="line"/>
      <point x="86" y="432" type="line"/>
      <point x="104" y="500" type="line" smooth="yes"/>
      <point x="112" y="530"/>
      <point x="157" y="555"/>
      <point x="201" y="555" type="curve" smooth="yes"/>
      <point x="267" y="555"/>
      <point x="309" y="511"/>
      <point x="309" y="443" type="curve" smooth="yes"/>
      <point x="309" y="368"/>
      <point x="270" y="292"/>
      <point x="192" y="214" type="curve" smooth="yes"/>
      <point x="25" y="48" type="line"/>
    </contour>
  </outline>
</glyph>
<glyph name="three" format="1">
  <advance width="500"/>
  <unicode hex="0033"/>
  <outline>
    <contour>
      <point x="22" y="156" type="line"/>
      <point x="31" y="111"/>
      <point x="34" y="87"/>
      <point x="47" y="7" type="curve"/>
      <point x="89" y="-11"/>
      <point x="122" y="-17"/>
      <point x="171" y="-17" type="curve" smooth="yes"/>
      <point x="330" y="-17"/>
      <point x="458" y="91"/>
      <point x="458" y="225" type="curve" smooth="yes"/>
      <point x="458" y="278"/>
      <point x="437" y="319"/>
      <point x="397" y="346" type="curve" smooth="yes"/>
      <point x="372" y="362"/>
      <point x="351" y="368"/>
      <point x="306" y="373" type="curve"/>
      <point x="383" y="413"/>
      <point x="418" y="458"/>
      <point x="418" y="519" type="curve" smooth="yes"/>
      <point x="418" y="601"/>
      <point x="342" y="660"/>
      <point x="237" y="660" type="curve" smooth="yes"/>
      <point x="182" y="660"/>
      <point x="142" y="648"/>
      <point x="84" y="615" type="curve"/>
      <point x="53" y="461" type="line"/>
      <point x="88" y="461" type="line"/>
      <point x="107" y="530"/>
      <point x="144" y="562"/>
      <point x="205" y="562" type="curve" smooth="yes"/>
      <point x="268" y="562"/>
      <point x="307" y="527"/>
      <point x="307" y="472" type="curve" smooth="yes"/>
      <point x="307" y="408"/>
      <point x="262" y="367"/>
      <point x="194" y="367" type="curve" smooth="yes"/>
      <point x="159" y="367" type="line"/>
      <point x="140" y="293" type="line"/>
      <point x="147" y="288" type="line"/>
      <point x="167" y="294"/>
      <point x="186" y="296"/>
      <point x="208" y="296" type="curve" smooth="yes"/>
      <point x="284" y="296"/>
      <point x="334" y="247"/>
      <point x="334" y="172" type="curve" smooth="yes"/>
      <point x="334" y="94"/>
      <point x="283" y="39"/>
      <point x="210" y="39" type="curve" smooth="yes"/>
      <point x="175" y="39"/>
      <point x="141" y="52"/>
      <point x="115" y="74" type="curve" smooth="yes"/>
      <point x="92" y="95"/>
      <point x="78" y="116"/>
      <point x="56" y="165" type="curve"/>
    </contour>
  </outline>
</glyph>
<glyph name="four" format="1">
  <advance width="500"/>
  <unicode hex="0034"/>
  <outline>
    <contour>
      <point x="19" y="165" type="line"/>
      <point x="263" y="165" type="line"/>
      <point x="263" y="111" type="line" smooth="yes"/>
      <point x="263" y="65"/>
      <point x="243" y="39"/>
      <point x="206" y="37" type="curve" smooth="yes"/>
      <point x="142" y="34" type="line"/>
      <point x="142" y="-3" type="line"/>
      <point x="192" y="-2"/>
      <point x="238" y="-1"/>
      <point x="254" y="-1" type="curve" smooth="yes"/>
      <point x="286" y="0"/>
      <point x="307" y="0"/>
      <point x="319" y="0" type="curve" smooth="yes"/>
      <point x="334" y="0"/>
      <point x="334" y="0"/>
      <point x="473" y="-3" type="curve"/>
      <point x="473" y="34" type="line"/>
      <point x="437" y="37" type="line" smooth="yes"/>
      <point x="399" y="40"/>
      <point x="380" y="65"/>
      <point x="380" y="111" type="curve" smooth="yes"/>
      <point x="380" y="165" type="line"/>
      <point x="469" y="165" type="line"/>
      <point x="469" y="244" type="line"/>
      <point x="468" y="247" type="line"/>
      <point x="380" y="247" type="line"/>
      <point x="380" y="372" type="line" smooth="yes"/>
      <point x="380" y="448"/>
      <point x="381" y="513"/>
      <point x="386" y="660" type="curve"/>
      <point x="379" y="672" type="line"/>
      <point x="257" y="645" type="line"/>
      <point x="140" y="474"/>
      <point x="69" y="346"/>
      <point x="12" y="204" type="curve"/>
    </contour>
    <contour>
      <point x="82" y="247" type="line"/>
      <point x="88" y="259"/>
      <point x="90" y="263"/>
      <point x="99" y="283" type="curve" smooth="yes"/>
      <point x="110" y="309"/>
      <point x="121" y="331"/>
      <point x="126" y="340" type="curve" smooth="yes"/>
      <point x="188" y="456" type="line"/>
      <point x="188" y="458"/>
      <point x="210" y="493"/>
      <point x="230" y="526" type="curve" smooth="yes"/>
      <point x="242" y="546"/>
      <point x="253" y="564"/>
      <point x="263" y="579" type="curve"/>
      <point x="263" y="247" type="line"/>
    </contour>
  </outline>
</glyph>
<glyph name="five" format="1">
  <advance width="500"/>
  <unicode hex="0035"/>
  <outline>
    <contour>
      <point x="149" y="539" type="line"/>
      <point x="149" y="539"/>
      <point x="293" y="542"/>
      <point x="293" y="542" type="curve"/>
      <point x="303" y="542"/>
      <point x="351" y="541"/>
      <point x="436" y="539" type="curve"/>
      <point x="442" y="550" type="line"/>
      <point x="441" y="566"/>
      <point x="441" y="580"/>
      <point x="441" y="592" type="curve" smooth="yes"/>
      <point x="441" y="612"/>
      <point x="443" y="626"/>
      <point x="448" y="648" type="curve"/>
      <point x="444" y="656" type="line"/>
      <point x="267" y="650" type="line"/>
      <point x="176" y="652"/>
      <point x="155" y="653"/>
      <point x="97" y="656" type="curve"/>
      <point x="90" y="648" type="line"/>
      <point x="95" y="576"/>
      <point x="96" y="546"/>
      <point x="96" y="512" type="curve" smooth="yes"/>
      <point x="96" y="410" type="line" smooth="yes"/>
      <point x="96" y="389"/>
      <point x="95" y="365"/>
      <point x="90" y="286" type="curve"/>
      <point x="109" y="275" type="line"/>
      <point x="142" y="303"/>
      <point x="177" y="315"/>
      <point x="221" y="315" type="curve" smooth="yes"/>
      <point x="302" y="315"/>
      <point x="354" y="261"/>
      <point x="354" y="177" type="curve" smooth="yes"/>
      <point x="354" y="94"/>
      <point x="304" y="41"/>
      <point x="227" y="41" type="curve" smooth="yes"/>
      <point x="158" y="41"/>
      <point x="107" y="80"/>
      <point x="72" y="157" type="curve"/>
      <point x="42" y="139" type="line"/>
      <point x="61" y="62"/>
      <point x="67" y="37"/>
      <point x="73" y="5" type="curve"/>
      <point x="110" y="-11"/>
      <point x="141" y="-17"/>
      <point x="186" y="-17" type="curve" smooth="yes"/>
      <point x="345" y="-17"/>
      <point x="472" y="96"/>
      <point x="472" y="237" type="curve" smooth="yes"/>
      <point x="472" y="348"/>
      <point x="396" y="418"/>
      <point x="275" y="418" type="curve" smooth="yes"/>
      <point x="232" y="418"/>
      <point x="202" y="410"/>
      <point x="145" y="384" type="curve"/>
    </contour>
  </outline>
</glyph>
<glyph name="six" format="1">
  <advance width="500"/>
  <unicode hex="0036"/>
  <outline>
    <contour>
      <point x="396" y="660" type="line"/>
      <point x="303" y="658"/>
      <point x="251" y="640"/>
      <point x="186" y="590" type="curve" smooth="yes"/>
      <point x="86" y="513"/>
      <point x="37" y="404"/>
      <point x="37" y="264" type="curve" smooth="yes"/>
      <point x="37" y="182"/>
      <point x="57" y="106"/>
      <point x="89" y="60" type="curve" smooth="yes"/>
      <point x="125" y="9"/>
      <point x="181" y="-17"/>
      <point x="252" y="-17" type="curve" smooth="yes"/>
      <point x="381" y="-17"/>
      <point x="469" y="79"/>
      <point x="469" y="221" type="curve" smooth="yes"/>
      <point x="469" y="336"/>
      <point x="409" y="409"/>
      <point x="314" y="409" type="curve" smooth="yes"/>
      <point x="255" y="409"/>
      <point x="216" y="387"/>
      <point x="168" y="326" type="curve"/>
      <point x="176" y="426"/>
      <point x="190" y="478"/>
      <point x="221" y="524" type="curve" smooth="yes"/>
      <point x="261" y="584"/>
      <point x="327" y="618"/>
      <point x="399" y="618" type="curve" smooth="yes"/>
      <point x="403" y="618"/>
      <point x="411" y="618"/>
      <point x="420" y="617" type="curve"/>
      <point x="435" y="633" type="line"/>
    </contour>
    <contour>
      <point x="254" y="323" type="curve" smooth="yes"/>
      <point x="312" y="323"/>
      <point x="351" y="262"/>
      <point x="351" y="171" type="curve" smooth="yes"/>
      <point x="351" y="84"/>
      <point x="319" y="33"/>
      <point x="263" y="33" type="curve" smooth="yes"/>
      <point x="203" y="33"/>
      <point x="165" y="97"/>
      <point x="165" y="198" type="curve" smooth="yes"/>
      <point x="165" y="282"/>
      <point x="195" y="323"/>
    </contour>
  </outline>
</glyph>
<glyph name="seven" format="1">
  <advance width="500"/>
  <unicode hex="0037"/>
  <outline>
    <contour>
      <point x="493" y="653" type="line"/>
      <point x="352" y="650" type="line"/>
      <point x="323" y="650" type="line" smooth="yes"/>
      <point x="298" y="650"/>
      <point x="242" y="651"/>
      <point x="155" y="654" type="curve" smooth="yes"/>
      <point x="141" y="654"/>
      <point x="100" y="655"/>
      <point x="56" y="656" type="curve"/>
      <point x="46" y="648" type="line"/>
      <point x="49" y="583"/>
      <point x="50" y="554"/>
      <point x="50" y="506" type="curve" smooth="yes"/>
      <point x="50" y="494"/>
      <point x="50" y="494"/>
      <point x="49" y="416" type="curve"/>
      <point x="88" y="416" type="line"/>
      <point x="96" y="480" type="line" smooth="yes"/>
      <point x="101" y="524"/>
      <point x="112" y="532"/>
      <point x="159" y="532" type="curve" smooth="yes"/>
      <point x="384" y="532" type="line"/>
      <point x="388" y="526" type="line"/>
      <point x="88" y="8" type="line"/>
      <point x="94" y="-3" type="line"/>
      <point x="140" y="0"/>
      <point x="140" y="0"/>
      <point x="149" y="0" type="curve" smooth="yes"/>
      <point x="156" y="0"/>
      <point x="168" y="-1"/>
      <point x="185" y="-2" type="curve"/>
      <point x="188" y="-2"/>
      <point x="196" y="-2"/>
      <point x="204" y="-3" type="curve"/>
      <point x="219" y="46"/>
      <point x="264" y="157"/>
      <point x="290" y="212" type="curve" smooth="yes"/>
      <point x="400" y="436" type="line" smooth="yes"/>
      <point x="440" y="517"/>
      <point x="459" y="554"/>
      <point x="493" y="608" type="curve"/>
    </contour>
  </outline>
</glyph>
<glyph name="eight" format="1">
  <advance width="500"/>
  <unicode hex="0038"/>
  <outline>
    <contour>
      <point x="151" y="320" type="curve"/>
      <point x="72" y="280"/>
      <point x="34" y="226"/>
      <point x="34" y="155" type="curve" smooth="yes"/>
      <point x="34" y="54"/>
      <point x="116" y="-17"/>
      <point x="234" y="-17" type="curve" smooth="yes"/>
      <point x="367" y="-17"/>
      <point x="467" y="77"/>
      <point x="467" y="203" type="curve" smooth="yes"/>
      <point x="467" y="250"/>
      <point x="453" y="289"/>
      <point x="424" y="322" type="curve" smooth="yes"/>
      <point x="402" y="347"/>
      <point x="384" y="359"/>
      <point x="343" y="376" type="curve"/>
      <point x="412" y="423"/>
      <point x="437" y="461"/>
      <point x="437" y="517" type="curve" smooth="yes"/>
      <point x="437" y="604"/>
      <point x="368" y="660"/>
      <point x="260" y="660" type="curve" smooth="yes"/>
      <point x="134" y="660"/>
      <point x="51" y="587"/>
      <point x="51" y="476" type="curve" smooth="yes"/>
      <point x="51" y="405"/>
      <point x="79" y="362"/>
    </contour>
    <contour>
      <point x="253" y="275" type="line" smooth="yes"/>
      <point x="327" y="242"/>
      <point x="357" y="207"/>
      <point x="357" y="150" type="curve" smooth="yes"/>
      <point x="357" y="84"/>
      <point x="310" y="35"/>
      <point x="248" y="35" type="curve" smooth="yes"/>
      <point x="176" y="35"/>
      <point x="123" y="93"/>
      <point x="123" y="171" type="curve" smooth="yes"/>
      <point x="123" y="224"/>
      <point x="140" y="256"/>
      <point x="192" y="302" type="curve"/>
    </contour>
    <contour>
      <point x="250" y="412" type="line" smooth="yes"/>
      <point x="180" y="442"/>
      <point x="154" y="471"/>
      <point x="154" y="519" type="curve" smooth="yes"/>
      <point x="154" y="573"/>
      <point x="192" y="608"/>
      <point x="249" y="608" type="curve" smooth="yes"/>
      <point x="311" y="608"/>
      <point x="353" y="565"/>
      <point x="353" y="501" type="curve" smooth="yes"/>
      <point x="353" y="459"/>
      <point x="337" y="430"/>
      <point x="294" y="393" type="curve"/>
    </contour>
  </outline>
</glyph>
<glyph name="nine" format="1">
  <advance width="500"/>
  <unicode hex="0039"/>
  <outline>
    <contour>
      <point x="105" y="-17" type="line"/>
      <point x="171" y="-14"/>
      <point x="199" y="-9"/>
      <point x="243" y="11" type="curve" smooth="yes"/>
      <point x="380" y="71"/>
      <point x="463" y="214"/>
      <point x="463" y="390" type="curve" smooth="yes"/>
      <point x="463" y="565"/>
      <point x="388" y="660"/>
      <point x="248" y="660" type="curve" smooth="yes"/>
      <point x="114" y="660"/>
      <point x="31" y="571"/>
      <point x="31" y="427" type="curve" smooth="yes"/>
      <point x="31" y="305"/>
      <point x="90" y="236"/>
      <point x="195" y="236" type="curve" smooth="yes"/>
      <point x="228" y="236"/>
      <point x="248" y="243"/>
      <point x="268" y="260" type="curve" smooth="yes"/>
      <point x="331" y="315" type="line"/>
      <point x="325" y="255"/>
      <point x="321" y="228"/>
      <point x="310" y="193" type="curve" smooth="yes"/>
      <point x="291" y="129"/>
      <point x="255" y="80"/>
      <point x="209" y="55" type="curve" smooth="yes"/>
      <point x="180" y="39"/>
      <point x="134" y="27"/>
      <point x="107" y="27" type="curve" smooth="yes"/>
      <point x="101" y="27"/>
      <point x="90" y="28"/>
      <point x="76" y="30" type="curve"/>
      <point x="67" y="12" type="line"/>
    </contour>
    <contour>
      <point x="241" y="608" type="curve" smooth="yes"/>
      <point x="302" y="608"/>
      <point x="336" y="549"/>
      <point x="336" y="444" type="curve" smooth="yes"/>
      <point x="336" y="361"/>
      <point x="309" y="323"/>
      <point x="250" y="323" type="curve" smooth="yes"/>
      <point x="187" y="323"/>
      <point x="149" y="381"/>
      <point x="149" y="476" type="curve" smooth="yes"/>
      <point x="149" y="559"/>
      <point x="183" y="608"/>
    </contour>
  </outline>
</glyph>
<glyph name="colon" format="1">
  <advance width="250"/>
  <unicode hex="003A"/>
  <outline>
    <contour>
      <point x="126" y="144" type="curve" smooth="yes"/>
      <point x="84" y="144"/>
      <point x="47" y="107"/>
      <point x="47" y="65" type="curve" smooth="yes"/>
      <point x="47" y="23"/>
      <point x="83" y="-12"/>
      <point x="124" y="-12" type="curve" smooth="yes"/>
      <point x="166" y="-12"/>
      <point x="203" y="24"/>
      <point x="203" y="65" type="curve" smooth="yes"/>
      <point x="203" y="106"/>
      <point x="166" y="144"/>
    </contour>
    <contour>
      <point x="126" y="454" type="curve" smooth="yes"/>
      <point x="84" y="454"/>
      <point x="47" y="417"/>
      <point x="47" y="375" type="curve" smooth="yes"/>
      <point x="47" y="333"/>
      <point x="83" y="298"/>
      <point x="124" y="298" type="curve" smooth="yes"/>
      <point x="166" y="298"/>
      <point x="203" y="334"/>
      <point x="203" y="375" type="curve" smooth="yes"/>
      <point x="203" y="416"/>
      <point x="166" y="454"/>
    </contour>
  </outline>
</glyph>
<glyph name="semicolon" format="1">
  <advance width="250"/>
  <unicode hex="003B"/>
  <outline>
    <contour>
      <point x="80" y="-136" type="line"/>
      <point x="158" y="-11"/>
      <point x="191" y="47"/>
      <point x="227" y="125" type="curve"/>
      <point x="210" y="141" type="line"/>
      <point x="163" y="126"/>
      <point x="130" y="117"/>
      <point x="76" y="103" type="curve"/>
      <point x="68" y="32"/>
      <point x="38" y="-64"/>
      <point x="-6" y="-153" type="curve"/>
      <point x="9" y="-166" type="line"/>
    </contour>
    <contour>
      <point x="149" y="454" type="curve" smooth="yes"/>
      <point x="107" y="454"/>
      <point x="70" y="417"/>
      <point x="70" y="375" type="curve" smooth="yes"/>
      <point x="70" y="333"/>
      <point x="106" y="298"/>
      <point x="147" y="298" type="curve" smooth="yes"/>
      <point x="189" y="298"/>
      <point x="226" y="334"/>
      <point x="226" y="375" type="curve" smooth="yes"/>
      <point x="226" y="416"/>
      <point x="189" y="454"/>
    </contour>
  </outline>
</glyph>
<glyph name="less" format="1">
  <advance width="606"/>
  <unicode hex="003C"/>
  <outline>
    <contour>
      <point x="170" y="252" type="line"/>
      <point x="558" y="431" type="line"/>
      <point x="558" y="523" type="line"/>
      <point x="49" y="293" type="line"/>
      <point x="49" y="211" type="line"/>
      <point x="558" y="-19" type="line"/>
      <point x="558" y="73" type="line"/>
    </contour>
  </outline>
</glyph>
<glyph name="equal" format="1">
  <advance width="606"/>
  <unicode hex="003D"/>
  <outline>
    <contour>
      <point x="555" y="396" type="line"/>
      <point x="51" y="396" type="line"/>
      <point x="51" y="310" type="line"/>
      <point x="555" y="310" type="line"/>
    </contour>
    <contour>
      <point x="555" y="200" type="line"/>
      <point x="51" y="200" type="line"/>
      <point x="51" y="114" type="line"/>
      <point x="555" y="114" type="line"/>
    </contour>
  </outline>
</glyph>
<glyph name="greater" format="1">
  <advance width="606"/>
  <unicode hex="003E"/>
  <outline>
    <contour>
      <point x="437" y="252" type="line"/>
      <point x="49" y="73" type="line"/>
      <point x="49" y="-19" type="line"/>
      <point x="558" y="211" type="line"/>
      <point x="558" y="293" type="line"/>
      <point x="49" y="523" type="line"/>
      <point x="49" y="431" type="line"/>
    </contour>
  </outline>
</glyph>
<glyph name="question" format="1">
  <advance width="444"/>
  <unicode hex="003F"/>
  <outline>
    <contour>
      <point x="78" y="497" type="line"/>
      <point x="109" y="568" type="line" smooth="yes"/>
      <point x="115" y="581"/>
      <point x="146" y="591"/>
      <point x="181" y="591" type="curve" smooth="yes"/>
      <point x="236" y="591"/>
      <point x="277" y="555"/>
      <point x="277" y="508" type="curve" smooth="yes"/>
      <point x="277" y="473"/>
      <point x="261" y="442"/>
      <point x="214" y="386" type="curve" smooth="yes"/>
      <point x="168" y="330"/>
      <point x="151" y="297"/>
      <point x="151" y="262" type="curve" smooth="yes"/>
      <point x="151" y="234"/>
      <point x="159" y="211"/>
      <point x="177" y="188" type="curve"/>
      <point x="211" y="202" type="line"/>
      <point x="210" y="204" type="line" smooth="yes"/>
      <point x="204" y="217"/>
      <point x="201" y="228"/>
      <point x="201" y="241" type="curve" smooth="yes"/>
      <point x="201" y="267"/>
      <point x="222" y="298"/>
      <point x="263" y="332" type="curve" smooth="yes"/>
      <point x="340" y="396" type="line" smooth="yes"/>
      <point x="393" y="440"/>
      <point x="411" y="474"/>
      <point x="411" y="530" type="curve" smooth="yes"/>
      <point x="411" y="626"/>
      <point x="338" y="687"/>
      <point x="225" y="687" type="curve" smooth="yes"/>
      <point x="167" y="687"/>
      <point x="128" y="675"/>
      <point x="75" y="639" type="curve"/>
      <point x="72" y="604"/>
      <point x="65" y="573"/>
      <point x="43" y="506" type="curve"/>
    </contour>
    <contour>
      <point x="195" y="144" type="curve" smooth="yes"/>
      <point x="153" y="144"/>
      <point x="116" y="106"/>
      <point x="116" y="64" type="curve" smooth="yes"/>
      <point x="116" y="23"/>
      <point x="152" y="-12"/>
      <point x="194" y="-12" type="curve" smooth="yes"/>
      <point x="235" y="-12"/>
      <point x="272" y="24"/>
      <point x="272" y="65" type="curve" smooth="yes"/>
      <point x="272" y="106"/>
      <point x="235" y="144"/>
    </contour>
  </outline>
</glyph>
<glyph name="at" format="1">
  <advance width="747"/>
  <unicode hex="0040"/>
  <outline>
    <contour>
      <point x="635" y="173" type="line"/>
      <point x="590" y="113"/>
      <point x="562" y="89"/>
      <point x="510" y="66" type="curve" smooth="yes"/>
      <point x="477" y="51"/>
      <point x="443" y="44"/>
      <point x="403" y="44" type="curve" smooth="yes"/>
      <point x="227" y="44"/>
      <point x="98" y="167"/>
      <point x="98" y="335" type="curve" smooth="yes"/>
      <point x="98" y="501"/>
      <point x="225" y="625"/>
      <point x="396" y="625" type="curve" smooth="yes"/>
      <point x="541" y="625"/>
      <point x="653" y="528"/>
      <point x="653" y="403" type="curve" smooth="yes"/>
      <point x="653" y="340"/>
      <point x="629" y="274"/>
      <point x="588" y="225" type="curve" smooth="yes"/>
      <point x="559" y="190"/>
      <point x="530" y="170"/>
      <point x="508" y="170" type="curve" smooth="yes"/>
      <point x="497" y="170"/>
      <point x="489" y="180"/>
      <point x="489" y="194" type="curve" smooth="yes"/>
      <point x="489" y="200"/>
      <point x="491" y="210"/>
      <point x="493" y="219" type="curve" smooth="yes"/>
      <point x="567" y="493" type="line"/>
      <point x="473" y="493" type="line"/>
      <point x="457" y="429" type="line"/>
      <point x="447" y="477"/>
      <point x="420" y="501"/>
      <point x="376" y="501" type="curve" smooth="yes"/>
      <point x="267" y="501"/>
      <point x="170" y="395"/>
      <point x="170" y="278" type="curve" smooth="yes"/>
      <point x="170" y="198"/>
      <point x="220" y="143"/>
      <point x="294" y="143" type="curve" smooth="yes"/>
      <point x="342" y="143"/>
      <point x="368" y="159"/>
      <point x="412" y="219" type="curve"/>
      <point x="418" y="166"/>
      <point x="442" y="137"/>
      <point x="481" y="137" type="curve" smooth="yes"/>
      <point x="526" y="137"/>
      <point x="586" y="168"/>
      <point x="631" y="213" type="curve" smooth="yes"/>
      <point x="677" y="261"/>
      <point x="704" y="329"/>
      <point x="704" y="399" type="curve" smooth="yes"/>
      <point x="704" y="558"/>
      <point x="567" y="681"/>
      <point x="391" y="681" type="curve" smooth="yes"/>
      <point x="195" y="681"/>
      <point x="42" y="527"/>
      <point x="42" y="329" type="curve" smooth="yes"/>
      <point x="42" y="137"/>
      <point x="195" y="-12"/>
      <point x="392" y="-12" type="curve" smooth="yes"/>
      <point x="479" y="-12"/>
      <point x="558" y="18"/>
      <point x="623" y="75" type="curve" smooth="yes"/>
      <point x="654" y="102"/>
      <point x="670" y="123"/>
      <point x="699" y="173" type="curve"/>
    </contour>
    <contour>
      <point x="392" y="471" type="curve" smooth="yes"/>
      <point x="420" y="469"/>
      <point x="438" y="442"/>
      <point x="438" y="403" type="curve" smooth="yes"/>
      <point x="438" y="353"/>
      <point x="420" y="285"/>
      <point x="394" y="240" type="curve" smooth="yes"/>
      <point x="369" y="195"/>
      <point x="342" y="172"/>
      <point x="314" y="172" type="curve" smooth="yes"/>
      <point x="285" y="172"/>
      <point x="265" y="201"/>
      <point x="265" y="242" type="curve" smooth="yes"/>
      <point x="265" y="350"/>
      <point x="334" y="475"/>
    </contour>
  </outline>
</glyph>
<glyph name="F" format="1">
  <advance width="556"/>
  <unicode hex="0046"/>
  <outline>
    <contour>
      <point x="254" y="620" type="line"/>
      <point x="303" y="622"/>
      <point x="336" y="623"/>
      <point x="370" y="623" type="curve" smooth="yes"/>
      <point x="437" y="623"/>
      <point x="480" y="616"/>
      <point x="481" y="604" type="curve" smooth="yes"/>
      <point x="489" y="529" type="line"/>
      <point x="525" y="529" type="line"/>
      <point x="539" y="671" type="line"/>
      <point x="533" y="678" type="line"/>
      <point x="495" y="681"/>
      <point x="477" y="682"/>
      <point x="438" y="682" type="curve" smooth="yes"/>
      <point x="415" y="682"/>
      <point x="377" y="681"/>
      <point x="297" y="679" type="curve" smooth="yes"/>
      <point x="251" y="678"/>
      <point x="226" y="678"/>
      <point x="206" y="678" type="curve" smooth="yes"/>
      <point x="177" y="678"/>
      <point x="177" y="678"/>
      <point x="28" y="681" type="curve"/>
      <point x="28" y="644" type="line"/>
      <point x="65" y="641" type="line" smooth="yes"/>
      <point x="110" y="637"/>
      <point x="113" y="631"/>
      <point x="113" y="543" type="curve" smooth="yes"/>
      <point x="113" y="135" type="line" smooth="yes"/>
      <point x="113" y="46"/>
      <point x="112" y="44"/>
      <point x="65" y="40" type="curve" smooth="yes"/>
      <point x="28" y="37" type="line"/>
      <point x="28" y="-3" type="line"/>
      <point x="149" y="0"/>
      <point x="149" y="0"/>
      <point x="183" y="0" type="curve" smooth="yes"/>
      <point x="215" y="0"/>
      <point x="215" y="0"/>
      <point x="349" y="-3" type="curve"/>
      <point x="349" y="37" type="line"/>
      <point x="302" y="40" type="line" smooth="yes"/>
      <point x="256" y="43"/>
      <point x="254" y="47"/>
      <point x="254" y="135" type="curve" smooth="yes"/>
      <point x="254" y="322" type="line"/>
      <point x="282" y="324"/>
      <point x="299" y="325"/>
      <point x="321" y="325" type="curve" smooth="yes"/>
      <point x="372" y="325" type="line" smooth="yes"/>
      <point x="410" y="325"/>
      <point x="426" y="314"/>
      <point x="429" y="288" type="curve" smooth="yes"/>
      <point x="435" y="238" type="line"/>
      <point x="475" y="238" type="line"/>
      <point x="475" y="238"/>
      <point x="472" y="346"/>
      <point x="472" y="346" type="curve"/>
      <point x="472" y="357"/>
      <point x="472" y="371"/>
      <point x="475" y="449" type="curve"/>
      <point x="435" y="449" type="line"/>
      <point x="429" y="396" type="line" smooth="yes"/>
      <point x="427" y="380"/>
      <point x="414" y="375"/>
      <point x="372" y="375" type="curve" smooth="yes"/>
      <point x="321" y="375" type="line" smooth="yes"/>
      <point x="288" y="375"/>
      <point x="274" y="375"/>
      <point x="254" y="377" type="curve"/>
    </contour>
  </outline>
</glyph>
<glyph name="I" format="1">
  <advance width="389"/>
  <unicode hex="0049"/>
  <outline>
    <contour>
      <point x="265" y="543" type="line" smooth="yes"/>
      <point x="265" y="632"/>
      <point x="266" y="634"/>
      <point x="313" y="638" type="curve" smooth="yes"/>
      <point x="350" y="641" type="line"/>
      <point x="350" y="681" type="line"/>
      <point x="228" y="678"/>
      <point x="228" y="678"/>
      <point x="194" y="678" type="curve" smooth="yes"/>
      <point x="160" y="678"/>
      <point x="159" y="678"/>
      <point x="39" y="681" type="curve"/>
      <point x="39" y="641" type="line"/>
      <point x="76" y="638" type="line" smooth="yes"/>
      <point x="123" y="634"/>
      <point x="124" y="632"/>
      <point x="124" y="543" type="curve" smooth="yes"/>
      <point x="124" y="135" type="line" smooth="yes"/>
      <point x="124" y="46"/>
      <point x="123" y="44"/>
      <point x="76" y="40" type="curve" smooth="yes"/>
      <point x="39" y="37" type="line"/>
      <point x="39" y="-3" type="line"/>
      <point x="160" y="0"/>
      <point x="160" y="0"/>
      <point x="194" y="0" type="curve" smooth="yes"/>
      <point x="228" y="0"/>
      <point x="229" y="0"/>
      <point x="350" y="-3" type="curve"/>
      <point x="350" y="37" type="line"/>
      <point x="313" y="40" type="line" smooth="yes"/>
      <point x="266" y="44"/>
      <point x="265" y="46"/>
      <point x="265" y="135" type="curve" smooth="yes"/>
    </contour>
  </outline>
</glyph>
<glyph name="P" format="1">
  <advance width="611"/>
  <unicode hex="0050"/>
  <outline>
    <contour>
      <point x="311" y="326" type="line"/>
      <point x="322" y="324"/>
      <point x="323" y="324"/>
      <point x="326" y="323" type="curve"/>
      <point x="350" y="320"/>
      <point x="355" y="319"/>
      <point x="369" y="319" type="curve" smooth="yes"/>
      <point x="498" y="319"/>
      <point x="594" y="410"/>
      <point x="594" y="531" type="curve" smooth="yes"/>
      <point x="594" y="631"/>
      <point x="531" y="681"/>
      <point x="405" y="681" type="curve" smooth="yes"/>
      <point x="393" y="681" type="line" smooth="yes"/>
      <point x="284" y="679"/>
      <point x="223" y="678"/>
      <point x="212" y="678" type="curve" smooth="yes"/>
      <point x="191" y="678"/>
      <point x="191" y="678"/>
      <point x="39" y="681" type="curve"/>
      <point x="39" y="644" type="line"/>
      <point x="76" y="641" type="line" smooth="yes"/>
      <point x="121" y="637"/>
      <point x="124" y="631"/>
      <point x="124" y="543" type="curve" smooth="yes"/>
      <point x="124" y="135" type="line" smooth="yes"/>
      <point x="124" y="46"/>
      <point x="123" y="44"/>
      <point x="76" y="40" type="curve" smooth="yes"/>
      <point x="39" y="37" type="line"/>
      <point x="39" y="-3" type="line"/>
      <point x="160" y="0"/>
      <point x="160" y="0"/>
      <point x="195" y="0" type="curve" smooth="yes"/>
      <point x="226" y="0"/>
      <point x="226" y="0"/>
      <point x="360" y="-3" type="curve"/>
      <point x="360" y="37" type="line"/>
      <point x="313" y="40" type="line" smooth="yes"/>
      <point x="267" y="43"/>
      <point x="265" y="47"/>
      <point x="265" y="135" type="curve" smooth="yes"/>
      <point x="265" y="622" type="line"/>
      <point x="280" y="628"/>
      <point x="298" y="631"/>
      <point x="325" y="631" type="curve" smooth="yes"/>
      <point x="408" y="631"/>
      <point x="450" y="586"/>
      <point x="450" y="497" type="curve" smooth="yes"/>
      <point x="450" y="417"/>
      <point x="410" y="365"/>
      <point x="347" y="365" type="curve" smooth="yes"/>
      <point x="339" y="365"/>
      <point x="338" y="365"/>
      <point x="312" y="370" type="curve"/>
      <point x="311" y="370"/>
      <point x="308" y="370"/>
      <point x="304" y="371" type="curve"/>
      <point x="294" y="361" type="line"/>
    </contour>
  </outline>
</glyph>
<glyph name="Q" format="1">
  <advance width="833"/>
  <unicode hex="0051"/>
  <outline>
    <contour>
      <point x="781" y="-120" type="line"/>
      <point x="781" y="-83" type="line"/>
      <point x="770" y="-87" type="line"/>
      <point x="737" y="-101"/>
      <point x="719" y="-106"/>
      <point x="701" y="-106" type="curve" smooth="yes"/>
      <point x="675" y="-106"/>
      <point x="631" y="-97"/>
      <point x="594" y="-84" type="curve" smooth="yes"/>
      <point x="474" y="-42" type="line" smooth="yes"/>
      <point x="446" y="-32"/>
      <point x="421" y="-26"/>
      <point x="374" y="-16" type="curve"/>
      <point x="385" y="-16"/>
      <point x="387" y="-16"/>
      <point x="395" y="-15" type="curve"/>
      <point x="505" y="-15"/>
      <point x="595" y="9"/>
      <point x="655" y="54" type="curve" smooth="yes"/>
      <point x="742" y="118"/>
      <point x="787" y="217"/>
      <point x="787" y="346" type="curve" smooth="yes"/>
      <point x="787" y="568"/>
      <point x="656" y="695"/>
      <point x="427" y="695" type="curve" smooth="yes"/>
      <point x="188" y="695"/>
      <point x="47" y="560"/>
      <point x="47" y="331" type="curve" smooth="yes"/>
      <point x="47" y="199"/>
      <point x="94" y="99"/>
      <point x="182" y="41" type="curve" smooth="yes"/>
      <point x="231" y="9"/>
      <point x="273" y="-4"/>
      <point x="361" y="-15" type="curve"/>
      <point x="308" y="-35"/>
      <point x="273" y="-57"/>
      <point x="200" y="-115" type="curve"/>
      <point x="211" y="-146" type="line"/>
      <point x="259" y="-113"/>
      <point x="284" y="-101"/>
      <point x="308" y="-101" type="curve" smooth="yes"/>
      <point x="333" y="-101"/>
      <point x="348" y="-104"/>
      <point x="407" y="-120" type="curve" smooth="yes"/>
      <point x="606" y="-174" type="line" smooth="yes"/>
      <point x="632" y="-181"/>
      <point x="652" y="-184"/>
      <point x="678" y="-184" type="curve"/>
    </contour>
    <contour>
      <point x="421" y="639" type="curve" smooth="yes"/>
      <point x="474" y="639"/>
      <point x="516" y="622"/>
      <point x="551" y="588" type="curve" smooth="yes"/>
      <point x="606" y="534"/>
      <point x="637" y="438"/>
      <point x="637" y="325" type="curve" smooth="yes"/>
      <point x="637" y="137"/>
      <point x="560" y="39"/>
      <point x="414" y="39" type="curve" smooth="yes"/>
      <point x="359" y="39"/>
      <point x="318" y="55"/>
      <point x="282" y="91" type="curve" smooth="yes"/>
      <point x="228" y="144"/>
      <point x="197" y="240"/>
      <point x="197" y="355" type="curve" smooth="yes"/>
      <point x="197" y="457"/>
      <point x="222" y="537"/>
      <point x="267" y="582" type="curve" smooth="yes"/>
      <point x="306" y="620"/>
      <point x="358" y="639"/>
    </contour>
  </outline>
</glyph>
<glyph name="R" format="1">
  <advance width="722"/>
  <unicode hex="0052"/>
  <outline>
    <contour>
      <point x="457" y="356" type="line"/>
      <point x="513" y="379"/>
      <point x="537" y="394"/>
      <point x="563" y="424" type="curve" smooth="yes"/>
      <point x="592" y="455"/>
      <point x="606" y="492"/>
      <point x="606" y="534" type="curve" smooth="yes"/>
      <point x="606" y="631"/>
      <point x="542" y="681"/>
      <point x="416" y="681" type="curve" smooth="yes"/>
      <point x="405" y="681"/>
      <point x="381" y="681"/>
      <point x="347" y="680" type="curve" smooth="yes"/>
      <point x="321" y="679"/>
      <point x="239" y="678"/>
      <point x="217" y="678" type="curve" smooth="yes"/>
      <point x="189" y="678"/>
      <point x="189" y="678"/>
      <point x="39" y="681" type="curve"/>
      <point x="39" y="644" type="line"/>
      <point x="76" y="641" type="line" smooth="yes"/>
      <point x="121" y="637"/>
      <point x="124" y="631"/>
      <point x="124" y="543" type="curve" smooth="yes"/>
      <point x="124" y="135" type="line" smooth="yes"/>
      <point x="124" y="46"/>
      <point x="123" y="44"/>
      <point x="76" y="40" type="curve" smooth="yes"/>
      <point x="39" y="37" type="line"/>
      <point x="39" y="-3" type="line"/>
      <point x="160" y="0"/>
      <point x="160" y="0"/>
      <point x="194" y="0" type="curve" smooth="yes"/>
      <point x="228" y="0"/>
      <point x="229" y="0"/>
      <point x="350" y="-3" type="curve"/>
      <point x="350" y="37" type="line"/>
      <point x="313" y="40" type="line" smooth="yes"/>
      <point x="266" y="44"/>
      <point x="265" y="46"/>
      <point x="265" y="135" type="curve" smooth="yes"/>
      <point x="265" y="622" type="line"/>
      <point x="279" y="628"/>
      <point x="298" y="631"/>
      <point x="324" y="631" type="curve" smooth="yes"/>
      <point x="413" y="631"/>
      <point x="464" y="584"/>
      <point x="464" y="503" type="curve" smooth="yes"/>
      <point x="464" y="450"/>
      <point x="439" y="405"/>
      <point x="398" y="381" type="curve" smooth="yes"/>
      <point x="373" y="366"/>
      <point x="348" y="361"/>
      <point x="304" y="362" type="curve"/>
      <point x="297" y="344" type="line"/>
      <point x="521" y="-3" type="line"/>
      <point x="611" y="0" type="line"/>
      <point x="662" y="-1"/>
      <point x="671" y="-1"/>
      <point x="708" y="-3" type="curve"/>
      <point x="708" y="37" type="line"/>
      <point x="672" y="44"/>
      <point x="662" y="50"/>
      <point x="638" y="82" type="curve"/>
    </contour>
  </outline>
</glyph>
<glyph name="V" format="1">
  <advance width="778"/>
  <unicode hex="0056"/>
  <outline>
    <contour>
      <point x="340" y="644" type="line"/>
      <point x="340" y="681" type="line"/>
      <point x="298" y="680"/>
      <point x="259" y="680"/>
      <point x="248" y="679" type="curve"/>
      <point x="214" y="678"/>
      <point x="191" y="678"/>
      <point x="178" y="678" type="curve" smooth="yes"/>
      <point x="164" y="678"/>
      <point x="164" y="678"/>
      <point x="20" y="681" type="curve"/>
      <point x="20" y="644" type="line"/>
      <point x="61" y="641" type="line" smooth="yes"/>
      <point x="86" y="638"/>
      <point x="101" y="620"/>
      <point x="123" y="569" type="curve" smooth="yes"/>
      <point x="362" y="-3" type="line"/>
      <point x="438" y="-3" type="line"/>
      <point x="448" y="23"/>
      <point x="452" y="34"/>
      <point x="457" y="46" type="curve"/>
      <point x="462" y="61"/>
      <point x="466" y="72"/>
      <point x="468" y="75" type="curve"/>
      <point x="469" y="79"/>
      <point x="472" y="87"/>
      <point x="476" y="96" type="curve" smooth="yes"/>
      <point x="684" y="594" type="line" smooth="yes"/>
      <point x="697" y="626"/>
      <point x="710" y="639"/>
      <point x="731" y="641" type="curve" smooth="yes"/>
      <point x="763" y="644" type="line"/>
      <point x="763" y="681" type="line"/>
      <point x="657" y="678"/>
      <point x="657" y="678"/>
      <point x="647" y="678" type="curve" smooth="yes"/>
      <point x="637" y="678"/>
      <point x="619" y="678"/>
      <point x="591" y="679" type="curve"/>
      <point x="583" y="680"/>
      <point x="558" y="680"/>
      <point x="532" y="681" type="curve"/>
      <point x="532" y="644" type="line"/>
      <point x="578" y="641" type="line" smooth="yes"/>
      <point x="601" y="639"/>
      <point x="615" y="630"/>
      <point x="615" y="615" type="curve" smooth="yes"/>
      <point x="615" y="600"/>
      <point x="605" y="569"/>
      <point x="584" y="516" type="curve" smooth="yes"/>
      <point x="442" y="163" type="line"/>
      <point x="285" y="550" type="line" smooth="yes"/>
      <point x="265" y="601"/>
      <point x="264" y="604"/>
      <point x="264" y="622" type="curve" smooth="yes"/>
      <point x="264" y="631"/>
      <point x="276" y="640"/>
      <point x="290" y="641" type="curve" smooth="yes"/>
    </contour>
  </outline>
</glyph>
<glyph name="W" format="1">
  <advance width="1000"/>
  <unicode hex="0057"/>
  <outline>
    <contour>
      <point x="320" y="207" type="line"/>
      <point x="238" y="590" type="line" smooth="yes"/>
      <point x="236" y="599"/>
      <point x="235" y="608"/>
      <point x="235" y="616" type="curve" smooth="yes"/>
      <point x="235" y="628"/>
      <point x="249" y="640"/>
      <point x="265" y="641" type="curve" smooth="yes"/>
      <point x="307" y="644" type="line"/>
      <point x="307" y="681" type="line"/>
      <point x="185" y="678"/>
      <point x="185" y="678"/>
      <point x="173" y="678" type="curve"/>
      <point x="173" y="678"/>
      <point x="17" y="681"/>
      <point x="17" y="681" type="curve"/>
      <point x="17" y="644" type="line"/>
      <point x="49" y="641" type="line" smooth="yes"/>
      <point x="68" y="639"/>
      <point x="79" y="627"/>
      <point x="86" y="599" type="curve" smooth="yes"/>
      <point x="225" y="-3" type="line"/>
      <point x="295" y="-3" type="line"/>
      <point x="325" y="80"/>
      <point x="333" y="100"/>
      <point x="342" y="122" type="curve" smooth="yes"/>
      <point x="497" y="477" type="line"/>
      <point x="646" y="102" type="line" smooth="yes"/>
      <point x="653" y="83"/>
      <point x="659" y="69"/>
      <point x="667" y="45" type="curve" smooth="yes"/>
      <point x="676" y="20"/>
      <point x="676" y="18"/>
      <point x="684" y="-3" type="curve"/>
      <point x="757" y="-3" type="line"/>
      <point x="777" y="88"/>
      <point x="783" y="114"/>
      <point x="790" y="140" type="curve" smooth="yes"/>
      <point x="912" y="572" type="line" smooth="yes"/>
      <point x="925" y="618"/>
      <point x="938" y="639"/>
      <point x="955" y="641" type="curve" smooth="yes"/>
      <point x="988" y="644" type="line"/>
      <point x="988" y="681" type="line"/>
      <point x="888" y="678"/>
      <point x="888" y="678"/>
      <point x="878" y="678" type="curve" smooth="yes"/>
      <point x="868" y="678"/>
      <point x="851" y="678"/>
      <point x="825" y="679" type="curve"/>
      <point x="818" y="680"/>
      <point x="796" y="680"/>
      <point x="772" y="681" type="curve"/>
      <point x="772" y="644" type="line"/>
      <point x="818" y="641" type="line" smooth="yes"/>
      <point x="841" y="640"/>
      <point x="853" y="632"/>
      <point x="853" y="618" type="curve" smooth="yes"/>
      <point x="853" y="608"/>
      <point x="852" y="599"/>
      <point x="849" y="588" type="curve" smooth="yes"/>
      <point x="752" y="210" type="line"/>
      <point x="615" y="553" type="line" smooth="yes"/>
      <point x="599" y="592"/>
      <point x="587" y="626"/>
      <point x="566" y="686" type="curve"/>
      <point x="521" y="686" type="line"/>
      <point x="499" y="633" type="line" smooth="yes"/>
      <point x="489" y="609"/>
      <point x="480" y="585"/>
      <point x="470" y="562" type="curve" smooth="yes"/>
    </contour>
  </outline>
</glyph>
<glyph name="bracketleft" format="1">
  <advance width="333"/>
  <unicode hex="005B"/>
  <outline>
    <contour>
      <point x="291" y="-66" type="line"/>
      <point x="242" y="-66" type="line" smooth="yes"/>
      <point x="217" y="-66"/>
      <point x="192" y="-55"/>
      <point x="184" y="-41" type="curve" smooth="yes"/>
      <point x="179" y="-33"/>
      <point x="179" y="-28"/>
      <point x="179" y="48" type="curve" smooth="yes"/>
      <point x="179" y="561" type="line" smooth="yes"/>
      <point x="179" y="637"/>
      <point x="180" y="652"/>
      <point x="186" y="660" type="curve"/>
      <point x="197" y="673"/>
      <point x="219" y="682"/>
      <point x="242" y="682" type="curve" smooth="yes"/>
      <point x="291" y="682" type="line"/>
      <point x="291" y="720" type="line"/>
      <point x="237" y="718" type="line" smooth="yes"/>
      <point x="219" y="717"/>
      <point x="204" y="717"/>
      <point x="193" y="717" type="curve" smooth="yes"/>
      <point x="184" y="717"/>
      <point x="166" y="717"/>
      <point x="142" y="718" type="curve"/>
      <point x="133" y="719"/>
      <point x="105" y="719"/>
      <point x="73" y="720" type="curve"/>
      <point x="75" y="644"/>
      <point x="76" y="595"/>
      <point x="76" y="566" type="curve" smooth="yes"/>
      <point x="78" y="488"/>
      <point x="79" y="433"/>
      <point x="79" y="407" type="curve" smooth="yes"/>
      <point x="79" y="188" type="line" smooth="yes"/>
      <point x="79" y="170"/>
      <point x="78" y="116"/>
      <point x="76" y="39" type="curve" smooth="yes"/>
      <point x="75" y="18"/>
      <point x="74" y="-38"/>
      <point x="73" y="-104" type="curve"/>
      <point x="103" y="-103"/>
      <point x="134" y="-103"/>
      <point x="142" y="-102" type="curve"/>
      <point x="166" y="-101"/>
      <point x="183" y="-101"/>
      <point x="192" y="-101" type="curve" smooth="yes"/>
      <point x="205" y="-101"/>
      <point x="228" y="-102"/>
      <point x="291" y="-104" type="curve"/>
    </contour>
  </outline>
</glyph>
<glyph name="bracketright" format="1">
  <advance width="333"/>
  <unicode hex="005D"/>
  <outline>
    <contour>
      <point x="42" y="720" type="line"/>
      <point x="42" y="682" type="line"/>
      <point x="91" y="682" type="line" smooth="yes"/>
      <point x="113" y="682"/>
      <point x="134" y="674"/>
      <point x="146" y="661" type="curve" smooth="yes"/>
      <point x="153" y="653"/>
      <point x="154" y="641"/>
      <point x="154" y="561" type="curve" smooth="yes"/>
      <point x="154" y="48" type="line" smooth="yes"/>
      <point x="154" y="-28"/>
      <point x="154" y="-33"/>
      <point x="149" y="-41" type="curve" smooth="yes"/>
      <point x="141" y="-55"/>
      <point x="116" y="-66"/>
      <point x="91" y="-66" type="curve" smooth="yes"/>
      <point x="42" y="-66" type="line"/>
      <point x="42" y="-104" type="line"/>
      <point x="105" y="-102"/>
      <point x="128" y="-101"/>
      <point x="141" y="-101" type="curve" smooth="yes"/>
      <point x="150" y="-101"/>
      <point x="167" y="-101"/>
      <point x="191" y="-102" type="curve"/>
      <point x="200" y="-103"/>
      <point x="229" y="-103"/>
      <point x="260" y="-104" type="curve"/>
      <point x="259" y="-38"/>
      <point x="258" y="18"/>
      <point x="257" y="39" type="curve" smooth="yes"/>
      <point x="255" y="116"/>
      <point x="254" y="170"/>
      <point x="254" y="188" type="curve" smooth="yes"/>
      <point x="254" y="407" type="line" smooth="yes"/>
      <point x="254" y="433"/>
      <point x="255" y="488"/>
      <point x="257" y="566" type="curve" smooth="yes"/>
      <point x="257" y="594"/>
      <point x="258" y="644"/>
      <point x="260" y="720" type="curve"/>
      <point x="228" y="719"/>
      <point x="200" y="719"/>
      <point x="191" y="718" type="curve"/>
      <point x="167" y="717"/>
      <point x="149" y="717"/>
      <point x="140" y="717" type="curve" smooth="yes"/>
      <point x="129" y="717"/>
      <point x="114" y="717"/>
      <point x="96" y="718" type="curve" smooth="yes"/>
    </contour>
  </outline>
</glyph>
<glyph name="asciicircum" format="1">
  <advance width="606"/>
  <unicode hex="005E"/>
  <outline>
    <contour>
      <point x="147" y="275" type="line"/>
      <point x="303" y="569" type="line"/>
      <point x="459" y="275" type="line"/>
      <point x="554" y="275" type="line"/>
      <point x="348" y="678" type="line"/>
      <point x="258" y="678" type="line"/>
      <point x="52" y="275" type="line"/>
    </contour>
  </outline>
</glyph>
<glyph name="grave" format="1">
  <advance width="333"/>
  <unicode hex="0060"/>
  <outline>
    <contour>
      <point x="200" y="506" type="line"/>
      <point x="256" y="506" type="line"/>
      <point x="127" y="654" type="line" smooth="yes"/>
      <point x="104" y="680"/>
      <point x="85" y="691"/>
      <point x="62" y="691" type="curve" smooth="yes"/>
      <point x="35" y="691"/>
      <point x="18" y="674"/>
      <point x="18" y="647" type="curve" smooth="yes"/>
      <point x="18" y="625"/>
      <point x="28" y="611"/>
      <point x="58" y="594" type="curve"/>
      <point x="62" y="591"/>
      <point x="65" y="589"/>
      <point x="69" y="587" type="curve"/>
    </contour>
  </outline>
</glyph>
<glyph name="b" format="1">
  <advance width="611"/>
  <unicode hex="0062"/>
  <outline>
    <contour>
      <point x="211" y="714" type="line"/>
      <point x="203" y="720" type="line"/>
      <point x="131" y="698" type="line" smooth="yes"/>
      <point x="102" y="689"/>
      <point x="68" y="683"/>
      <point x="10" y="677" type="curve"/>
      <point x="10" y="641" type="line"/>
      <point x="63" y="638" type="line" smooth="yes"/>
      <point x="85" y="637"/>
      <point x="89" y="627"/>
      <point x="89" y="568" type="curve" smooth="yes"/>
      <point x="89" y="162" type="line" smooth="yes"/>
      <point x="89" y="109"/>
      <point x="86" y="49"/>
      <point x="80" y="-4" type="curve"/>
      <point x="102" y="-12" type="line"/>
      <point x="141" y="20" type="line"/>
      <point x="187" y="-5"/>
      <point x="229" y="-17"/>
      <point x="272" y="-17" type="curve" smooth="yes"/>
      <point x="303" y="-17"/>
      <point x="330" y="-9"/>
      <point x="359" y="8" type="curve" smooth="yes"/>
      <point x="399" y="32"/>
      <point x="445" y="63"/>
      <point x="473" y="86" type="curve" smooth="yes"/>
      <point x="523" y="127"/>
      <point x="556" y="204"/>
      <point x="556" y="281" type="curve" smooth="yes"/>
      <point x="556" y="392"/>
      <point x="481" y="471"/>
      <point x="375" y="471" type="curve" smooth="yes"/>
      <point x="336" y="471"/>
      <point x="307" y="460"/>
      <point x="272" y="432" type="curve" smooth="yes"/>
      <point x="211" y="383" type="line"/>
    </contour>
    <contour>
      <point x="211" y="331" type="line"/>
      <point x="233" y="364"/>
      <point x="266" y="381"/>
      <point x="307" y="381" type="curve" smooth="yes"/>
      <point x="384" y="381"/>
      <point x="430" y="321"/>
      <point x="430" y="221" type="curve" smooth="yes"/>
      <point x="430" y="117"/>
      <point x="385" y="51"/>
      <point x="312" y="51" type="curve" smooth="yes"/>
      <point x="270" y="51"/>
      <point x="238" y="68"/>
      <point x="211" y="106" type="curve"/>
    </contour>
  </outline>
</glyph>
<glyph name="d" format="1">
  <advance width="611"/>
  <unicode hex="0064"/>
  <outline>
    <contour>
      <point x="508" y="714" type="line"/>
      <point x="500" y="720" type="line"/>
      <point x="428" y="698" type="line" smooth="yes"/>
      <point x="399" y="689"/>
      <point x="365" y="683"/>
      <point x="307" y="677" type="curve"/>
      <point x="307" y="641" type="line"/>
      <point x="360" y="638" type="line" smooth="yes"/>
      <point x="382" y="637"/>
      <point x="386" y="627"/>
      <point x="386" y="568" type="curve" smooth="yes"/>
      <point x="386" y="446" type="line"/>
      <point x="366" y="454" type="line" smooth="yes"/>
      <point x="338" y="465"/>
      <point x="311" y="471"/>
      <point x="286" y="471" type="curve" smooth="yes"/>
      <point x="254" y="471"/>
      <point x="225" y="462"/>
      <point x="198" y="445" type="curve" smooth="yes"/>
      <point x="126" y="398" type="line" smooth="yes"/>
      <point x="69" y="360"/>
      <point x="42" y="303"/>
      <point x="42" y="217" type="curve" smooth="yes"/>
      <point x="42" y="74"/>
      <point x="116" y="-17"/>
      <point x="233" y="-17" type="curve" smooth="yes"/>
      <point x="256" y="-17"/>
      <point x="272" y="-13"/>
      <point x="282" y="-5" type="curve" smooth="yes"/>
      <point x="386" y="80" type="line"/>
      <point x="386" y="80"/>
      <point x="381" y="5"/>
      <point x="381" y="5" type="curve"/>
      <point x="381" y="5"/>
      <point x="386" y="-3"/>
      <point x="386" y="-3" type="curve"/>
      <point x="446" y="-1"/>
      <point x="465" y="0"/>
      <point x="476" y="0" type="curve" smooth="yes"/>
      <point x="484" y="0"/>
      <point x="502" y="-1"/>
      <point x="530" y="-2" type="curve" smooth="yes"/>
      <point x="537" y="-2"/>
      <point x="556" y="-2"/>
      <point x="577" y="-3" type="curve"/>
      <point x="577" y="34" type="line"/>
      <point x="544" y="36" type="line" smooth="yes"/>
      <point x="513" y="38"/>
      <point x="508" y="46"/>
      <point x="508" y="100" type="curve" smooth="yes"/>
    </contour>
    <contour>
      <point x="386" y="160" type="line" smooth="yes"/>
      <point x="386" y="115"/>
      <point x="339" y="78"/>
      <point x="284" y="78" type="curve" smooth="yes"/>
      <point x="213" y="78"/>
      <point x="168" y="147"/>
      <point x="168" y="255" type="curve" smooth="yes"/>
      <point x="168" y="356"/>
      <point x="203" y="407"/>
      <point x="274" y="407" type="curve" smooth="yes"/>
      <point x="317" y="407"/>
      <point x="353" y="387"/>
      <point x="386" y="344" type="curve"/>
    </contour>
  </outline>
</glyph>
<glyph name="h" format="1">
  <advance width="611"/>
  <unicode hex="0068"/>
  <outline>
    <contour>
      <point x="209" y="720" type="line"/>
      <point x="137" y="698" type="line" smooth="yes"/>
      <point x="111" y="690"/>
      <point x="78" y="684"/>
      <point x="24" y="677" type="curve"/>
      <point x="24" y="641" type="line"/>
      <point x="69" y="638" type="line" smooth="yes"/>
      <point x="92" y="636"/>
      <point x="95" y="627"/>
      <point x="95" y="568" type="curve" smooth="yes"/>
      <point x="95" y="100" type="line" smooth="yes"/>
      <point x="95" y="46"/>
      <point x="90" y="38"/>
      <point x="59" y="36" type="curve" smooth="yes"/>
      <point x="24" y="34" type="line"/>
      <point x="24" y="-3" type="line"/>
      <point x="24" y="-3"/>
      <point x="153" y="0"/>
      <point x="153" y="0" type="curve"/>
      <point x="173" y="0"/>
      <point x="221" y="-1"/>
      <point x="288" y="-3" type="curve"/>
      <point x="288" y="34" type="line"/>
      <point x="253" y="36" type="line" smooth="yes"/>
      <point x="222" y="38"/>
      <point x="217" y="46"/>
      <point x="217" y="100" type="curve" smooth="yes"/>
      <point x="217" y="317" type="line" smooth="yes"/>
      <point x="217" y="352"/>
      <point x="258" y="385"/>
      <point x="302" y="385" type="curve" smooth="yes"/>
      <point x="368" y="385"/>
      <point x="396" y="350"/>
      <point x="396" y="269" type="curve" smooth="yes"/>
      <point x="396" y="-3" type="line"/>
      <point x="453" y="-1"/>
      <point x="470" y="0"/>
      <point x="486" y="0" type="curve" smooth="yes"/>
      <point x="500" y="0"/>
      <point x="500" y="0"/>
      <point x="587" y="-3" type="curve"/>
      <point x="587" y="34" type="line"/>
      <point x="554" y="36" type="line" smooth="yes"/>
      <point x="523" y="38"/>
      <point x="518" y="46"/>
      <point x="518" y="100" type="curve" smooth="yes"/>
      <point x="518" y="286" type="line" smooth="yes"/>
      <point x="518" y="363"/>
      <point x="509" y="401"/>
      <point x="483" y="429" type="curve" smooth="yes"/>
      <point x="457" y="456"/>
      <point x="416" y="471"/>
      <point x="367" y="471" type="curve" smooth="yes"/>
      <point x="337" y="471"/>
      <point x="313" y="465"/>
      <point x="297" y="452" type="curve" smooth="yes"/>
      <point x="217" y="390" type="line"/>
      <point x="217" y="714" type="line"/>
    </contour>
  </outline>
</glyph>
<glyph name="k" format="1">
  <advance width="611"/>
  <unicode hex="006B"/>
  <outline>
    <contour>
      <point x="214" y="720" type="line"/>
      <point x="142" y="698" type="line" smooth="yes"/>
      <point x="113" y="689"/>
      <point x="79" y="683"/>
      <point x="21" y="677" type="curve"/>
      <point x="21" y="641" type="line"/>
      <point x="74" y="638" type="line" smooth="yes"/>
      <point x="96" y="637"/>
      <point x="100" y="627"/>
      <point x="100" y="568" type="curve" smooth="yes"/>
      <point x="100" y="100" type="line" smooth="yes"/>
      <point x="100" y="46"/>
      <point x="95" y="38"/>
      <point x="64" y="36" type="curve" smooth="yes"/>
      <point x="29" y="34" type="line"/>
      <point x="29" y="-3" type="line"/>
      <point x="29" y="-3"/>
      <point x="158" y="0"/>
      <point x="158" y="0" type="curve"/>
      <point x="178" y="0"/>
      <point x="226" y="-1"/>
      <point x="293" y="-3" type="curve"/>
      <point x="293" y="34" type="line"/>
      <point x="258" y="36" type="line" smooth="yes"/>
      <point x="227" y="38"/>
      <point x="222" y="46"/>
      <point x="222" y="100" type="curve" smooth="yes"/>
      <point x="222" y="226" type="line"/>
      <point x="232" y="226" type="line"/>
      <point x="338" y="106" type="line" smooth="yes"/>
      <point x="353" y="89"/>
      <point x="410" y="19"/>
      <point x="425" y="0" type="curve"/>
      <point x="597" y="0" type="line"/>
      <point x="597" y="34" type="line"/>
      <point x="576" y="36"/>
      <point x="560" y="46"/>
      <point x="542" y="66" type="curve" smooth="yes"/>
      <point x="346" y="286" type="line"/>
      <point x="354" y="294" type="line" smooth="yes"/>
      <point x="384" y="324"/>
      <point x="413" y="351"/>
      <point x="424" y="358" type="curve"/>
      <point x="486" y="403" type="line" smooth="yes"/>
      <point x="502" y="415"/>
      <point x="519" y="421"/>
      <point x="534" y="421" type="curve" smooth="yes"/>
      <point x="565" y="421" type="line"/>
      <point x="565" y="459" type="line"/>
      <point x="435" y="459" type="line"/>
      <point x="328" y="346" type="line" smooth="yes"/>
      <point x="305" y="322"/>
      <point x="278" y="297"/>
      <point x="222" y="249" type="curve"/>
      <point x="222" y="714" type="line"/>
    </contour>
  </outline>
</glyph>
<glyph name="m" format="1">
  <advance width="889"/>
  <unicode hex="006D"/>
  <outline>
    <contour>
      <point x="24" y="392" type="line"/>
      <point x="69" y="389" type="line" smooth="yes"/>
      <point x="92" y="387"/>
      <point x="95" y="378"/>
      <point x="95" y="319" type="curve" smooth="yes"/>
      <point x="95" y="100" type="line" smooth="yes"/>
      <point x="95" y="46"/>
      <point x="90" y="38"/>
      <point x="59" y="36" type="curve" smooth="yes"/>
      <point x="24" y="34" type="line"/>
      <point x="24" y="-3" type="line"/>
      <point x="24" y="-3"/>
      <point x="153" y="0"/>
      <point x="153" y="0" type="curve"/>
      <point x="176" y="0"/>
      <point x="219" y="-1"/>
      <point x="280" y="-3" type="curve"/>
      <point x="280" y="34" type="line"/>
      <point x="253" y="36" type="line" smooth="yes"/>
      <point x="221" y="38"/>
      <point x="217" y="46"/>
      <point x="217" y="100" type="curve" smooth="yes"/>
      <point x="217" y="317" type="line" smooth="yes"/>
      <point x="217" y="350"/>
      <point x="258" y="385"/>
      <point x="298" y="385" type="curve" smooth="yes"/>
      <point x="356" y="385"/>
      <point x="384" y="347"/>
      <point x="384" y="269" type="curve" smooth="yes"/>
      <point x="384" y="100" type="line" smooth="yes"/>
      <point x="384" y="46"/>
      <point x="380" y="38"/>
      <point x="348" y="36" type="curve" smooth="yes"/>
      <point x="317" y="34" type="line"/>
      <point x="317" y="-3" type="line"/>
      <point x="421" y="0"/>
      <point x="421" y="0"/>
      <point x="446" y="0" type="curve" smooth="yes"/>
      <point x="470" y="0"/>
      <point x="470" y="0"/>
      <point x="577" y="-3" type="curve"/>
      <point x="577" y="34" type="line"/>
      <point x="542" y="36" type="line" smooth="yes"/>
      <point x="511" y="38"/>
      <point x="506" y="46"/>
      <point x="506" y="100" type="curve" smooth="yes"/>
      <point x="506" y="317" type="line" smooth="yes"/>
      <point x="506" y="350"/>
      <point x="547" y="385"/>
      <point x="587" y="385" type="curve" smooth="yes"/>
      <point x="645" y="385"/>
      <point x="673" y="347"/>
      <point x="673" y="269" type="curve" smooth="yes"/>
      <point x="673" y="-3" type="line"/>
      <point x="766" y="0" type="line"/>
      <point x="816" y="-1"/>
      <point x="823" y="-1"/>
      <point x="864" y="-3" type="curve"/>
      <point x="864" y="34" type="line"/>
      <point x="831" y="36" type="line" smooth="yes"/>
      <point x="800" y="38"/>
      <point x="795" y="46"/>
      <point x="795" y="100" type="curve" smooth="yes"/>
      <point x="795" y="286" type="line" smooth="yes"/>
      <point x="795" y="424"/>
      <point x="759" y="471"/>
      <point x="652" y="471" type="curve" smooth="yes"/>
      <point x="619" y="471"/>
      <point x="597" y="465"/>
      <point x="580" y="452" type="curve" smooth="yes"/>
      <point x="500" y="390" type="line"/>
      <point x="477" y="447"/>
      <point x="437" y="471"/>
      <point x="368" y="471" type="curve" smooth="yes"/>
      <point x="336" y="471"/>
      <point x="314" y="465"/>
      <point x="297" y="452" type="curve" smooth="yes"/>
      <point x="217" y="390" type="line"/>
      <point x="217" y="465" type="line"/>
      <point x="211" y="471" type="line"/>
      <point x="107" y="437"/>
      <point x="79" y="431"/>
      <point x="24" y="428" type="curve"/>
    </contour>
  </outline>
</glyph>
<glyph name="n" format="1">
  <advance width="611"/>
  <unicode hex="006E"/>
  <outline>
    <contour>
      <point x="24" y="392" type="line"/>
      <point x="69" y="389" type="line" smooth="yes"/>
      <point x="92" y="387"/>
      <point x="95" y="378"/>
      <point x="95" y="319" type="curve" smooth="yes"/>
      <point x="95" y="100" type="line" smooth="yes"/>
      <point x="95" y="46"/>
      <point x="90" y="38"/>
      <point x="59" y="36" type="curve" smooth="yes"/>
      <point x="24" y="34" type="line"/>
      <point x="24" y="-3" type="line"/>
      <point x="24" y="-3"/>
      <point x="153" y="0"/>
      <point x="153" y="0" type="curve"/>
      <point x="173" y="0"/>
      <point x="221" y="-1"/>
      <point x="288" y="-3" type="curve"/>
      <point x="288" y="34" type="line"/>
      <point x="253" y="36" type="line" smooth="yes"/>
      <point x="222" y="38"/>
      <point x="217" y="46"/>
      <point x="217" y="100" type="curve" smooth="yes"/>
      <point x="217" y="317" type="line" smooth="yes"/>
      <point x="217" y="352"/>
      <point x="258" y="385"/>
      <point x="302" y="385" type="curve" smooth="yes"/>
      <point x="368" y="385"/>
      <point x="396" y="350"/>
      <point x="396" y="270" type="curve" smooth="yes"/>
      <point x="396" y="-3" type="line"/>
      <point x="453" y="-1"/>
      <point x="470" y="0"/>
      <point x="486" y="0" type="curve" smooth="yes"/>
      <point x="500" y="0"/>
      <point x="500" y="0"/>
      <point x="587" y="-3" type="curve"/>
      <point x="587" y="34" type="line"/>
      <point x="554" y="36" type="line" smooth="yes"/>
      <point x="523" y="38"/>
      <point x="518" y="46"/>
      <point x="518" y="100" type="curve" smooth="yes"/>
      <point x="518" y="286" type="line" smooth="yes"/>
      <point x="518" y="363"/>
      <point x="509" y="401"/>
      <point x="483" y="429" type="curve" smooth="yes"/>
      <point x="457" y="456"/>
      <point x="416" y="471"/>
      <point x="367" y="471" type="curve" smooth="yes"/>
      <point x="337" y="471"/>
      <point x="313" y="465"/>
      <point x="297" y="452" type="curve" smooth="yes"/>
      <point x="217" y="390" type="line"/>
      <point x="217" y="465" type="line"/>
      <point x="211" y="471" type="line"/>
      <point x="107" y="437"/>
      <point x="79" y="431"/>
      <point x="24" y="428" type="curve"/>
    </contour>
  </outline>
</glyph>
<glyph name="q" format="1">
  <advance width="611"/>
  <unicode hex="0071"/>
  <outline>
    <contour>
      <point x="396" y="75" type="line"/>
      <point x="396" y="-155" type="line" smooth="yes"/>
      <point x="396" y="-209"/>
      <point x="391" y="-217"/>
      <point x="360" y="-219" type="curve" smooth="yes"/>
      <point x="325" y="-221" type="line"/>
      <point x="325" y="-258" type="line"/>
      <point x="325" y="-258"/>
      <point x="454" y="-255"/>
      <point x="454" y="-255" type="curve"/>
      <point x="474" y="-255"/>
      <point x="522" y="-256"/>
      <point x="589" y="-258" type="curve"/>
      <point x="589" y="-221" type="line"/>
      <point x="554" y="-219" type="line" smooth="yes"/>
      <point x="523" y="-217"/>
      <point x="518" y="-209"/>
      <point x="518" y="-155" type="curve" smooth="yes"/>
      <point x="518" y="324" type="line" smooth="yes"/>
      <point x="518" y="362"/>
      <point x="522" y="395"/>
      <point x="534" y="454" type="curve"/>
      <point x="513" y="468" type="line"/>
      <point x="461" y="426" type="line"/>
      <point x="439" y="437" type="line" smooth="yes"/>
      <point x="396" y="458"/>
      <point x="353" y="471"/>
      <point x="323" y="471" type="curve" smooth="yes"/>
      <point x="288" y="471"/>
      <point x="249" y="456"/>
      <point x="169" y="411" type="curve" smooth="yes"/>
      <point x="82" y="362"/>
      <point x="52" y="311"/>
      <point x="52" y="212" type="curve" smooth="yes"/>
      <point x="52" y="71"/>
      <point x="124" y="-17"/>
      <point x="240" y="-17" type="curve" smooth="yes"/>
      <point x="267" y="-17"/>
      <point x="288" y="-12"/>
      <point x="300" y="-2" type="curve" smooth="yes"/>
    </contour>
    <contour>
      <point x="396" y="160" type="line" smooth="yes"/>
      <point x="396" y="115"/>
      <point x="349" y="78"/>
      <point x="294" y="78" type="curve" smooth="yes"/>
      <point x="223" y="78"/>
      <point x="178" y="147"/>
      <point x="178" y="255" type="curve" smooth="yes"/>
      <point x="178" y="356"/>
      <point x="213" y="407"/>
      <point x="284" y="407" type="curve" smooth="yes"/>
      <point x="327" y="407"/>
      <point x="363" y="387"/>
      <point x="396" y="344" type="curve"/>
    </contour>
  </outline>
</glyph>
<glyph name="r" format="1">
  <advance width="389"/>
  <unicode hex="0072"/>
  <outline>
    <contour>
      <point x="213" y="471" type="line"/>
      <point x="143" y="449" type="line" smooth="yes"/>
      <point x="111" y="439"/>
      <point x="93" y="436"/>
      <point x="30" y="428" type="curve"/>
      <point x="30" y="392" type="line"/>
      <point x="75" y="389" type="line" smooth="yes"/>
      <point x="98" y="387"/>
      <point x="101" y="378"/>
      <point x="101" y="319" type="curve" smooth="yes"/>
      <point x="101" y="100" type="line" smooth="yes"/>
      <point x="101" y="46"/>
      <point x="96" y="38"/>
      <point x="65" y="36" type="curve" smooth="yes"/>
      <point x="30" y="34" type="line"/>
      <point x="30" y="-3" type="line"/>
      <point x="30" y="-3"/>
      <point x="159" y="0"/>
      <point x="159" y="0" type="curve"/>
      <point x="172" y="0"/>
      <point x="175" y="0"/>
      <point x="310" y="-3" type="curve"/>
      <point x="310" y="34" type="line"/>
      <point x="271" y="36" type="line" smooth="yes"/>
      <point x="228" y="38"/>
      <point x="223" y="44"/>
      <point x="223" y="100" type="curve" smooth="yes"/>
      <point x="223" y="298" type="line" smooth="yes"/>
      <point x="223" y="329"/>
      <point x="264" y="362"/>
      <point x="303" y="362" type="curve" smooth="yes"/>
      <point x="328" y="362"/>
      <point x="346" y="350"/>
      <point x="360" y="326" type="curve"/>
      <point x="384" y="336" type="line"/>
      <point x="389" y="465" type="line"/>
      <point x="379" y="469"/>
      <point x="366" y="471"/>
      <point x="352" y="471" type="curve" smooth="yes"/>
      <point x="324" y="471"/>
      <point x="305" y="459"/>
      <point x="267" y="418" type="curve" smooth="yes"/>
      <point x="223" y="370" type="line"/>
      <point x="223" y="465" type="line"/>
    </contour>
  </outline>
</glyph>
<glyph name="s" format="1">
  <advance width="444"/>
  <unicode hex="0073"/>
  <outline>
    <contour>
      <point x="362" y="326" type="line"/>
      <point x="370" y="448" type="line"/>
      <point x="331" y="465"/>
      <point x="300" y="471"/>
      <point x="247" y="471" type="curve" smooth="yes"/>
      <point x="112" y="471"/>
      <point x="39" y="417"/>
      <point x="39" y="317" type="curve" smooth="yes"/>
      <point x="39" y="251"/>
      <point x="75" y="209"/>
      <point x="145" y="192" type="curve" smooth="yes"/>
      <point x="231" y="171" type="line" smooth="yes"/>
      <point x="277" y="160"/>
      <point x="294" y="143"/>
      <point x="294" y="108" type="curve" smooth="yes"/>
      <point x="294" y="61"/>
      <point x="258" y="31"/>
      <point x="202" y="31" type="curve" smooth="yes"/>
      <point x="155" y="31"/>
      <point x="122" y="46"/>
      <point x="90" y="83" type="curve"/>
      <point x="85" y="152" type="line"/>
      <point x="46" y="152" type="line"/>
      <point x="39" y="11" type="line"/>
      <point x="96" y="-9"/>
      <point x="141" y="-17"/>
      <point x="194" y="-17" type="curve" smooth="yes"/>
      <point x="320" y="-17"/>
      <point x="405" y="52"/>
      <point x="405" y="155" type="curve" smooth="yes"/>
      <point x="405" y="227"/>
      <point x="368" y="264"/>
      <point x="278" y="284" type="curve" smooth="yes"/>
      <point x="196" y="302" type="line" smooth="yes"/>
      <point x="157" y="311"/>
      <point x="141" y="327"/>
      <point x="141" y="358" type="curve" smooth="yes"/>
      <point x="141" y="398"/>
      <point x="175" y="423"/>
      <point x="229" y="423" type="curve" smooth="yes"/>
      <point x="269" y="423"/>
      <point x="313" y="404"/>
      <point x="316" y="384" type="curve" smooth="yes"/>
      <point x="326" y="326" type="line"/>
    </contour>
  </outline>
</glyph>
<glyph name="t" format="1">
  <advance width="333"/>
  <unicode hex="0074"/>
  <outline>
    <contour>
      <point x="324" y="60" type="line"/>
      <point x="316" y="79" type="line"/>
      <point x="296" y="69"/>
      <point x="286" y="66"/>
      <point x="270" y="66" type="curve" smooth="yes"/>
      <point x="223" y="66"/>
      <point x="208" y="82"/>
      <point x="208" y="131" type="curve" smooth="yes"/>
      <point x="208" y="369" type="line"/>
      <point x="314" y="369" type="line"/>
      <point x="322" y="434" type="line"/>
      <point x="208" y="428" type="line"/>
      <point x="208" y="486" type="line" smooth="yes"/>
      <point x="208" y="539"/>
      <point x="211" y="572"/>
      <point x="220" y="622" type="curve"/>
      <point x="206" y="632" type="line"/>
      <point x="166" y="613"/>
      <point x="135" y="601"/>
      <point x="84" y="582" type="curve"/>
      <point x="87" y="530"/>
      <point x="88" y="511"/>
      <point x="88" y="490" type="curve" smooth="yes"/>
      <point x="88" y="430" type="line"/>
      <point x="22" y="387" type="line"/>
      <point x="22" y="365" type="line"/>
      <point x="86" y="369" type="line"/>
      <point x="86" y="110" type="line" smooth="yes"/>
      <point x="86" y="21"/>
      <point x="123" y="-17"/>
      <point x="210" y="-17" type="curve" smooth="yes"/>
      <point x="241" y="-17"/>
      <point x="266" y="-10"/>
      <point x="275" y="1" type="curve" smooth="yes"/>
    </contour>
  </outline>
</glyph>
<glyph name="w" format="1">
  <advance width="833"/>
  <unicode hex="0077"/>
  <outline>
    <contour>
      <point x="194" y="-3" type="line"/>
      <point x="273" y="-3" type="line"/>
      <point x="323" y="130"/>
      <point x="334" y="154"/>
      <point x="410" y="304" type="curve"/>
      <point x="542" y="-3" type="line"/>
      <point x="623" y="-3" type="line"/>
      <point x="632" y="26"/>
      <point x="636" y="40"/>
      <point x="637" y="44" type="curve" smooth="yes"/>
      <point x="647" y="77"/>
      <point x="654" y="100"/>
      <point x="658" y="112" type="curve" smooth="yes"/>
      <point x="750" y="372" type="line" smooth="yes"/>
      <point x="762" y="405"/>
      <point x="772" y="418"/>
      <point x="786" y="419" type="curve" smooth="yes"/>
      <point x="820" y="421" type="line"/>
      <point x="820" y="459" type="line"/>
      <point x="736" y="456"/>
      <point x="736" y="456"/>
      <point x="719" y="456" type="curve" smooth="yes"/>
      <point x="702" y="456"/>
      <point x="702" y="456"/>
      <point x="618" y="459" type="curve"/>
      <point x="618" y="421" type="line"/>
      <point x="660" y="419" type="line" smooth="yes"/>
      <point x="677" y="418"/>
      <point x="689" y="410"/>
      <point x="689" y="398" type="curve" smooth="yes"/>
      <point x="689" y="394"/>
      <point x="687" y="383"/>
      <point x="686" y="379" type="curve"/>
      <point x="650" y="266" type="line" smooth="yes"/>
      <point x="638" y="227"/>
      <point x="628" y="200"/>
      <point x="611" y="154" type="curve"/>
      <point x="473" y="471" type="line"/>
      <point x="423" y="471" type="line"/>
      <point x="336" y="276" type="line"/>
      <point x="307" y="213" type="line" smooth="yes"/>
      <point x="303" y="205"/>
      <point x="300" y="197"/>
      <point x="296" y="188" type="curve" smooth="yes"/>
      <point x="290" y="176"/>
      <point x="284" y="163"/>
      <point x="279" y="151" type="curve"/>
      <point x="220" y="378" type="line" smooth="yes"/>
      <point x="219" y="382"/>
      <point x="218" y="392"/>
      <point x="218" y="397" type="curve" smooth="yes"/>
      <point x="218" y="410"/>
      <point x="226" y="419"/>
      <point x="237" y="419" type="curve" smooth="yes"/>
      <point x="284" y="421" type="line"/>
      <point x="284" y="459" type="line"/>
      <point x="284" y="459"/>
      <point x="149" y="456"/>
      <point x="149" y="456" type="curve"/>
      <point x="135" y="456"/>
      <point x="119" y="456"/>
      <point x="13" y="459" type="curve"/>
      <point x="13" y="421" type="line"/>
      <point x="46" y="419" type="line" smooth="yes"/>
      <point x="69" y="417"/>
      <point x="79" y="408"/>
      <point x="87" y="381" type="curve" smooth="yes"/>
    </contour>
  </outline>
</glyph>
<glyph name="x" format="1">
  <advance width="500"/>
  <unicode hex="0078"/>
  <outline>
    <contour>
      <point x="200" y="210" type="line"/>
      <point x="90" y="70" type="line" smooth="yes"/>
      <point x="70" y="46"/>
      <point x="52" y="36"/>
      <point x="21" y="34" type="curve"/>
      <point x="21" y="0" type="line"/>
      <point x="112" y="0" type="line"/>
      <point x="141" y="45"/>
      <point x="152" y="61"/>
      <point x="164" y="78" type="curve" smooth="yes"/>
      <point x="228" y="166" type="line"/>
      <point x="328" y="-3" type="line"/>
      <point x="406" y="0" type="line"/>
      <point x="446" y="-1"/>
      <point x="454" y="-1"/>
      <point x="483" y="-3" type="curve"/>
      <point x="483" y="34" type="line"/>
      <point x="452" y="37"/>
      <point x="432" y="56"/>
      <point x="397" y="113" type="curve" smooth="yes"/>
      <point x="308" y="265" type="line"/>
      <point x="405" y="379" type="line" smooth="yes"/>
      <point x="436" y="415"/>
      <point x="446" y="421"/>
      <point x="483" y="422" type="curve"/>
      <point x="483" y="459" type="line"/>
      <point x="388" y="459" type="line"/>
      <point x="280" y="309" type="line"/>
      <point x="228" y="394" type="line" smooth="yes"/>
      <point x="204" y="432"/>
      <point x="186" y="455"/>
      <point x="166" y="471" type="curve"/>
      <point x="131" y="462"/>
      <point x="57" y="446"/>
      <point x="20" y="439" type="curve"/>
      <point x="28" y="403" type="line"/>
      <point x="33" y="404"/>
      <point x="40" y="404"/>
      <point x="43" y="404" type="curve" smooth="yes"/>
      <point x="76" y="404"/>
      <point x="94" y="390"/>
      <point x="120" y="346" type="curve" smooth="yes"/>
    </contour>
  </outline>
</glyph>
<glyph name="braceleft" format="1">
  <advance width="310"/>
  <unicode hex="007B"/>
  <outline>
    <contour>
      <point x="5" y="301" type="line"/>
      <point x="81" y="281"/>
      <point x="96" y="262"/>
      <point x="96" y="190" type="curve" smooth="yes"/>
      <point x="96" y="16" type="line" smooth="yes"/>
      <point x="96" y="-39"/>
      <point x="112" y="-74"/>
      <point x="144" y="-94" type="curve" smooth="yes"/>
      <point x="172" y="-111"/>
      <point x="206" y="-117"/>
      <point x="288" y="-117" type="curve"/>
      <point x="288" y="-115" type="line"/>
      <point x="212" y="-94"/>
      <point x="193" y="-70"/>
      <point x="193" y="2" type="curve" smooth="yes"/>
      <point x="193" y="169" type="line" smooth="yes"/>
      <point x="193" y="256"/>
      <point x="172" y="284"/>
      <point x="91" y="302" type="curve"/>
      <point x="172" y="321"/>
      <point x="193" y="348"/>
      <point x="193" y="429" type="curve" smooth="yes"/>
      <point x="193" y="606" type="line" smooth="yes"/>
      <point x="193" y="678"/>
      <point x="212" y="702"/>
      <point x="288" y="723" type="curve"/>
      <point x="288" y="725" type="line"/>
      <point x="206" y="725"/>
      <point x="172" y="719"/>
      <point x="144" y="702" type="curve" smooth="yes"/>
      <point x="112" y="682"/>
      <point x="96" y="647"/>
      <point x="96" y="592" type="curve" smooth="yes"/>
      <point x="96" y="414" type="line" smooth="yes"/>
      <point x="96" y="342"/>
      <point x="81" y="323"/>
      <point x="5" y="303" type="curve"/>
    </contour>
  </outline>
</glyph>
<glyph name="bar" format="1">
  <advance width="606"/>
  <unicode hex="007C"/>
  <outline>
    <contour>
      <point x="260" y="0" type="line"/>
      <point x="346" y="0" type="line"/>
      <point x="346" y="720" type="line"/>
      <point x="260" y="720" type="line"/>
    </contour>
  </outline>
</glyph>
<glyph name="braceright" format="1">
  <advance width="310"/>
  <unicode hex="007D"/>
  <outline>
    <contour>
      <point x="305" y="303" type="line"/>
      <point x="229" y="323"/>
      <point x="214" y="342"/>
      <point x="214" y="414" type="curve" smooth="yes"/>
      <point x="214" y="592" type="line" smooth="yes"/>
      <point x="214" y="640"/>
      <point x="202" y="673"/>
      <point x="177" y="694" type="curve" smooth="yes"/>
      <point x="150" y="717"/>
      <point x="111" y="725"/>
      <point x="22" y="725" type="curve"/>
      <point x="22" y="723" type="line"/>
      <point x="98" y="702"/>
      <point x="117" y="678"/>
      <point x="117" y="606" type="curve" smooth="yes"/>
      <point x="117" y="429" type="line" smooth="yes"/>
      <point x="117" y="348"/>
      <point x="138" y="321"/>
      <point x="219" y="302" type="curve"/>
      <point x="138" y="284"/>
      <point x="117" y="257"/>
      <point x="117" y="169" type="curve" smooth="yes"/>
      <point x="117" y="2" type="line" smooth="yes"/>
      <point x="117" y="-70"/>
      <point x="98" y="-94"/>
      <point x="22" y="-115" type="curve"/>
      <point x="22" y="-117" type="line"/>
      <point x="104" y="-117"/>
      <point x="138" y="-111"/>
      <point x="166" y="-94" type="curve" smooth="yes"/>
      <point x="198" y="-74"/>
      <point x="214" y="-39"/>
      <point x="214" y="16" type="curve" smooth="yes"/>
      <point x="214" y="190" type="line" smooth="yes"/>
      <point x="214" y="262"/>
      <point x="229" y="281"/>
      <point x="305" y="301" type="curve"/>
    </contour>
  </outline>
</glyph>
<glyph name="exclamdown" format="1">
  <advance width="278"/>
  <unicode hex="00A1"/>
  <outline>
    <contour>
      <point x="115" y="-227" type="line"/>
      <point x="215" y="-183" type="line"/>
      <point x="214" y="-164" type="line"/>
      <point x="214" y="-136"/>
      <point x="212" y="-105"/>
      <point x="211" y="-104" type="curve"/>
      <point x="164" y="254" type="line"/>
      <point x="159" y="262" type="line"/>
      <point x="121" y="241" type="line"/>
      <point x="71" y="-131" type="line" smooth="yes"/>
      <point x="66" y="-171"/>
      <point x="64" y="-193"/>
      <point x="64" y="-227" type="curve"/>
    </contour>
    <contour>
      <point x="138" y="471" type="curve" smooth="yes"/>
      <point x="96" y="471"/>
      <point x="59" y="434"/>
      <point x="59" y="392" type="curve" smooth="yes"/>
      <point x="59" y="350"/>
      <point x="95" y="315"/>
      <point x="136" y="315" type="curve" smooth="yes"/>
      <point x="178" y="315"/>
      <point x="215" y="351"/>
      <point x="215" y="392" type="curve" smooth="yes"/>
      <point x="215" y="433"/>
      <point x="178" y="471"/>
    </contour>
  </outline>
</glyph>
<glyph name="cent" format="1">
  <advance width="500"/>
  <unicode hex="00A2"/>
  <outline>
    <contour>
      <point x="403" y="554" type="line"/>
      <point x="362" y="554" type="line"/>
      <point x="336" y="476" type="line"/>
      <point x="303" y="475"/>
      <point x="260" y="460"/>
      <point x="218" y="434" type="curve" smooth="yes"/>
      <point x="166" y="401" type="line" smooth="yes"/>
      <point x="128" y="377"/>
      <point x="113" y="363"/>
      <point x="102" y="343" type="curve" smooth="yes"/>
      <point x="82" y="307"/>
      <point x="73" y="265"/>
      <point x="73" y="214" type="curve" smooth="yes"/>
      <point x="73" y="106"/>
      <point x="109" y="42"/>
      <point x="192" y="0" type="curve"/>
      <point x="156" y="-106" type="line"/>
      <point x="198" y="-106" type="line"/>
      <point x="230" y="-11" type="line"/>
      <point x="240" y="-12" type="line" smooth="yes"/>
      <point x="272" y="-16"/>
      <point x="285" y="-17"/>
      <point x="299" y="-17" type="curve" smooth="yes"/>
      <point x="342" y="-17"/>
      <point x="379" y="-8"/>
      <point x="425" y="13" type="curve"/>
      <point x="429" y="17" type="line"/>
      <point x="450" y="64" type="line"/>
      <point x="441" y="75" type="line"/>
      <point x="411" y="60"/>
      <point x="391" y="55"/>
      <point x="358" y="55" type="curve" smooth="yes"/>
      <point x="317" y="55"/>
      <point x="290" y="64"/>
      <point x="262" y="87" type="curve"/>
      <point x="353" y="389" type="line"/>
      <point x="368" y="385"/>
      <point x="383" y="369"/>
      <point x="384" y="356" type="curve" smooth="yes"/>
      <point x="390" y="296" type="line"/>
      <point x="428" y="296" type="line"/>
      <point x="431" y="351"/>
      <point x="437" y="404"/>
      <point x="446" y="444" type="curve"/>
      <point x="441" y="453" type="line"/>
      <point x="426" y="460"/>
      <point x="411" y="465"/>
      <point x="378" y="473" type="curve"/>
    </contour>
    <contour>
      <point x="230" y="124" type="line"/>
      <point x="205" y="174"/>
      <point x="196" y="209"/>
      <point x="196" y="263" type="curve" smooth="yes"/>
      <point x="196" y="355"/>
      <point x="228" y="401"/>
      <point x="292" y="401" type="curve" smooth="yes"/>
      <point x="297" y="401"/>
      <point x="305" y="401"/>
      <point x="313" y="400" type="curve"/>
    </contour>
  </outline>
</glyph>
<glyph name="sterling" format="1">
  <advance width="500"/>
  <unicode hex="00A3"/>
  <outline>
    <contour>
      <point x="16" y="363" type="line"/>
      <point x="16" y="320" type="line"/>
      <point x="106" y="320" type="line"/>
      <point x="103" y="149"/>
      <point x="98" y="124"/>
      <point x="62" y="92" type="curve" smooth="yes"/>
      <point x="-2" y="40" type="line"/>
      <point x="18" y="-19" type="line"/>
      <point x="32" y="-15"/>
      <point x="45" y="-8"/>
      <point x="62" y="7" type="curve" smooth="yes"/>
      <point x="85" y="26"/>
      <point x="98" y="32"/>
      <point x="113" y="32" type="curve" smooth="yes"/>
      <point x="149" y="32"/>
      <point x="195" y="24"/>
      <point x="246" y="10" type="curve" smooth="yes"/>
      <point x="308" y="-7"/>
      <point x="362" y="-16"/>
      <point x="408" y="-16" type="curve" smooth="yes"/>
      <point x="437" y="-16"/>
      <point x="462" y="-11"/>
      <point x="491" y="-1" type="curve"/>
      <point x="501" y="178" type="line"/>
      <point x="467" y="178" type="line"/>
      <point x="456" y="122" type="line" smooth="yes"/>
      <point x="452" y="104"/>
      <point x="433" y="92"/>
      <point x="406" y="92" type="curve" smooth="yes"/>
      <point x="384" y="92"/>
      <point x="371" y="93"/>
      <point x="318" y="101" type="curve" smooth="yes"/>
      <point x="243" y="112"/>
      <point x="240" y="112"/>
      <point x="221" y="112" type="curve" smooth="yes"/>
      <point x="191" y="112"/>
      <point x="167" y="108"/>
      <point x="117" y="93" type="curve"/>
      <point x="179" y="157"/>
      <point x="212" y="223"/>
      <point x="231" y="320" type="curve"/>
      <point x="404" y="320" type="line"/>
      <point x="404" y="363" type="line"/>
      <point x="236" y="363" type="line"/>
      <point x="244" y="463" type="line" smooth="yes"/>
      <point x="253" y="570"/>
      <point x="283" y="610"/>
      <point x="355" y="610" type="curve" smooth="yes"/>
      <point x="401" y="610"/>
      <point x="433" y="586"/>
      <point x="436" y="548" type="curve" smooth="yes"/>
      <point x="439" y="513" type="line"/>
      <point x="470" y="513" type="line"/>
      <point x="480" y="649" type="line"/>
      <point x="459" y="666"/>
      <point x="431" y="676"/>
      <point x="404" y="676" type="curve" smooth="yes"/>
      <point x="331" y="676"/>
      <point x="221" y="619"/>
      <point x="161" y="550" type="curve" smooth="yes"/>
      <point x="124" y="508"/>
      <point x="106" y="461"/>
      <point x="106" y="406" type="curve" smooth="yes"/>
      <point x="106" y="363" type="line"/>
    </contour>
  </outline>
</glyph>
<glyph name="currency" format="1">
  <advance width="500"/>
  <unicode hex="00A4"/>
  <outline>
    <contour>
      <point x="32" y="141" type="line"/>
      <point x="77" y="96" type="line"/>
      <point x="125" y="144" type="line"/>
      <point x="162" y="114"/>
      <point x="199" y="102"/>
      <point x="250" y="102" type="curve" smooth="yes"/>
      <point x="301" y="102"/>
      <point x="338" y="115"/>
      <point x="375" y="145" type="curve"/>
      <point x="422" y="96" type="line"/>
      <point x="467" y="141" type="line"/>
      <point x="421" y="189" type="line"/>
      <point x="449" y="227"/>
      <point x="461" y="265"/>
      <point x="461" y="314" type="curve" smooth="yes"/>
      <point x="461" y="363"/>
      <point x="449" y="401"/>
      <point x="422" y="436" type="curve"/>
      <point x="468" y="484" type="line"/>
      <point x="419" y="533" type="line"/>
      <point x="371" y="484" type="line"/>
      <point x="334" y="512"/>
      <point x="297" y="524"/>
      <point x="251" y="524" type="curve" smooth="yes"/>
      <point x="204" y="524"/>
      <point x="164" y="511"/>
      <point x="127" y="483" type="curve"/>
      <point x="79" y="531" type="line"/>
      <point x="32" y="484" type="line"/>
      <point x="81" y="435" type="line"/>
      <point x="51" y="401"/>
      <point x="39" y="365"/>
      <point x="39" y="313" type="curve" smooth="yes"/>
      <point x="39" y="263"/>
      <point x="51" y="228"/>
      <point x="81" y="190" type="curve"/>
    </contour>
    <contour>
      <point x="251" y="447" type="curve" smooth="yes"/>
      <point x="324" y="447"/>
      <point x="384" y="386"/>
      <point x="384" y="314" type="curve" smooth="yes"/>
      <point x="384" y="239"/>
      <point x="324" y="178"/>
      <point x="249" y="178" type="curve" smooth="yes"/>
      <point x="177" y="178"/>
      <point x="116" y="240"/>
      <point x="116" y="312" type="curve" smooth="yes"/>
      <point x="116" y="386"/>
      <point x="177" y="447"/>
    </contour>
  </outline>
</glyph>
<glyph name="yen" format="1">
  <advance width="500"/>
  <unicode hex="00A5"/>
  <outline>
    <contour>
      <point x="215" y="206" type="line"/>
      <point x="215" y="135" type="line" smooth="yes"/>
      <point x="215" y="46"/>
      <point x="214" y="44"/>
      <point x="180" y="40" type="curve" smooth="yes"/>
      <point x="154" y="37" type="line"/>
      <point x="154" y="-3" type="line"/>
      <point x="221" y="-1"/>
      <point x="245" y="0"/>
      <point x="269" y="0" type="curve" smooth="yes"/>
      <point x="295" y="0"/>
      <point x="302" y="0"/>
      <point x="378" y="-3" type="curve"/>
      <point x="378" y="37" type="line"/>
      <point x="352" y="40" type="line" smooth="yes"/>
      <point x="317" y="44"/>
      <point x="317" y="45"/>
      <point x="317" y="135" type="curve" smooth="yes"/>
      <point x="317" y="206" type="line"/>
      <point x="466" y="206" type="line"/>
      <point x="466" y="246" type="line"/>
      <point x="317" y="246" type="line"/>
      <point x="317" y="284" type="line" smooth="yes"/>
      <point x="317" y="303"/>
      <point x="321" y="318"/>
      <point x="332" y="342" type="curve"/>
      <point x="466" y="342" type="line"/>
      <point x="466" y="382" type="line"/>
      <point x="348" y="382" type="line"/>
      <point x="483" y="659" type="line"/>
      <point x="483" y="678" type="line"/>
      <point x="427" y="678" type="line"/>
      <point x="294" y="356" type="line"/>
      <point x="214" y="559" type="line" smooth="yes"/>
      <point x="183" y="637"/>
      <point x="164" y="669"/>
      <point x="132" y="695" type="curve"/>
      <point x="17" y="659" type="line"/>
      <point x="17" y="622" type="line"/>
      <point x="52" y="623"/>
      <point x="70" y="603"/>
      <point x="111" y="522" type="curve" smooth="yes"/>
      <point x="174" y="382" type="line"/>
      <point x="66" y="382" type="line"/>
      <point x="66" y="342" type="line"/>
      <point x="191" y="342" type="line"/>
      <point x="192" y="339"/>
      <point x="193" y="338"/>
      <point x="196" y="334" type="curve"/>
      <point x="209" y="312"/>
      <point x="215" y="297"/>
      <point x="215" y="286" type="curve" smooth="yes"/>
      <point x="215" y="246" type="line"/>
      <point x="66" y="246" type="line"/>
      <point x="66" y="206" type="line"/>
    </contour>
  </outline>
</glyph>
<glyph name="section" format="1">
  <advance width="500"/>
  <unicode hex="00A7"/>
  <outline>
    <contour>
      <point x="407" y="515" type="line"/>
      <point x="412" y="589"/>
      <point x="416" y="623"/>
      <point x="424" y="662" type="curve"/>
      <point x="376" y="685"/>
      <point x="337" y="695"/>
      <point x="294" y="695" type="curve" smooth="yes"/>
      <point x="237" y="695"/>
      <point x="175" y="672"/>
      <point x="136" y="636" type="curve" smooth="yes"/>
      <point x="93" y="596"/>
      <point x="61" y="525"/>
      <point x="61" y="470" type="curve" smooth="yes"/>
      <point x="61" y="431"/>
      <point x="76" y="400"/>
      <point x="108" y="372" type="curve"/>
      <point x="89" y="354" type="line" smooth="yes"/>
      <point x="45" y="312"/>
      <point x="30" y="281"/>
      <point x="30" y="233" type="curve" smooth="yes"/>
      <point x="30" y="156"/>
      <point x="70" y="115"/>
      <point x="179" y="79" type="curve" smooth="yes"/>
      <point x="240" y="59" type="line" smooth="yes"/>
      <point x="301" y="39"/>
      <point x="328" y="26"/>
      <point x="347" y="10" type="curve" smooth="yes"/>
      <point x="365" y="-6"/>
      <point x="375" y="-28"/>
      <point x="375" y="-48" type="curve" smooth="yes"/>
      <point x="375" y="-105"/>
      <point x="311" y="-156"/>
      <point x="241" y="-156" type="curve" smooth="yes"/>
      <point x="186" y="-156"/>
      <point x="144" y="-138"/>
      <point x="110" y="-101" type="curve"/>
      <point x="104" y="-79"/>
      <point x="101" y="-59"/>
      <point x="101" y="-37" type="curve" smooth="yes"/>
      <point x="101" y="-33"/>
      <point x="101" y="-26"/>
      <point x="102" y="-17" type="curve"/>
      <point x="63" y="-17" type="line"/>
      <point x="58" y="-79"/>
      <point x="57" y="-92"/>
      <point x="49" y="-172" type="curve"/>
      <point x="103" y="-206"/>
      <point x="142" y="-217"/>
      <point x="208" y="-217" type="curve" smooth="yes"/>
      <point x="339" y="-217"/>
      <point x="455" y="-110"/>
      <point x="455" y="11" type="curve" smooth="yes"/>
      <point x="455" y="56"/>
      <point x="440" y="85"/>
      <point x="400" y="115" type="curve"/>
      <point x="455" y="171"/>
      <point x="471" y="203"/>
      <point x="471" y="261" type="curve" smooth="yes"/>
      <point x="471" y="342"/>
      <point x="430" y="385"/>
      <point x="328" y="411" type="curve" smooth="yes"/>
      <point x="324" y="412" type="line"/>
      <point x="323" y="412"/>
      <point x="318" y="414"/>
      <point x="310" y="416" type="curve" smooth="yes"/>
      <point x="257" y="432" type="line" smooth="yes"/>
      <point x="160" y="461"/>
      <point x="131" y="484"/>
      <point x="131" y="532" type="curve" smooth="yes"/>
      <point x="131" y="586"/>
      <point x="186" y="626"/>
      <point x="261" y="626" type="curve" smooth="yes"/>
      <point x="305" y="626"/>
      <point x="344" y="614"/>
      <point x="362" y="595" type="curve"/>
      <point x="367" y="574"/>
      <point x="369" y="550"/>
      <point x="369" y="515" type="curve"/>
    </contour>
    <contour>
      <point x="235" y="180" type="line" smooth="yes"/>
      <point x="144" y="214"/>
      <point x="104" y="244"/>
      <point x="104" y="280" type="curve" smooth="yes"/>
      <point x="104" y="303"/>
      <point x="115" y="326"/>
      <point x="139" y="355" type="curve"/>
      <point x="282" y="307" type="line" smooth="yes"/>
      <point x="364" y="279"/>
      <point x="397" y="249"/>
      <point x="397" y="200" type="curve" smooth="yes"/>
      <point x="397" y="178"/>
      <point x="389" y="159"/>
      <point x="368" y="131" type="curve"/>
    </contour>
  </outline>
</glyph>
<glyph name="dieresis" format="1">
  <advance width="333"/>
  <unicode hex="00A8"/>
  <outline>
    <contour>
      <point x="275" y="671" type="curve" smooth="yes"/>
      <point x="237" y="671"/>
      <point x="207" y="641"/>
      <point x="207" y="605" type="curve" smooth="yes"/>
      <point x="207" y="567"/>
      <point x="237" y="537"/>
      <point x="274" y="537" type="curve" smooth="yes"/>
      <point x="311" y="537"/>
      <point x="341" y="567"/>
      <point x="341" y="604" type="curve" smooth="yes"/>
      <point x="341" y="640"/>
      <point x="311" y="671"/>
    </contour>
    <contour>
      <point x="60" y="671" type="curve" smooth="yes"/>
      <point x="22" y="671"/>
      <point x="-8" y="641"/>
      <point x="-8" y="604" type="curve" smooth="yes"/>
      <point x="-8" y="567"/>
      <point x="22" y="537"/>
      <point x="59" y="537" type="curve" smooth="yes"/>
      <point x="96" y="537"/>
      <point x="126" y="567"/>
      <point x="126" y="604" type="curve" smooth="yes"/>
      <point x="126" y="640"/>
      <point x="96" y="671"/>
    </contour>
  </outline>
</glyph>
<glyph name="copyright" format="1">
  <advance width="747"/>
  <unicode hex="00A9"/>
  <outline>
    <contour>
      <point x="519" y="507" type="line"/>
      <point x="507" y="512"/>
      <point x="492" y="516"/>
      <point x="460" y="523" type="curve" smooth="yes"/>
      <point x="456" y="524" type="line"/>
      <point x="453" y="525" type="line"/>
      <point x="451" y="525" type="line"/>
      <point x="449" y="526" type="line"/>
      <point x="444" y="527" type="line" smooth="yes"/>
      <point x="420" y="533"/>
      <point x="403" y="535"/>
      <point x="384" y="535" type="curve" smooth="yes"/>
      <point x="268" y="535"/>
      <point x="188" y="452"/>
      <point x="188" y="333" type="curve" smooth="yes"/>
      <point x="188" y="217"/>
      <point x="263" y="137"/>
      <point x="372" y="137" type="curve" smooth="yes"/>
      <point x="423" y="137"/>
      <point x="471" y="155"/>
      <point x="503" y="187" type="curve" smooth="yes"/>
      <point x="515" y="199"/>
      <point x="521" y="208"/>
      <point x="531" y="229" type="curve"/>
      <point x="505" y="240" type="line"/>
      <point x="497" y="226" type="line" smooth="yes"/>
      <point x="480" y="196"/>
      <point x="441" y="176"/>
      <point x="401" y="176" type="curve" smooth="yes"/>
      <point x="326" y="176"/>
      <point x="273" y="247"/>
      <point x="273" y="347" type="curve" smooth="yes"/>
      <point x="273" y="439"/>
      <point x="320" y="500"/>
      <point x="390" y="500" type="curve" smooth="yes"/>
      <point x="443" y="500"/>
      <point x="474" y="469"/>
      <point x="487" y="403" type="curve"/>
      <point x="519" y="403" type="line"/>
    </contour>
    <contour>
      <point x="378" y="695" type="curve" smooth="yes"/>
      <point x="182" y="695"/>
      <point x="26" y="538"/>
      <point x="26" y="341" type="curve" smooth="yes"/>
      <point x="26" y="142"/>
      <point x="180" y="-17"/>
      <point x="372" y="-17" type="curve" smooth="yes"/>
      <point x="564" y="-17"/>
      <point x="720" y="142"/>
      <point x="720" y="339" type="curve" smooth="yes"/>
      <point x="720" y="533"/>
      <point x="564" y="695"/>
    </contour>
    <contour>
      <point x="377" y="639" type="curve" smooth="yes"/>
      <point x="534" y="639"/>
      <point x="664" y="503"/>
      <point x="664" y="340" type="curve" smooth="yes"/>
      <point x="664" y="174"/>
      <point x="533" y="39"/>
      <point x="372" y="39" type="curve" smooth="yes"/>
      <point x="211" y="39"/>
      <point x="82" y="174"/>
      <point x="82" y="342" type="curve" smooth="yes"/>
      <point x="82" y="415"/>
      <point x="110" y="488"/>
      <point x="159" y="543" type="curve" smooth="yes"/>
      <point x="217" y="607"/>
      <point x="289" y="639"/>
    </contour>
  </outline>
</glyph>
<glyph name="ordfeminine" format="1">
  <advance width="438"/>
  <unicode hex="00AA"/>
  <outline>
    <contour>
      <point x="245" y="418" type="line"/>
      <point x="245" y="418"/>
      <point x="242" y="380"/>
      <point x="242" y="380" type="curve"/>
      <point x="242" y="380"/>
      <point x="245" y="376"/>
      <point x="245" y="376" type="curve"/>
      <point x="260" y="376"/>
      <point x="274" y="376"/>
      <point x="278" y="377" type="curve"/>
      <point x="304" y="377" type="line" smooth="yes"/>
      <point x="307" y="377"/>
      <point x="317" y="377"/>
      <point x="332" y="376" type="curve"/>
      <point x="361" y="376" type="line"/>
      <point x="361" y="398" type="line"/>
      <point x="342" y="400" type="line" smooth="yes"/>
      <point x="329" y="401"/>
      <point x="324" y="408"/>
      <point x="324" y="424" type="curve" smooth="yes"/>
      <point x="324" y="572" type="line" smooth="yes"/>
      <point x="324" y="628"/>
      <point x="285" y="660"/>
      <point x="215" y="660" type="curve" smooth="yes"/>
      <point x="200" y="660"/>
      <point x="189" y="658"/>
      <point x="182" y="655" type="curve" smooth="yes"/>
      <point x="105" y="618" type="line"/>
      <point x="105" y="579" type="line"/>
      <point x="127" y="575" type="line"/>
      <point x="141" y="605" type="line"/>
      <point x="177" y="613" type="line"/>
      <point x="180" y="614"/>
      <point x="182" y="614"/>
      <point x="183" y="614" type="curve"/>
      <point x="201" y="615"/>
      <point x="226" y="601"/>
      <point x="235" y="585" type="curve" smooth="yes"/>
      <point x="242" y="573"/>
      <point x="244" y="563"/>
      <point x="245" y="542" type="curve"/>
      <point x="188" y="532" type="line" smooth="yes"/>
      <point x="172" y="529"/>
      <point x="146" y="522"/>
      <point x="131" y="516" type="curve" smooth="yes"/>
      <point x="92" y="501"/>
      <point x="77" y="480"/>
      <point x="77" y="442" type="curve" smooth="yes"/>
      <point x="77" y="393"/>
      <point x="104" y="367"/>
      <point x="154" y="367" type="curve" smooth="yes"/>
      <point x="167" y="367"/>
      <point x="179" y="370"/>
      <point x="185" y="374" type="curve" smooth="yes"/>
    </contour>
    <contour>
      <point x="245" y="446" type="line"/>
      <point x="229" y="429"/>
      <point x="209" y="419"/>
      <point x="189" y="419" type="curve" smooth="yes"/>
      <point x="169" y="419"/>
      <point x="156" y="434"/>
      <point x="156" y="457" type="curve" smooth="yes"/>
      <point x="156" y="486"/>
      <point x="171" y="499"/>
      <point x="216" y="510" type="curve" smooth="yes"/>
      <point x="245" y="517" type="line"/>
    </contour>
  </outline>
</glyph>
<glyph name="guillemotleft" format="1">
  <advance width="500"/>
  <unicode hex="00AB"/>
  <outline>
    <contour>
      <point x="234" y="438" type="line"/>
      <point x="183" y="386"/>
      <point x="142" y="349"/>
      <point x="36" y="256" type="curve"/>
      <point x="36" y="231" type="line"/>
      <point x="86" y="190"/>
      <point x="144" y="136"/>
      <point x="234" y="44" type="curve"/>
      <point x="261" y="64" type="line"/>
      <point x="151" y="243" type="line"/>
      <point x="261" y="416" type="line"/>
    </contour>
    <contour>
      <point x="436" y="438" type="line"/>
      <point x="385" y="386"/>
      <point x="344" y="349"/>
      <point x="238" y="256" type="curve"/>
      <point x="238" y="231" type="line"/>
      <point x="288" y="190"/>
      <point x="346" y="136"/>
      <point x="436" y="44" type="curve"/>
      <point x="463" y="64" type="line"/>
      <point x="353" y="243" type="line"/>
      <point x="463" y="416" type="line"/>
    </contour>
  </outline>
</glyph>
<glyph name="registered" format="1">
  <advance width="747"/>
  <unicode hex="00AE"/>
  <outline>
    <contour>
      <point x="324" y="331" type="line"/>
      <point x="339" y="331" type="line" smooth="yes"/>
      <point x="383" y="331"/>
      <point x="389" y="326"/>
      <point x="414" y="266" type="curve"/>
      <point x="415" y="263"/>
      <point x="418" y="257"/>
      <point x="422" y="248" type="curve" smooth="yes"/>
      <point x="425" y="241"/>
      <point x="428" y="235"/>
      <point x="430" y="230" type="curve" smooth="yes"/>
      <point x="454" y="172"/>
      <point x="466" y="158"/>
      <point x="489" y="158" type="curve" smooth="yes"/>
      <point x="557" y="158" type="line"/>
      <point x="557" y="178" type="line"/>
      <point x="530" y="179"/>
      <point x="527" y="183"/>
      <point x="493" y="255" type="curve" smooth="yes"/>
      <point x="462" y="320"/>
      <point x="448" y="336"/>
      <point x="412" y="344" type="curve"/>
      <point x="440" y="350"/>
      <point x="453" y="355"/>
      <point x="469" y="366" type="curve" smooth="yes"/>
      <point x="497" y="384"/>
      <point x="513" y="414"/>
      <point x="513" y="445" type="curve" smooth="yes"/>
      <point x="513" y="481"/>
      <point x="492" y="516"/>
      <point x="461" y="529" type="curve" smooth="yes"/>
      <point x="441" y="538"/>
      <point x="420" y="540"/>
      <point x="364" y="540" type="curve" smooth="yes"/>
      <point x="212" y="540" type="line"/>
      <point x="212" y="519" type="line"/>
      <point x="227" y="519" type="line" smooth="yes"/>
      <point x="252" y="519"/>
      <point x="255" y="516"/>
      <point x="255" y="490" type="curve" smooth="yes"/>
      <point x="255" y="205" type="line" smooth="yes"/>
      <point x="255" y="182"/>
      <point x="250" y="178"/>
      <point x="225" y="178" type="curve" smooth="yes"/>
      <point x="211" y="178" type="line"/>
      <point x="211" y="158" type="line"/>
      <point x="367" y="158" type="line"/>
      <point x="367" y="179" type="line"/>
      <point x="350" y="179" type="line" smooth="yes"/>
      <point x="330" y="179"/>
      <point x="324" y="186"/>
      <point x="324" y="209" type="curve" smooth="yes"/>
    </contour>
    <contour>
      <point x="324" y="356" type="line"/>
      <point x="324" y="479" type="line" smooth="yes"/>
      <point x="324" y="510"/>
      <point x="328" y="518"/>
      <point x="341" y="518" type="curve" smooth="yes"/>
      <point x="362" y="518" type="line" smooth="yes"/>
      <point x="416" y="518"/>
      <point x="443" y="491"/>
      <point x="443" y="438" type="curve" smooth="yes"/>
      <point x="443" y="383"/>
      <point x="406" y="349"/>
      <point x="353" y="355" type="curve"/>
      <point x="348" y="356"/>
      <point x="344" y="356"/>
      <point x="343" y="356" type="curve" smooth="yes"/>
    </contour>
    <contour>
      <point x="378" y="695" type="curve" smooth="yes"/>
      <point x="182" y="695"/>
      <point x="26" y="538"/>
      <point x="26" y="341" type="curve" smooth="yes"/>
      <point x="26" y="142"/>
      <point x="180" y="-17"/>
      <point x="372" y="-17" type="curve" smooth="yes"/>
      <point x="564" y="-17"/>
      <point x="720" y="142"/>
      <point x="720" y="339" type="curve" smooth="yes"/>
      <point x="720" y="533"/>
      <point x="564" y="695"/>
    </contour>
    <contour>
      <point x="377" y="639" type="curve" smooth="yes"/>
      <point x="534" y="639"/>
      <point x="664" y="503"/>
      <point x="664" y="340" type="curve" smooth="yes"/>
      <point x="664" y="174"/>
      <point x="533" y="39"/>
      <point x="372" y="39" type="curve" smooth="yes"/>
      <point x="211" y="39"/>
      <point x="82" y="174"/>
      <point x="82" y="342" type="curve" smooth="yes"/>
      <point x="82" y="415"/>
      <point x="110" y="488"/>
      <point x="159" y="543" type="curve" smooth="yes"/>
      <point x="217" y="607"/>
      <point x="289" y="639"/>
    </contour>
  </outline>
</glyph>
<glyph name="macron" format="1">
  <advance width="333"/>
  <unicode hex="00AF"/>
  <outline>
    <contour>
      <point x="332" y="538" type="line"/>
      <point x="332" y="609" type="line"/>
      <point x="1" y="609" type="line"/>
      <point x="1" y="538" type="line"/>
    </contour>
  </outline>
</glyph>
<glyph name="degree" format="1">
  <advance width="400"/>
  <unicode hex="00B0"/>
  <outline>
    <contour>
      <point x="202" y="660" type="curve" smooth="yes"/>
      <point x="117" y="660"/>
      <point x="50" y="594"/>
      <point x="50" y="510" type="curve" smooth="yes"/>
      <point x="50" y="427"/>
      <point x="117" y="360"/>
      <point x="200" y="360" type="curve" smooth="yes"/>
      <point x="282" y="360"/>
      <point x="350" y="427"/>
      <point x="350" y="510" type="curve" smooth="yes"/>
      <point x="350" y="591"/>
      <point x="282" y="660"/>
    </contour>
    <contour>
      <point x="200" y="599" type="curve" smooth="yes"/>
      <point x="248" y="599"/>
      <point x="289" y="558"/>
      <point x="289" y="510" type="curve" smooth="yes"/>
      <point x="289" y="461"/>
      <point x="249" y="421"/>
      <point x="200" y="421" type="curve" smooth="yes"/>
      <point x="151" y="421"/>
      <point x="111" y="461"/>
      <point x="111" y="511" type="curve" smooth="yes"/>
      <point x="111" y="560"/>
      <point x="150" y="599"/>
    </contour>
  </outline>
</glyph>
<glyph name="plusminus" format="1">
  <advance width="606"/>
  <unicode hex="00B1"/>
  <outline>
    <contour>
      <point x="260" y="358" type="line"/>
      <point x="51" y="358" type="line"/>
      <point x="51" y="272" type="line"/>
      <point x="260" y="272" type="line"/>
      <point x="260" y="125" type="line"/>
      <point x="346" y="125" type="line"/>
      <point x="346" y="272" type="line"/>
      <point x="555" y="272" type="line"/>
      <point x="555" y="358" type="line"/>
      <point x="346" y="358" type="line"/>
      <point x="346" y="568" type="line"/>
      <point x="260" y="568" type="line"/>
    </contour>
    <contour>
      <point x="51" y="0" type="line"/>
      <point x="555" y="0" type="line"/>
      <point x="555" y="86" type="line"/>
      <point x="51" y="86" type="line"/>
    </contour>
  </outline>
</glyph>
<glyph name="acute" format="1">
  <advance width="333"/>
  <unicode hex="00B4"/>
  <outline>
    <contour>
      <point x="78" y="506" type="line"/>
      <point x="134" y="506" type="line"/>
      <point x="265" y="587" type="line"/>
      <point x="273" y="592" type="line" smooth="yes"/>
      <point x="306" y="611"/>
      <point x="316" y="625"/>
      <point x="316" y="647" type="curve" smooth="yes"/>
      <point x="316" y="674"/>
      <point x="298" y="691"/>
      <point x="272" y="691" type="curve" smooth="yes"/>
      <point x="248" y="691"/>
      <point x="230" y="680"/>
      <point x="207" y="654" type="curve" smooth="yes"/>
    </contour>
  </outline>
</glyph>
<glyph name="paragraph" format="1">
  <advance width="641"/>
  <unicode hex="00B6"/>
  <outline>
    <contour>
      <point x="195" y="-120" type="line"/>
      <point x="195" y="-161" type="line"/>
      <point x="363" y="-158"/>
      <point x="363" y="-158"/>
      <point x="397" y="-158" type="curve" smooth="yes"/>
      <point x="431" y="-158"/>
      <point x="431" y="-158"/>
      <point x="599" y="-161" type="curve"/>
      <point x="599" y="-120" type="line"/>
      <point x="550" y="-118" type="line" smooth="yes"/>
      <point x="519" y="-117"/>
      <point x="514" y="-108"/>
      <point x="514" y="-54" type="curve" smooth="yes"/>
      <point x="514" y="563" type="line" smooth="yes"/>
      <point x="514" y="620"/>
      <point x="524" y="640"/>
      <point x="552" y="640" type="curve" smooth="yes"/>
      <point x="599" y="640" type="line"/>
      <point x="599" y="681" type="line"/>
      <point x="475" y="679" type="line" smooth="yes"/>
      <point x="459" y="678"/>
      <point x="444" y="678"/>
      <point x="436" y="678" type="curve" smooth="yes"/>
      <point x="377" y="678"/>
      <point x="323" y="679"/>
      <point x="284" y="681" type="curve" smooth="yes"/>
      <point x="257" y="682"/>
      <point x="238" y="683"/>
      <point x="228" y="683" type="curve" smooth="yes"/>
      <point x="104" y="683"/>
      <point x="19" y="620"/>
      <point x="19" y="529" type="curve" smooth="yes"/>
      <point x="19" y="474"/>
      <point x="46" y="425"/>
      <point x="97" y="387" type="curve" smooth="yes"/>
      <point x="151" y="347"/>
      <point x="199" y="330"/>
      <point x="280" y="324" type="curve"/>
      <point x="280" y="-54" type="line" smooth="yes"/>
      <point x="280" y="-108"/>
      <point x="275" y="-117"/>
      <point x="244" y="-118" type="curve" smooth="yes"/>
    </contour>
    <contour>
      <point x="426" y="634" type="line"/>
      <point x="426" y="-111" type="line"/>
      <point x="368" y="-111" type="line"/>
      <point x="368" y="634" type="line"/>
    </contour>
    <contour>
      <point x="280" y="371" type="line"/>
      <point x="197" y="389"/>
      <point x="150" y="441"/>
      <point x="150" y="513" type="curve" smooth="yes"/>
      <point x="150" y="583"/>
      <point x="199" y="635"/>
      <point x="265" y="635" type="curve" smooth="yes"/>
      <point x="268" y="635"/>
      <point x="274" y="635"/>
      <point x="280" y="634" type="curve"/>
    </contour>
  </outline>
</glyph>
<glyph name="periodcentered" format="1">
  <advance width="250"/>
  <unicode hex="00B7"/>
  <outline>
    <contour>
      <point x="126" y="335" type="curve" smooth="yes"/>
      <point x="84" y="335"/>
      <point x="47" y="298"/>
      <point x="47" y="256" type="curve" smooth="yes"/>
      <point x="47" y="214"/>
      <point x="83" y="179"/>
      <point x="124" y="179" type="curve" smooth="yes"/>
      <point x="166" y="179"/>
      <point x="203" y="215"/>
      <point x="203" y="256" type="curve" smooth="yes"/>
      <point x="203" y="297"/>
      <point x="166" y="335"/>
    </contour>
  </outline>
</glyph>
<glyph name="cedilla" format="1">
  <advance width="333"/>
  <unicode hex="00B8"/>
  <outline>
    <contour>
      <point x="122" y="-103" type="line"/>
      <point x="132" y="-111" type="line"/>
      <point x="156" y="-108"/>
      <point x="161" y="-107"/>
      <point x="168" y="-107" type="curve" smooth="yes"/>
      <point x="192" y="-107"/>
      <point x="206" y="-120"/>
      <point x="206" y="-142" type="curve" smooth="yes"/>
      <point x="206" y="-166"/>
      <point x="189" y="-179"/>
      <point x="156" y="-179" type="curve" smooth="yes"/>
      <point x="137" y="-179"/>
      <point x="123" y="-177"/>
      <point x="89" y="-170" type="curve"/>
      <point x="73" y="-207" type="line"/>
      <point x="109" y="-219"/>
      <point x="138" y="-225"/>
      <point x="167" y="-225" type="curve" smooth="yes"/>
      <point x="248" y="-225"/>
      <point x="300" y="-191"/>
      <point x="300" y="-138" type="curve" smooth="yes"/>
      <point x="300" y="-93"/>
      <point x="270" y="-65"/>
      <point x="223" y="-65" type="curve" smooth="yes"/>
      <point x="209" y="-65"/>
      <point x="197" y="-66"/>
      <point x="178" y="-71" type="curve"/>
      <point x="206" y="-7" type="line"/>
      <point x="165" y="-7" type="line"/>
    </contour>
  </outline>
</glyph>
<glyph name="ordmasculine" format="1">
  <advance width="488"/>
  <unicode hex="00BA"/>
  <outline>
    <contour>
      <point x="250" y="660" type="curve" smooth="yes"/>
      <point x="147" y="660"/>
      <point x="89" y="608"/>
      <point x="89" y="514" type="curve" smooth="yes"/>
      <point x="89" y="419"/>
      <point x="141" y="367"/>
      <point x="236" y="367" type="curve" smooth="yes"/>
      <point x="339" y="367"/>
      <point x="399" y="422"/>
      <point x="399" y="517" type="curve" smooth="yes"/>
      <point x="399" y="609"/>
      <point x="346" y="660"/>
    </contour>
    <contour>
      <point x="241" y="631" type="curve" smooth="yes"/>
      <point x="288" y="631"/>
      <point x="311" y="588"/>
      <point x="311" y="500" type="curve" smooth="yes"/>
      <point x="311" y="427"/>
      <point x="292" y="396"/>
      <point x="248" y="396" type="curve" smooth="yes"/>
      <point x="201" y="396"/>
      <point x="177" y="441"/>
      <point x="177" y="528" type="curve" smooth="yes"/>
      <point x="177" y="599"/>
      <point x="197" y="631"/>
    </contour>
  </outline>
</glyph>
<glyph name="guillemotright" format="1">
  <advance width="500"/>
  <unicode hex="00BB"/>
  <outline>
    <contour>
      <point x="37" y="416" type="line"/>
      <point x="147" y="243" type="line"/>
      <point x="37" y="64" type="line"/>
      <point x="64" y="44" type="line"/>
      <point x="152" y="134"/>
      <point x="213" y="191"/>
      <point x="262" y="231" type="curve"/>
      <point x="262" y="256" type="line"/>
      <point x="171" y="335"/>
      <point x="105" y="396"/>
      <point x="64" y="438" type="curve"/>
    </contour>
    <contour>
      <point x="239" y="416" type="line"/>
      <point x="349" y="243" type="line"/>
      <point x="239" y="64" type="line"/>
      <point x="266" y="44" type="line"/>
      <point x="354" y="134"/>
      <point x="415" y="191"/>
      <point x="464" y="231" type="curve"/>
      <point x="464" y="256" type="line"/>
      <point x="373" y="335"/>
      <point x="307" y="396"/>
      <point x="266" y="438" type="curve"/>
    </contour>
  </outline>
</glyph>
<glyph name="onequarter" format="1">
  <advance width="750"/>
  <unicode hex="00BC"/>
  <outline>
    <contour>
      <point x="440" y="99" type="line"/>
      <point x="595" y="99" type="line"/>
      <point x="595" y="75" type="line" smooth="yes"/>
      <point x="595" y="48"/>
      <point x="582" y="31"/>
      <point x="558" y="30" type="curve" smooth="yes"/>
      <point x="520" y="28" type="line"/>
      <point x="520" y="-2" type="line"/>
      <point x="630" y="0"/>
      <point x="630" y="0"/>
      <point x="637" y="0" type="curve" smooth="yes"/>
      <point x="649" y="0"/>
      <point x="649" y="0"/>
      <point x="735" y="-2" type="curve"/>
      <point x="735" y="28" type="line"/>
      <point x="716" y="30" type="line" smooth="yes"/>
      <point x="691" y="33"/>
      <point x="679" y="47"/>
      <point x="679" y="75" type="curve" smooth="yes"/>
      <point x="679" y="99" type="line"/>
      <point x="733" y="99" type="line"/>
      <point x="733" y="152" type="line"/>
      <point x="679" y="152" type="line"/>
      <point x="679" y="396" type="line"/>
      <point x="671" y="403" type="line"/>
      <point x="595" y="387" type="line"/>
      <point x="574" y="362"/>
      <point x="559" y="342"/>
      <point x="545" y="319" type="curve" smooth="yes"/>
      <point x="467" y="190" type="line" smooth="yes"/>
      <point x="460" y="178"/>
      <point x="455" y="167"/>
      <point x="445" y="142" type="curve"/>
      <point x="442" y="137"/>
      <point x="439" y="130"/>
      <point x="436" y="122" type="curve"/>
    </contour>
    <contour>
      <point x="489" y="152" type="line"/>
      <point x="595" y="331" type="line"/>
      <point x="595" y="152" type="line"/>
    </contour>
    <contour>
      <point x="45" y="291" type="line"/>
      <point x="45" y="261" type="line"/>
      <point x="126" y="262" type="line" smooth="yes"/>
      <point x="151" y="263"/>
      <point x="167" y="263"/>
      <point x="176" y="263" type="curve" smooth="yes"/>
      <point x="185" y="263"/>
      <point x="185" y="263"/>
      <point x="292" y="261" type="curve"/>
      <point x="292" y="291" type="line"/>
      <point x="255" y="293" type="line" smooth="yes"/>
      <point x="231" y="294"/>
      <point x="218" y="310"/>
      <point x="218" y="338" type="curve" smooth="yes"/>
      <point x="218" y="570" type="line" smooth="yes"/>
      <point x="218" y="584"/>
      <point x="219" y="592"/>
      <point x="221" y="617" type="curve" smooth="yes"/>
      <point x="222" y="630"/>
      <point x="223" y="639"/>
      <point x="225" y="660" type="curve"/>
      <point x="217" y="665" type="line"/>
      <point x="103" y="627"/>
      <point x="72" y="618"/>
      <point x="19" y="604" type="curve"/>
      <point x="19" y="592"/>
      <point x="21" y="580"/>
      <point x="28" y="556" type="curve"/>
      <point x="113" y="594" type="line"/>
      <point x="116" y="595"/>
      <point x="118" y="596"/>
      <point x="119" y="596" type="curve" smooth="yes"/>
      <point x="123" y="596"/>
      <point x="125" y="590"/>
      <point x="125" y="573" type="curve" smooth="yes"/>
      <point x="125" y="338" type="line" smooth="yes"/>
      <point x="125" y="311"/>
      <point x="111" y="294"/>
      <point x="87" y="293" type="curve" smooth="yes"/>
    </contour>
    <contour>
      <point x="257" y="0" type="line"/>
      <point x="660" y="660" type="line"/>
      <point x="591" y="660" type="line"/>
      <point x="188" y="0" type="line"/>
    </contour>
  </outline>
</glyph>
<glyph name="onehalf" format="1">
  <advance width="750"/>
  <unicode hex="00BD"/>
  <outline>
    <contour>
      <point x="224" y="0" type="line"/>
      <point x="627" y="660" type="line"/>
      <point x="558" y="660" type="line"/>
      <point x="155" y="0" type="line"/>
    </contour>
    <contour>
      <point x="35" y="291" type="line"/>
      <point x="35" y="261" type="line"/>
      <point x="116" y="262" type="line" smooth="yes"/>
      <point x="141" y="263"/>
      <point x="157" y="263"/>
      <point x="166" y="263" type="curve" smooth="yes"/>
      <point x="175" y="263"/>
      <point x="175" y="263"/>
      <point x="282" y="261" type="curve"/>
      <point x="282" y="291" type="line"/>
      <point x="245" y="293" type="line" smooth="yes"/>
      <point x="221" y="294"/>
      <point x="208" y="311"/>
      <point x="208" y="338" type="curve" smooth="yes"/>
      <point x="208" y="570" type="line" smooth="yes"/>
      <point x="208" y="584"/>
      <point x="209" y="592"/>
      <point x="211" y="617" type="curve" smooth="yes"/>
      <point x="212" y="630"/>
      <point x="213" y="639"/>
      <point x="215" y="660" type="curve"/>
      <point x="207" y="665" type="line"/>
      <point x="93" y="627"/>
      <point x="62" y="618"/>
      <point x="9" y="604" type="curve"/>
      <point x="9" y="592"/>
      <point x="11" y="580"/>
      <point x="18" y="556" type="curve"/>
      <point x="105" y="595" type="line"/>
      <point x="106" y="596"/>
      <point x="108" y="596"/>
      <point x="109" y="596" type="curve" smooth="yes"/>
      <point x="113" y="596"/>
      <point x="115" y="590"/>
      <point x="115" y="573" type="curve" smooth="yes"/>
      <point x="115" y="338" type="line" smooth="yes"/>
      <point x="115" y="311"/>
      <point x="101" y="294"/>
      <point x="77" y="293" type="curve" smooth="yes"/>
    </contour>
    <contour>
      <point x="455" y="-2" type="line"/>
      <point x="494" y="-2" type="line"/>
      <point x="583" y="0" type="line"/>
      <point x="601" y="0" type="line"/>
      <point x="633" y="0" type="line"/>
      <point x="745" y="-2" type="line"/>
      <point x="743" y="13"/>
      <point x="743" y="20"/>
      <point x="743" y="32" type="curve" smooth="yes"/>
      <point x="743" y="45"/>
      <point x="743" y="53"/>
      <point x="745" y="71" type="curve"/>
      <point x="740" y="76" type="line"/>
      <point x="562" y="67" type="line"/>
      <point x="562" y="75" type="line"/>
      <point x="658" y="165" type="line" smooth="yes"/>
      <point x="701" y="205"/>
      <point x="725" y="251"/>
      <point x="725" y="292" type="curve" smooth="yes"/>
      <point x="725" y="353"/>
      <point x="667" y="397"/>
      <point x="586" y="397" type="curve" smooth="yes"/>
      <point x="549" y="397"/>
      <point x="520" y="387"/>
      <point x="482" y="360" type="curve"/>
      <point x="470" y="259" type="line"/>
      <point x="498" y="255" type="line"/>
      <point x="508" y="288" type="line" smooth="yes"/>
      <point x="517" y="318"/>
      <point x="532" y="329"/>
      <point x="564" y="329" type="curve" smooth="yes"/>
      <point x="606" y="329"/>
      <point x="633" y="304"/>
      <point x="633" y="264" type="curve" smooth="yes"/>
      <point x="633" y="222"/>
      <point x="610" y="180"/>
      <point x="563" y="136" type="curve" smooth="yes"/>
      <point x="455" y="35" type="line"/>
    </contour>
  </outline>
</glyph>
<glyph name="threequarters" format="1">
  <advance width="750"/>
  <unicode hex="00BE"/>
  <outline>
    <contour>
      <point x="229" y="0" type="line"/>
      <point x="632" y="660" type="line"/>
      <point x="563" y="660" type="line"/>
      <point x="160" y="0" type="line"/>
    </contour>
    <contour>
      <point x="15" y="365" type="line"/>
      <point x="21" y="334"/>
      <point x="23" y="323"/>
      <point x="31" y="275" type="curve"/>
      <point x="57" y="265"/>
      <point x="80" y="261"/>
      <point x="111" y="261" type="curve" smooth="yes"/>
      <point x="215" y="261"/>
      <point x="298" y="325"/>
      <point x="298" y="405" type="curve" smooth="yes"/>
      <point x="298" y="459"/>
      <point x="266" y="488"/>
      <point x="198" y="494" type="curve"/>
      <point x="248" y="518"/>
      <point x="272" y="546"/>
      <point x="272" y="582" type="curve" smooth="yes"/>
      <point x="272" y="631"/>
      <point x="223" y="667"/>
      <point x="155" y="667" type="curve" smooth="yes"/>
      <point x="119" y="667"/>
      <point x="93" y="660"/>
      <point x="55" y="640" type="curve"/>
      <point x="35" y="548" type="line"/>
      <point x="61" y="548" type="line"/>
      <point x="73" y="588"/>
      <point x="97" y="606"/>
      <point x="135" y="606" type="curve" smooth="yes"/>
      <point x="176" y="606"/>
      <point x="200" y="587"/>
      <point x="200" y="554" type="curve" smooth="yes"/>
      <point x="200" y="516"/>
      <point x="171" y="491"/>
      <point x="126" y="491" type="curve" smooth="yes"/>
      <point x="104" y="491" type="line"/>
      <point x="91" y="447" type="line"/>
      <point x="96" y="444" type="line"/>
      <point x="113" y="448"/>
      <point x="123" y="449"/>
      <point x="137" y="449" type="curve" smooth="yes"/>
      <point x="184" y="449"/>
      <point x="217" y="419"/>
      <point x="217" y="376" type="curve" smooth="yes"/>
      <point x="217" y="332"/>
      <point x="180" y="298"/>
      <point x="133" y="298" type="curve" smooth="yes"/>
      <point x="90" y="298"/>
      <point x="62" y="319"/>
      <point x="37" y="370" type="curve"/>
    </contour>
    <contour>
      <point x="440" y="99" type="line"/>
      <point x="595" y="99" type="line"/>
      <point x="595" y="75" type="line" smooth="yes"/>
      <point x="595" y="48"/>
      <point x="582" y="31"/>
      <point x="558" y="30" type="curve" smooth="yes"/>
      <point x="520" y="28" type="line"/>
      <point x="520" y="-2" type="line"/>
      <point x="630" y="0"/>
      <point x="630" y="0"/>
      <point x="637" y="0" type="curve" smooth="yes"/>
      <point x="649" y="0"/>
      <point x="649" y="0"/>
      <point x="735" y="-2" type="curve"/>
      <point x="735" y="28" type="line"/>
      <point x="716" y="30" type="line" smooth="yes"/>
      <point x="691" y="33"/>
      <point x="679" y="47"/>
      <point x="679" y="75" type="curve" smooth="yes"/>
      <point x="679" y="99" type="line"/>
      <point x="733" y="99" type="line"/>
      <point x="733" y="152" type="line"/>
      <point x="679" y="152" type="line"/>
      <point x="679" y="396" type="line"/>
      <point x="671" y="403" type="line"/>
      <point x="595" y="387" type="line"/>
      <point x="574" y="362"/>
      <point x="559" y="342"/>
      <point x="545" y="319" type="curve" smooth="yes"/>
      <point x="467" y="190" type="line" smooth="yes"/>
      <point x="460" y="178"/>
      <point x="455" y="167"/>
      <point x="445" y="142" type="curve"/>
      <point x="442" y="137"/>
      <point x="439" y="130"/>
      <point x="436" y="122" type="curve"/>
    </contour>
    <contour>
      <point x="489" y="152" type="line"/>
      <point x="595" y="331" type="line"/>
      <point x="595" y="152" type="line"/>
    </contour>
  </outline>
</glyph>
<glyph name="questiondown" format="1">
  <advance width="444"/>
  <unicode hex="00BF"/>
  <outline>
    <contour>
      <point x="366" y="-41" type="line"/>
      <point x="335" y="-112" type="line" smooth="yes"/>
      <point x="329" y="-125"/>
      <point x="298" y="-135"/>
      <point x="263" y="-135" type="curve" smooth="yes"/>
      <point x="208" y="-135"/>
      <point x="167" y="-99"/>
      <point x="167" y="-52" type="curve" smooth="yes"/>
      <point x="167" y="-17"/>
      <point x="183" y="14"/>
      <point x="230" y="70" type="curve" smooth="yes"/>
      <point x="276" y="126"/>
      <point x="293" y="159"/>
      <point x="293" y="194" type="curve" smooth="yes"/>
      <point x="293" y="222"/>
      <point x="285" y="245"/>
      <point x="267" y="268" type="curve"/>
      <point x="233" y="254" type="line"/>
      <point x="234" y="252" type="line" smooth="yes"/>
      <point x="240" y="239"/>
      <point x="243" y="228"/>
      <point x="243" y="216" type="curve" smooth="yes"/>
      <point x="243" y="189"/>
      <point x="222" y="158"/>
      <point x="181" y="124" type="curve" smooth="yes"/>
      <point x="104" y="60" type="line" smooth="yes"/>
      <point x="51" y="16"/>
      <point x="33" y="-18"/>
      <point x="33" y="-74" type="curve" smooth="yes"/>
      <point x="33" y="-170"/>
      <point x="106" y="-231"/>
      <point x="219" y="-231" type="curve" smooth="yes"/>
      <point x="277" y="-231"/>
      <point x="316" y="-219"/>
      <point x="369" y="-183" type="curve"/>
      <point x="371" y="-148"/>
      <point x="379" y="-117"/>
      <point x="401" y="-50" type="curve"/>
    </contour>
    <contour>
      <point x="251" y="471" type="curve" smooth="yes"/>
      <point x="209" y="471"/>
      <point x="172" y="433"/>
      <point x="172" y="391" type="curve" smooth="yes"/>
      <point x="172" y="350"/>
      <point x="208" y="315"/>
      <point x="249" y="315" type="curve" smooth="yes"/>
      <point x="291" y="315"/>
      <point x="328" y="351"/>
      <point x="328" y="392" type="curve" smooth="yes"/>
      <point x="328" y="433"/>
      <point x="291" y="471"/>
    </contour>
  </outline>
</glyph>
<glyph name="Aacute" format="1">
  <advance width="778"/>
  <unicode hex="00C1"/>
  <outline>
    <contour>
      <point x="469" y="206" type="line"/>
      <point x="514" y="92" type="line" smooth="yes"/>
      <point x="518" y="82"/>
      <point x="520" y="72"/>
      <point x="520" y="64" type="curve" smooth="yes"/>
      <point x="520" y="49"/>
      <point x="511" y="38"/>
      <point x="500" y="37" type="curve" smooth="yes"/>
      <point x="447" y="34" type="line"/>
      <point x="447" y="-3" type="line"/>
      <point x="587" y="0"/>
      <point x="587" y="0"/>
      <point x="599" y="0" type="curve" smooth="yes"/>
      <point x="610" y="0"/>
      <point x="610" y="0"/>
      <point x="757" y="-3" type="curve"/>
      <point x="757" y="34" type="line"/>
      <point x="733" y="37" type="line" smooth="yes"/>
      <point x="705" y="41"/>
      <point x="691" y="52"/>
      <point x="678" y="81" type="curve" smooth="yes"/>
      <point x="419" y="686" type="line"/>
      <point x="348" y="686" type="line"/>
      <point x="320" y="611" type="line" smooth="yes"/>
      <point x="306" y="572"/>
      <point x="296" y="546"/>
      <point x="291" y="535" type="curve" smooth="yes"/>
      <point x="110" y="97" type="line" smooth="yes"/>
      <point x="93" y="58"/>
      <point x="76" y="39"/>
      <point x="54" y="37" type="curve" smooth="yes"/>
      <point x="24" y="34" type="line"/>
      <point x="24" y="-3" type="line"/>
      <point x="50" y="-2"/>
      <point x="73" y="-2"/>
      <point x="81" y="-1" type="curve"/>
      <point x="109" y="0"/>
      <point x="128" y="0"/>
      <point x="137" y="0" type="curve" smooth="yes"/>
      <point x="146" y="0"/>
      <point x="165" y="0"/>
      <point x="193" y="-1" type="curve"/>
      <point x="202" y="-2"/>
      <point x="223" y="-2"/>
      <point x="250" y="-3" type="curve"/>
      <point x="250" y="34" type="line"/>
      <point x="200" y="37" type="line" smooth="yes"/>
      <point x="183" y="38"/>
      <point x="171" y="52"/>
      <point x="171" y="69" type="curve" smooth="yes"/>
      <point x="171" y="76"/>
      <point x="173" y="86"/>
      <point x="176" y="94" type="curve" smooth="yes"/>
      <point x="218" y="206" type="line"/>
    </contour>
    <contour>
      <point x="342" y="516" type="line"/>
      <point x="446" y="262" type="line"/>
      <point x="242" y="262" type="line"/>
    </contour>
    <contour>
      <point x="301" y="730" type="line"/>
      <point x="357" y="730" type="line"/>
      <point x="488" y="811" type="line"/>
      <point x="496" y="816" type="line" smooth="yes"/>
      <point x="529" y="835"/>
      <point x="539" y="849"/>
      <point x="539" y="871" type="curve" smooth="yes"/>
      <point x="539" y="898"/>
      <point x="521" y="915"/>
      <point x="495" y="915" type="curve" smooth="yes"/>
      <point x="471" y="915"/>
      <point x="453" y="904"/>
      <point x="430" y="878" type="curve" smooth="yes"/>
    </contour>
  </outline>
</glyph>
<glyph name="Atilde" format="1">
  <advance width="778"/>
  <unicode hex="00C3"/>
  <outline>
    <contour>
      <point x="469" y="206" type="line"/>
      <point x="514" y="92" type="line" smooth="yes"/>
      <point x="518" y="82"/>
      <point x="520" y="72"/>
      <point x="520" y="64" type="curve" smooth="yes"/>
      <point x="520" y="49"/>
      <point x="511" y="38"/>
      <point x="500" y="37" type="curve" smooth="yes"/>
      <point x="447" y="34" type="line"/>
      <point x="447" y="-3" type="line"/>
      <point x="587" y="0"/>
      <point x="587" y="0"/>
      <point x="599" y="0" type="curve" smooth="yes"/>
      <point x="610" y="0"/>
      <point x="610" y="0"/>
      <point x="757" y="-3" type="curve"/>
      <point x="757" y="34" type="line"/>
      <point x="733" y="37" type="line" smooth="yes"/>
      <point x="705" y="41"/>
      <point x="691" y="52"/>
      <point x="678" y="81" type="curve" smooth="yes"/>
      <point x="419" y="686" type="line"/>
      <point x="348" y="686" type="line"/>
      <point x="320" y="611" type="line" smooth="yes"/>
      <point x="306" y="572"/>
      <point x="296" y="546"/>
      <point x="291" y="535" type="curve" smooth="yes"/>
      <point x="110" y="97" type="line" smooth="yes"/>
      <point x="93" y="58"/>
      <point x="76" y="39"/>
      <point x="54" y="37" type="curve" smooth="yes"/>
      <point x="24" y="34" type="line"/>
      <point x="24" y="-3" type="line"/>
      <point x="50" y="-2"/>
      <point x="73" y="-2"/>
      <point x="81" y="-1" type="curve"/>
      <point x="109" y="0"/>
      <point x="128" y="0"/>
      <point x="137" y="0" type="curve" smooth="yes"/>
      <point x="146" y="0"/>
      <point x="165" y="0"/>
      <point x="193" y="-1" type="curve"/>
      <point x="202" y="-2"/>
      <point x="223" y="-2"/>
      <point x="250" y="-3" type="curve"/>
      <point x="250" y="34" type="line"/>
      <point x="200" y="37" type="line" smooth="yes"/>
      <point x="183" y="38"/>
      <point x="171" y="52"/>
      <point x="171" y="69" type="curve" smooth="yes"/>
      <point x="171" y="76"/>
      <point x="173" y="86"/>
      <point x="176" y="94" type="curve" smooth="yes"/>
      <point x="218" y="206" type="line"/>
    </contour>
    <contour>
      <point x="342" y="516" type="line"/>
      <point x="446" y="262" type="line"/>
      <point x="242" y="262" type="line"/>
    </contour>
    <contour>
      <point x="529" y="885" type="line"/>
      <point x="511" y="846"/>
      <point x="502" y="837"/>
      <point x="478" y="837" type="curve" smooth="yes"/>
      <point x="459" y="837"/>
      <point x="441" y="843"/>
      <point x="403" y="861" type="curve" smooth="yes"/>
      <point x="365" y="879"/>
      <point x="346" y="885"/>
      <point x="323" y="885" type="curve" smooth="yes"/>
      <point x="263" y="885"/>
      <point x="215" y="834"/>
      <point x="207" y="760" type="curve"/>
      <point x="247" y="760" type="line"/>
      <point x="257" y="792"/>
      <point x="273" y="808"/>
      <point x="293" y="808" type="curve" smooth="yes"/>
      <point x="312" y="808"/>
      <point x="333" y="802"/>
      <point x="370" y="784" type="curve" smooth="yes"/>
      <point x="410" y="765"/>
      <point x="431" y="759"/>
      <point x="454" y="759" type="curve" smooth="yes"/>
      <point x="512" y="759"/>
      <point x="548" y="798"/>
      <point x="572" y="885" type="curve"/>
    </contour>
  </outline>
</glyph>
<glyph name="Adieresis" format="1">
  <advance width="778"/>
  <unicode hex="00C4"/>
  <outline>
    <contour>
      <point x="469" y="206" type="line"/>
      <point x="514" y="92" type="line" smooth="yes"/>
      <point x="518" y="82"/>
      <point x="520" y="72"/>
      <point x="520" y="64" type="curve" smooth="yes"/>
      <point x="520" y="49"/>
      <point x="511" y="38"/>
      <point x="500" y="37" type="curve" smooth="yes"/>
      <point x="447" y="34" type="line"/>
      <point x="447" y="-3" type="line"/>
      <point x="587" y="0"/>
      <point x="587" y="0"/>
      <point x="599" y="0" type="curve" smooth="yes"/>
      <point x="610" y="0"/>
      <point x="610" y="0"/>
      <point x="757" y="-3" type="curve"/>
      <point x="757" y="34" type="line"/>
      <point x="733" y="37" type="line" smooth="yes"/>
      <point x="705" y="41"/>
      <point x="691" y="52"/>
      <point x="678" y="81" type="curve" smooth="yes"/>
      <point x="419" y="686" type="line"/>
      <point x="348" y="686" type="line"/>
      <point x="320" y="611" type="line" smooth="yes"/>
      <point x="306" y="572"/>
      <point x="296" y="546"/>
      <point x="291" y="535" type="curve" smooth="yes"/>
      <point x="110" y="97" type="line" smooth="yes"/>
      <point x="93" y="58"/>
      <point x="76" y="39"/>
      <point x="54" y="37" type="curve" smooth="yes"/>
      <point x="24" y="34" type="line"/>
      <point x="24" y="-3" type="line"/>
      <point x="50" y="-2"/>
      <point x="73" y="-2"/>
      <point x="81" y="-1" type="curve"/>
      <point x="109" y="0"/>
      <point x="128" y="0"/>
      <point x="137" y="0" type="curve" smooth="yes"/>
      <point x="146" y="0"/>
      <point x="165" y="0"/>
      <point x="193" y="-1" type="curve"/>
      <point x="202" y="-2"/>
      <point x="223" y="-2"/>
      <point x="250" y="-3" type="curve"/>
      <point x="250" y="34" type="line"/>
      <point x="200" y="37" type="line" smooth="yes"/>
      <point x="183" y="38"/>
      <point x="171" y="52"/>
      <point x="171" y="69" type="curve" smooth="yes"/>
      <point x="171" y="76"/>
      <point x="173" y="86"/>
      <point x="176" y="94" type="curve" smooth="yes"/>
      <point x="218" y="206" type="line"/>
    </contour>
    <contour>
      <point x="342" y="516" type="line"/>
      <point x="446" y="262" type="line"/>
      <point x="242" y="262" type="line"/>
    </contour>
    <contour>
      <point x="498" y="895" type="curve" smooth="yes"/>
      <point x="460" y="895"/>
      <point x="430" y="865"/>
      <point x="430" y="829" type="curve" smooth="yes"/>
      <point x="430" y="791"/>
      <point x="460" y="761"/>
      <point x="497" y="761" type="curve" smooth="yes"/>
      <point x="534" y="761"/>
      <point x="564" y="791"/>
      <point x="564" y="828" type="curve" smooth="yes"/>
      <point x="564" y="864"/>
      <point x="534" y="895"/>
    </contour>
    <contour>
      <point x="283" y="895" type="curve" smooth="yes"/>
      <point x="245" y="895"/>
      <point x="215" y="865"/>
      <point x="215" y="828" type="curve" smooth="yes"/>
      <point x="215" y="791"/>
      <point x="245" y="761"/>
      <point x="282" y="761" type="curve" smooth="yes"/>
      <point x="319" y="761"/>
      <point x="349" y="791"/>
      <point x="349" y="828" type="curve" smooth="yes"/>
      <point x="349" y="864"/>
      <point x="319" y="895"/>
    </contour>
  </outline>
</glyph>
<glyph name="Aring" format="1">
  <advance width="778"/>
  <unicode hex="00C5"/>
  <outline>
    <contour>
      <point x="469" y="206" type="line"/>
      <point x="514" y="92" type="line" smooth="yes"/>
      <point x="518" y="82"/>
      <point x="520" y="72"/>
      <point x="520" y="64" type="curve" smooth="yes"/>
      <point x="520" y="49"/>
      <point x="511" y="38"/>
      <point x="500" y="37" type="curve" smooth="yes"/>
      <point x="447" y="34" type="line"/>
      <point x="447" y="-3" type="line"/>
      <point x="587" y="0"/>
      <point x="587" y="0"/>
      <point x="599" y="0" type="curve" smooth="yes"/>
      <point x="610" y="0"/>
      <point x="610" y="0"/>
      <point x="757" y="-3" type="curve"/>
      <point x="757" y="34" type="line"/>
      <point x="733" y="37" type="line" smooth="yes"/>
      <point x="705" y="41"/>
      <point x="691" y="52"/>
      <point x="678" y="81" type="curve" smooth="yes"/>
      <point x="419" y="686" type="line"/>
      <point x="348" y="686" type="line"/>
      <point x="320" y="611" type="line" smooth="yes"/>
      <point x="306" y="572"/>
      <point x="296" y="546"/>
      <point x="291" y="535" type="curve" smooth="yes"/>
      <point x="110" y="97" type="line" smooth="yes"/>
      <point x="93" y="58"/>
      <point x="76" y="39"/>
      <point x="54" y="37" type="curve" smooth="yes"/>
      <point x="24" y="34" type="line"/>
      <point x="24" y="-3" type="line"/>
      <point x="50" y="-2"/>
      <point x="73" y="-2"/>
      <point x="81" y="-1" type="curve"/>
      <point x="109" y="0"/>
      <point x="128" y="0"/>
      <point x="137" y="0" type="curve" smooth="yes"/>
      <point x="146" y="0"/>
      <point x="165" y="0"/>
      <point x="193" y="-1" type="curve"/>
      <point x="202" y="-2"/>
      <point x="223" y="-2"/>
      <point x="250" y="-3" type="curve"/>
      <point x="250" y="34" type="line"/>
      <point x="200" y="37" type="line" smooth="yes"/>
      <point x="183" y="38"/>
      <point x="171" y="52"/>
      <point x="171" y="69" type="curve" smooth="yes"/>
      <point x="171" y="76"/>
      <point x="173" y="86"/>
      <point x="176" y="94" type="curve" smooth="yes"/>
      <point x="218" y="206" type="line"/>
    </contour>
    <contour>
      <point x="342" y="516" type="line"/>
      <point x="446" y="262" type="line"/>
      <point x="242" y="262" type="line"/>
    </contour>
    <contour>
      <point x="387" y="934" type="curve" smooth="yes"/>
      <point x="330" y="934"/>
      <point x="285" y="890"/>
      <point x="285" y="835" type="curve" smooth="yes"/>
      <point x="285" y="779"/>
      <point x="330" y="734"/>
      <point x="385" y="734" type="curve" smooth="yes"/>
      <point x="440" y="734"/>
      <point x="485" y="779"/>
      <point x="485" y="834" type="curve" smooth="yes"/>
      <point x="485" y="888"/>
      <point x="440" y="934"/>
    </contour>
    <contour>
      <point x="386" y="884" type="curve" smooth="yes"/>
      <point x="413" y="884"/>
      <point x="435" y="861"/>
      <point x="435" y="834" type="curve" smooth="yes"/>
      <point x="435" y="806"/>
      <point x="413" y="784"/>
      <point x="385" y="784" type="curve" smooth="yes"/>
      <point x="357" y="784"/>
      <point x="335" y="806"/>
      <point x="335" y="834" type="curve" smooth="yes"/>
      <point x="335" y="862"/>
      <point x="357" y="884"/>
    </contour>
  </outline>
</glyph>
<glyph name="Ccedilla" format="1">
  <advance width="722"/>
  <unicode hex="00C7"/>
  <outline>
    <contour>
      <point x="397" y="-15" type="line"/>
      <point x="417" y="-17"/>
      <point x="429" y="-17"/>
      <point x="446" y="-17" type="curve" smooth="yes"/>
      <point x="537" y="-17"/>
      <point x="597" y="-2"/>
      <point x="670" y="38" type="curve"/>
      <point x="692" y="87" type="line"/>
      <point x="680" y="99" type="line"/>
      <point x="615" y="65"/>
      <point x="550" y="48"/>
      <point x="485" y="48" type="curve" smooth="yes"/>
      <point x="310" y="48"/>
      <point x="194" y="172"/>
      <point x="194" y="361" type="curve" smooth="yes"/>
      <point x="194" y="533"/>
      <point x="291" y="639"/>
      <point x="450" y="639" type="curve" smooth="yes"/>
      <point x="526" y="639"/>
      <point x="574" y="620"/>
      <point x="628" y="570" type="curve"/>
      <point x="633" y="484" type="line"/>
      <point x="672" y="484" type="line"/>
      <point x="683" y="580"/>
      <point x="686" y="599"/>
      <point x="695" y="637" type="curve"/>
      <point x="689" y="648" type="line"/>
      <point x="598" y="684"/>
      <point x="542" y="695"/>
      <point x="455" y="695" type="curve" smooth="yes"/>
      <point x="202" y="695"/>
      <point x="44" y="561"/>
      <point x="44" y="347" type="curve" smooth="yes"/>
      <point x="44" y="211"/>
      <point x="104" y="99"/>
      <point x="210" y="38" type="curve" smooth="yes"/>
      <point x="251" y="15"/>
      <point x="294" y="1"/>
      <point x="358" y="-10" type="curve"/>
      <point x="317" y="-103" type="line"/>
      <point x="327" y="-111" type="line"/>
      <point x="347" y="-108"/>
      <point x="354" y="-107"/>
      <point x="363" y="-107" type="curve" smooth="yes"/>
      <point x="387" y="-107"/>
      <point x="401" y="-120"/>
      <point x="401" y="-142" type="curve" smooth="yes"/>
      <point x="401" y="-166"/>
      <point x="384" y="-179"/>
      <point x="351" y="-179" type="curve" smooth="yes"/>
      <point x="332" y="-179"/>
      <point x="318" y="-177"/>
      <point x="284" y="-170" type="curve"/>
      <point x="268" y="-207" type="line"/>
      <point x="303" y="-219"/>
      <point x="333" y="-225"/>
      <point x="362" y="-225" type="curve" smooth="yes"/>
      <point x="399" y="-225"/>
      <point x="443" y="-213"/>
      <point x="464" y="-198" type="curve" smooth="yes"/>
      <point x="485" y="-183"/>
      <point x="495" y="-164"/>
      <point x="495" y="-138" type="curve" smooth="yes"/>
      <point x="495" y="-93"/>
      <point x="465" y="-65"/>
      <point x="419" y="-65" type="curve" smooth="yes"/>
      <point x="404" y="-65"/>
      <point x="393" y="-66"/>
      <point x="373" y="-71" type="curve"/>
    </contour>
  </outline>
</glyph>
<glyph name="Igrave" format="1">
  <advance width="389"/>
  <unicode hex="00CC"/>
  <outline>
    <contour>
      <point x="265" y="543" type="line" smooth="yes"/>
      <point x="265" y="632"/>
      <point x="266" y="634"/>
      <point x="313" y="638" type="curve" smooth="yes"/>
      <point x="350" y="641" type="line"/>
      <point x="350" y="681" type="line"/>
      <point x="228" y="678"/>
      <point x="228" y="678"/>
      <point x="194" y="678" type="curve" smooth="yes"/>
      <point x="160" y="678"/>
      <point x="159" y="678"/>
      <point x="39" y="681" type="curve"/>
      <point x="39" y="641" type="line"/>
      <point x="76" y="638" type="line" smooth="yes"/>
      <point x="123" y="634"/>
      <point x="124" y="632"/>
      <point x="124" y="543" type="curve" smooth="yes"/>
      <point x="124" y="135" type="line" smooth="yes"/>
      <point x="124" y="46"/>
      <point x="123" y="44"/>
      <point x="76" y="40" type="curve" smooth="yes"/>
      <point x="39" y="37" type="line"/>
      <point x="39" y="-3" type="line"/>
      <point x="160" y="0"/>
      <point x="160" y="0"/>
      <point x="194" y="0" type="curve" smooth="yes"/>
      <point x="228" y="0"/>
      <point x="229" y="0"/>
      <point x="350" y="-3" type="curve"/>
      <point x="350" y="37" type="line"/>
      <point x="313" y="40" type="line" smooth="yes"/>
      <point x="266" y="44"/>
      <point x="265" y="46"/>
      <point x="265" y="135" type="curve" smooth="yes"/>
    </contour>
    <contour>
      <point x="221" y="730" type="line"/>
      <point x="277" y="730" type="line"/>
      <point x="148" y="878" type="line" smooth="yes"/>
      <point x="125" y="904"/>
      <point x="106" y="915"/>
      <point x="83" y="915" type="curve" smooth="yes"/>
      <point x="56" y="915"/>
      <point x="39" y="898"/>
      <point x="39" y="871" type="curve" smooth="yes"/>
      <point x="39" y="849"/>
      <point x="49" y="835"/>
      <point x="79" y="818" type="curve"/>
      <point x="83" y="815"/>
      <point x="86" y="813"/>
      <point x="90" y="811" type="curve"/>
    </contour>
  </outline>
</glyph>
<glyph name="Iacute" format="1">
  <advance width="389"/>
  <unicode hex="00CD"/>
  <outline>
    <contour>
      <point x="265" y="543" type="line" smooth="yes"/>
      <point x="265" y="632"/>
      <point x="266" y="634"/>
      <point x="313" y="638" type="curve" smooth="yes"/>
      <point x="350" y="641" type="line"/>
      <point x="350" y="681" type="line"/>
      <point x="228" y="678"/>
      <point x="228" y="678"/>
      <point x="194" y="678" type="curve" smooth="yes"/>
      <point x="160" y="678"/>
      <point x="159" y="678"/>
      <point x="39" y="681" type="curve"/>
      <point x="39" y="641" type="line"/>
      <point x="76" y="638" type="line" smooth="yes"/>
      <point x="123" y="634"/>
      <point x="124" y="632"/>
      <point x="124" y="543" type="curve" smooth="yes"/>
      <point x="124" y="135" type="line" smooth="yes"/>
      <point x="124" y="46"/>
      <point x="123" y="44"/>
      <point x="76" y="40" type="curve" smooth="yes"/>
      <point x="39" y="37" type="line"/>
      <point x="39" y="-3" type="line"/>
      <point x="160" y="0"/>
      <point x="160" y="0"/>
      <point x="194" y="0" type="curve" smooth="yes"/>
      <point x="228" y="0"/>
      <point x="229" y="0"/>
      <point x="350" y="-3" type="curve"/>
      <point x="350" y="37" type="line"/>
      <point x="313" y="40" type="line" smooth="yes"/>
      <point x="266" y="44"/>
      <point x="265" y="46"/>
      <point x="265" y="135" type="curve" smooth="yes"/>
    </contour>
    <contour>
      <point x="106" y="730" type="line"/>
      <point x="162" y="730" type="line"/>
      <point x="293" y="811" type="line"/>
      <point x="301" y="816" type="line" smooth="yes"/>
      <point x="334" y="835"/>
      <point x="344" y="849"/>
      <point x="344" y="871" type="curve" smooth="yes"/>
      <point x="344" y="898"/>
      <point x="326" y="915"/>
      <point x="300" y="915" type="curve" smooth="yes"/>
      <point x="276" y="915"/>
      <point x="258" y="904"/>
      <point x="235" y="878" type="curve" smooth="yes"/>
    </contour>
  </outline>
</glyph>
<glyph name="Ntilde" format="1">
  <advance width="833"/>
  <unicode hex="00D1"/>
  <outline>
    <contour>
      <point x="155" y="678" type="line"/>
      <point x="134" y="678" type="line" smooth="yes"/>
      <point x="125" y="678"/>
      <point x="92" y="679"/>
      <point x="35" y="681" type="curve"/>
      <point x="35" y="644" type="line"/>
      <point x="72" y="641" type="line" smooth="yes"/>
      <point x="117" y="637"/>
      <point x="120" y="631"/>
      <point x="120" y="543" type="curve" smooth="yes"/>
      <point x="120" y="135" type="line" smooth="yes"/>
      <point x="120" y="47"/>
      <point x="117" y="41"/>
      <point x="72" y="37" type="curve" smooth="yes"/>
      <point x="35" y="34" type="line"/>
      <point x="35" y="-3" type="line"/>
      <point x="131" y="0"/>
      <point x="131" y="0"/>
      <point x="150" y="0" type="curve" smooth="yes"/>
      <point x="170" y="0"/>
      <point x="216" y="-1"/>
      <point x="264" y="-3" type="curve"/>
      <point x="264" y="34" type="line"/>
      <point x="227" y="37" type="line" smooth="yes"/>
      <point x="182" y="41"/>
      <point x="179" y="46"/>
      <point x="179" y="135" type="curve" smooth="yes"/>
      <point x="179" y="528" type="line"/>
      <point x="505" y="136" type="line"/>
      <point x="627" y="-3" type="line"/>
      <point x="709" y="-16" type="line"/>
      <point x="716" y="-12" type="line"/>
      <point x="714" y="44"/>
      <point x="713" y="66"/>
      <point x="713" y="89" type="curve" smooth="yes"/>
      <point x="713" y="543" type="line" smooth="yes"/>
      <point x="713" y="631"/>
      <point x="716" y="637"/>
      <point x="761" y="641" type="curve" smooth="yes"/>
      <point x="798" y="644" type="line"/>
      <point x="798" y="681" type="line"/>
      <point x="798" y="681"/>
      <point x="684" y="678"/>
      <point x="684" y="678" type="curve"/>
      <point x="673" y="678"/>
      <point x="657" y="678"/>
      <point x="569" y="681" type="curve"/>
      <point x="569" y="644" type="line"/>
      <point x="606" y="641" type="line" smooth="yes"/>
      <point x="651" y="637"/>
      <point x="654" y="631"/>
      <point x="654" y="543" type="curve" smooth="yes"/>
      <point x="654" y="184" type="line"/>
      <point x="342" y="548" type="line" smooth="yes"/>
      <point x="321" y="572"/>
      <point x="303" y="596"/>
      <point x="239" y="681" type="curve"/>
    </contour>
    <contour>
      <point x="557" y="885" type="line"/>
      <point x="539" y="846"/>
      <point x="530" y="837"/>
      <point x="506" y="837" type="curve" smooth="yes"/>
      <point x="487" y="837"/>
      <point x="469" y="843"/>
      <point x="431" y="861" type="curve" smooth="yes"/>
      <point x="393" y="879"/>
      <point x="374" y="885"/>
      <point x="351" y="885" type="curve" smooth="yes"/>
      <point x="291" y="885"/>
      <point x="243" y="834"/>
      <point x="235" y="760" type="curve"/>
      <point x="275" y="760" type="line"/>
      <point x="285" y="792"/>
      <point x="301" y="808"/>
      <point x="321" y="808" type="curve" smooth="yes"/>
      <point x="340" y="808"/>
      <point x="361" y="802"/>
      <point x="398" y="784" type="curve" smooth="yes"/>
      <point x="438" y="765"/>
      <point x="459" y="759"/>
      <point x="482" y="759" type="curve" smooth="yes"/>
      <point x="540" y="759"/>
      <point x="576" y="798"/>
      <point x="600" y="885" type="curve"/>
    </contour>
  </outline>
</glyph>
<glyph name="Ograve" format="1">
  <advance width="833"/>
  <unicode hex="00D2"/>
  <outline>
    <contour>
      <point x="430" y="695" type="curve" smooth="yes"/>
      <point x="188" y="695"/>
      <point x="47" y="561"/>
      <point x="47" y="332" type="curve" smooth="yes"/>
      <point x="47" y="110"/>
      <point x="178" y="-17"/>
      <point x="407" y="-17" type="curve" smooth="yes"/>
      <point x="646" y="-17"/>
      <point x="787" y="118"/>
      <point x="787" y="346" type="curve" smooth="yes"/>
      <point x="787" y="566"/>
      <point x="656" y="695"/>
    </contour>
    <contour>
      <point x="421" y="639" type="curve" smooth="yes"/>
      <point x="474" y="639"/>
      <point x="516" y="622"/>
      <point x="551" y="588" type="curve" smooth="yes"/>
      <point x="606" y="534"/>
      <point x="637" y="438"/>
      <point x="637" y="325" type="curve" smooth="yes"/>
      <point x="637" y="137"/>
      <point x="560" y="39"/>
      <point x="414" y="39" type="curve" smooth="yes"/>
      <point x="359" y="39"/>
      <point x="318" y="55"/>
      <point x="282" y="91" type="curve" smooth="yes"/>
      <point x="228" y="144"/>
      <point x="197" y="240"/>
      <point x="197" y="355" type="curve" smooth="yes"/>
      <point x="197" y="457"/>
      <point x="222" y="537"/>
      <point x="267" y="582" type="curve" smooth="yes"/>
      <point x="306" y="620"/>
      <point x="358" y="639"/>
    </contour>
    <contour>
      <point x="442" y="730" type="line"/>
      <point x="498" y="730" type="line"/>
      <point x="369" y="878" type="line" smooth="yes"/>
      <point x="346" y="904"/>
      <point x="327" y="915"/>
      <point x="304" y="915" type="curve" smooth="yes"/>
      <point x="277" y="915"/>
      <point x="260" y="898"/>
      <point x="260" y="871" type="curve" smooth="yes"/>
      <point x="260" y="849"/>
      <point x="270" y="835"/>
      <point x="300" y="818" type="curve"/>
      <point x="304" y="815"/>
      <point x="307" y="813"/>
      <point x="311" y="811" type="curve"/>
    </contour>
  </outline>
</glyph>
<glyph name="Otilde" format="1">
  <advance width="833"/>
  <unicode hex="00D5"/>
  <outline>
    <contour>
      <point x="430" y="695" type="curve" smooth="yes"/>
      <point x="188" y="695"/>
      <point x="47" y="561"/>
      <point x="47" y="332" type="curve" smooth="yes"/>
      <point x="47" y="110"/>
      <point x="178" y="-17"/>
      <point x="407" y="-17" type="curve" smooth="yes"/>
      <point x="646" y="-17"/>
      <point x="787" y="118"/>
      <point x="787" y="346" type="curve" smooth="yes"/>
      <point x="787" y="566"/>
      <point x="656" y="695"/>
    </contour>
    <contour>
      <point x="421" y="639" type="curve" smooth="yes"/>
      <point x="474" y="639"/>
      <point x="516" y="622"/>
      <point x="551" y="588" type="curve" smooth="yes"/>
      <point x="606" y="534"/>
      <point x="637" y="438"/>
      <point x="637" y="325" type="curve" smooth="yes"/>
      <point x="637" y="137"/>
      <point x="560" y="39"/>
      <point x="414" y="39" type="curve" smooth="yes"/>
      <point x="359" y="39"/>
      <point x="318" y="55"/>
      <point x="282" y="91" type="curve" smooth="yes"/>
      <point x="228" y="144"/>
      <point x="197" y="240"/>
      <point x="197" y="355" type="curve" smooth="yes"/>
      <point x="197" y="457"/>
      <point x="222" y="537"/>
      <point x="267" y="582" type="curve" smooth="yes"/>
      <point x="306" y="620"/>
      <point x="358" y="639"/>
    </contour>
    <contour>
      <point x="557" y="885" type="line"/>
      <point x="539" y="846"/>
      <point x="530" y="837"/>
      <point x="506" y="837" type="curve" smooth="yes"/>
      <point x="487" y="837"/>
      <point x="469" y="843"/>
      <point x="431" y="861" type="curve" smooth="yes"/>
      <point x="393" y="879"/>
      <point x="374" y="885"/>
      <point x="351" y="885" type="curve" smooth="yes"/>
      <point x="291" y="885"/>
      <point x="243" y="834"/>
      <point x="235" y="760" type="curve"/>
      <point x="275" y="760" type="line"/>
      <point x="285" y="792"/>
      <point x="301" y="808"/>
      <point x="321" y="808" type="curve" smooth="yes"/>
      <point x="340" y="808"/>
      <point x="361" y="802"/>
      <point x="398" y="784" type="curve" smooth="yes"/>
      <point x="438" y="765"/>
      <point x="459" y="759"/>
      <point x="482" y="759" type="curve" smooth="yes"/>
      <point x="540" y="759"/>
      <point x="576" y="798"/>
      <point x="600" y="885" type="curve"/>
    </contour>
  </outline>
</glyph>
<glyph name="Odieresis" format="1">
  <advance width="833"/>
  <unicode hex="00D6"/>
  <outline>
    <contour>
      <point x="430" y="695" type="curve" smooth="yes"/>
      <point x="188" y="695"/>
      <point x="47" y="561"/>
      <point x="47" y="332" type="curve" smooth="yes"/>
      <point x="47" y="110"/>
      <point x="178" y="-17"/>
      <point x="407" y="-17" type="curve" smooth="yes"/>
      <point x="646" y="-17"/>
      <point x="787" y="118"/>
      <point x="787" y="346" type="curve" smooth="yes"/>
      <point x="787" y="566"/>
      <point x="656" y="695"/>
    </contour>
    <contour>
      <point x="421" y="639" type="curve" smooth="yes"/>
      <point x="474" y="639"/>
      <point x="516" y="622"/>
      <point x="551" y="588" type="curve" smooth="yes"/>
      <point x="606" y="534"/>
      <point x="637" y="438"/>
      <point x="637" y="325" type="curve" smooth="yes"/>
      <point x="637" y="137"/>
      <point x="560" y="39"/>
      <point x="414" y="39" type="curve" smooth="yes"/>
      <point x="359" y="39"/>
      <point x="318" y="55"/>
      <point x="282" y="91" type="curve" smooth="yes"/>
      <point x="228" y="144"/>
      <point x="197" y="240"/>
      <point x="197" y="355" type="curve" smooth="yes"/>
      <point x="197" y="457"/>
      <point x="222" y="537"/>
      <point x="267" y="582" type="curve" smooth="yes"/>
      <point x="306" y="620"/>
      <point x="358" y="639"/>
    </contour>
    <contour>
      <point x="522" y="895" type="curve" smooth="yes"/>
      <point x="484" y="895"/>
      <point x="454" y="865"/>
      <point x="454" y="829" type="curve" smooth="yes"/>
      <point x="454" y="791"/>
      <point x="484" y="761"/>
      <point x="521" y="761" type="curve" smooth="yes"/>
      <point x="558" y="761"/>
      <point x="588" y="791"/>
      <point x="588" y="828" type="curve" smooth="yes"/>
      <point x="588" y="864"/>
      <point x="558" y="895"/>
    </contour>
    <contour>
      <point x="307" y="895" type="curve" smooth="yes"/>
      <point x="269" y="895"/>
      <point x="239" y="865"/>
      <point x="239" y="828" type="curve" smooth="yes"/>
      <point x="239" y="791"/>
      <point x="269" y="761"/>
      <point x="306" y="761" type="curve" smooth="yes"/>
      <point x="343" y="761"/>
      <point x="373" y="791"/>
      <point x="373" y="828" type="curve" smooth="yes"/>
      <point x="373" y="864"/>
      <point x="343" y="895"/>
    </contour>
  </outline>
</glyph>
<glyph name="multiply" format="1">
  <advance width="606"/>
  <unicode hex="00D7"/>
  <outline>
    <contour>
      <point x="241" y="253" type="line"/>
      <point x="72" y="82" type="line"/>
      <point x="133" y="21" type="line"/>
      <point x="302" y="192" type="line"/>
      <point x="473" y="21" type="line"/>
      <point x="534" y="82" type="line"/>
      <point x="363" y="253" type="line"/>
      <point x="532" y="422" type="line"/>
      <point x="471" y="483" type="line"/>
      <point x="302" y="314" type="line"/>
      <point x="134" y="483" type="line"/>
      <point x="73" y="422" type="line"/>
    </contour>
  </outline>
</glyph>
<glyph name="Oslash" format="1">
  <advance width="833"/>
  <unicode hex="00D8"/>
  <outline>
    <contour>
      <point x="160" y="62" type="line"/>
      <point x="195" y="30"/>
      <point x="214" y="18"/>
      <point x="259" y="4" type="curve" smooth="yes"/>
      <point x="305" y="-10"/>
      <point x="352" y="-17"/>
      <point x="405" y="-17" type="curve" smooth="yes"/>
      <point x="649" y="-17"/>
      <point x="787" y="117"/>
      <point x="787" y="353" type="curve" smooth="yes"/>
      <point x="787" y="448"/>
      <point x="770" y="504"/>
      <point x="719" y="577" type="curve"/>
      <point x="808" y="659" type="line"/>
      <point x="771" y="698" type="line"/>
      <point x="682" y="617" type="line"/>
      <point x="637" y="651"/>
      <point x="613" y="663"/>
      <point x="564" y="677" type="curve" smooth="yes"/>
      <point x="521" y="689"/>
      <point x="477" y="695"/>
      <point x="428" y="695" type="curve" smooth="yes"/>
      <point x="186" y="695"/>
      <point x="47" y="561"/>
      <point x="47" y="326" type="curve" smooth="yes"/>
      <point x="47" y="228"/>
      <point x="67" y="169"/>
      <point x="123" y="103" type="curve"/>
      <point x="32" y="20" type="line"/>
      <point x="70" y="-20" type="line"/>
    </contour>
    <contour>
      <point x="222" y="192" type="line"/>
      <point x="205" y="233"/>
      <point x="197" y="282"/>
      <point x="197" y="349" type="curve" smooth="yes"/>
      <point x="197" y="542"/>
      <point x="273" y="639"/>
      <point x="424" y="639" type="curve" smooth="yes"/>
      <point x="502" y="639"/>
      <point x="548" y="611"/>
      <point x="592" y="534" type="curve"/>
    </contour>
    <contour>
      <point x="615" y="481" type="line"/>
      <point x="630" y="444"/>
      <point x="637" y="398"/>
      <point x="637" y="333" type="curve" smooth="yes"/>
      <point x="637" y="135"/>
      <point x="563" y="39"/>
      <point x="410" y="39" type="curve" smooth="yes"/>
      <point x="337" y="39"/>
      <point x="293" y="65"/>
      <point x="242" y="138" type="curve"/>
    </contour>
  </outline>
</glyph>
<glyph name="Uacute" format="1">
  <advance width="778"/>
  <unicode hex="00DA"/>
  <outline>
    <contour>
      <point x="675" y="543" type="line" smooth="yes"/>
      <point x="675" y="631"/>
      <point x="678" y="637"/>
      <point x="723" y="641" type="curve" smooth="yes"/>
      <point x="760" y="644" type="line"/>
      <point x="760" y="681" type="line"/>
      <point x="760" y="681"/>
      <point x="646" y="678"/>
      <point x="646" y="678" type="curve"/>
      <point x="635" y="678"/>
      <point x="619" y="678"/>
      <point x="531" y="681" type="curve"/>
      <point x="531" y="644" type="line"/>
      <point x="568" y="641" type="line" smooth="yes"/>
      <point x="613" y="637"/>
      <point x="616" y="631"/>
      <point x="616" y="543" type="curve" smooth="yes"/>
      <point x="616" y="302" type="line" smooth="yes"/>
      <point x="616" y="196"/>
      <point x="603" y="143"/>
      <point x="569" y="108" type="curve" smooth="yes"/>
      <point x="541" y="79"/>
      <point x="494" y="65"/>
      <point x="428" y="65" type="curve" smooth="yes"/>
      <point x="359" y="65"/>
      <point x="314" y="81"/>
      <point x="287" y="114" type="curve" smooth="yes"/>
      <point x="261" y="146"/>
      <point x="252" y="193"/>
      <point x="252" y="295" type="curve" smooth="yes"/>
      <point x="252" y="543" type="line" smooth="yes"/>
      <point x="252" y="631"/>
      <point x="255" y="637"/>
      <point x="300" y="641" type="curve" smooth="yes"/>
      <point x="337" y="644" type="line"/>
      <point x="337" y="681" type="line"/>
      <point x="215" y="678"/>
      <point x="215" y="678"/>
      <point x="181" y="678" type="curve" smooth="yes"/>
      <point x="147" y="678"/>
      <point x="146" y="678"/>
      <point x="26" y="681" type="curve"/>
      <point x="26" y="644" type="line"/>
      <point x="63" y="641" type="line" smooth="yes"/>
      <point x="108" y="637"/>
      <point x="111" y="631"/>
      <point x="111" y="543" type="curve" smooth="yes"/>
      <point x="111" y="177" type="line" smooth="yes"/>
      <point x="111" y="58"/>
      <point x="219" y="-17"/>
      <point x="391" y="-17" type="curve" smooth="yes"/>
      <point x="582" y="-17"/>
      <point x="675" y="70"/>
      <point x="675" y="251" type="curve" smooth="yes"/>
    </contour>
    <contour>
      <point x="327" y="730" type="line"/>
      <point x="383" y="730" type="line"/>
      <point x="514" y="811" type="line"/>
      <point x="522" y="816" type="line" smooth="yes"/>
      <point x="555" y="835"/>
      <point x="565" y="849"/>
      <point x="565" y="871" type="curve" smooth="yes"/>
      <point x="565" y="898"/>
      <point x="547" y="915"/>
      <point x="521" y="915" type="curve" smooth="yes"/>
      <point x="497" y="915"/>
      <point x="479" y="904"/>
      <point x="456" y="878" type="curve" smooth="yes"/>
    </contour>
  </outline>
</glyph>
<glyph name="Ucircumflex" format="1">
  <advance width="778"/>
  <unicode hex="00DB"/>
  <outline>
    <contour>
      <point x="675" y="543" type="line" smooth="yes"/>
      <point x="675" y="631"/>
      <point x="678" y="637"/>
      <point x="723" y="641" type="curve" smooth="yes"/>
      <point x="760" y="644" type="line"/>
      <point x="760" y="681" type="line"/>
      <point x="760" y="681"/>
      <point x="646" y="678"/>
      <point x="646" y="678" type="curve"/>
      <point x="635" y="678"/>
      <point x="619" y="678"/>
      <point x="531" y="681" type="curve"/>
      <point x="531" y="644" type="line"/>
      <point x="568" y="641" type="line" smooth="yes"/>
      <point x="613" y="637"/>
      <point x="616" y="631"/>
      <point x="616" y="543" type="curve" smooth="yes"/>
      <point x="616" y="302" type="line" smooth="yes"/>
      <point x="616" y="196"/>
      <point x="603" y="143"/>
      <point x="569" y="108" type="curve" smooth="yes"/>
      <point x="541" y="79"/>
      <point x="494" y="65"/>
      <point x="428" y="65" type="curve" smooth="yes"/>
      <point x="359" y="65"/>
      <point x="314" y="81"/>
      <point x="287" y="114" type="curve" smooth="yes"/>
      <point x="261" y="146"/>
      <point x="252" y="193"/>
      <point x="252" y="295" type="curve" smooth="yes"/>
      <point x="252" y="543" type="line" smooth="yes"/>
      <point x="252" y="631"/>
      <point x="255" y="637"/>
      <point x="300" y="641" type="curve" smooth="yes"/>
      <point x="337" y="644" type="line"/>
      <point x="337" y="681" type="line"/>
      <point x="215" y="678"/>
      <point x="215" y="678"/>
      <point x="181" y="678" type="curve" smooth="yes"/>
      <point x="147" y="678"/>
      <point x="146" y="678"/>
      <point x="26" y="681" type="curve"/>
      <point x="26" y="644" type="line"/>
      <point x="63" y="641" type="line" smooth="yes"/>
      <point x="108" y="637"/>
      <point x="111" y="631"/>
      <point x="111" y="543" type="curve" smooth="yes"/>
      <point x="111" y="177" type="line" smooth="yes"/>
      <point x="111" y="58"/>
      <point x="219" y="-17"/>
      <point x="391" y="-17" type="curve" smooth="yes"/>
      <point x="582" y="-17"/>
      <point x="675" y="70"/>
      <point x="675" y="251" type="curve" smooth="yes"/>
    </contour>
    <contour>
      <point x="358" y="905" type="line"/>
      <point x="237" y="730" type="line"/>
      <point x="292" y="730" type="line"/>
      <point x="405" y="828" type="line"/>
      <point x="517" y="730" type="line"/>
      <point x="574" y="730" type="line"/>
      <point x="451" y="905" type="line"/>
    </contour>
  </outline>
</glyph>
<glyph name="Udieresis" format="1">
  <advance width="778"/>
  <unicode hex="00DC"/>
  <outline>
    <contour>
      <point x="675" y="543" type="line" smooth="yes"/>
      <point x="675" y="631"/>
      <point x="678" y="637"/>
      <point x="723" y="641" type="curve" smooth="yes"/>
      <point x="760" y="644" type="line"/>
      <point x="760" y="681" type="line"/>
      <point x="760" y="681"/>
      <point x="646" y="678"/>
      <point x="646" y="678" type="curve"/>
      <point x="635" y="678"/>
      <point x="619" y="678"/>
      <point x="531" y="681" type="curve"/>
      <point x="531" y="644" type="line"/>
      <point x="568" y="641" type="line" smooth="yes"/>
      <point x="613" y="637"/>
      <point x="616" y="631"/>
      <point x="616" y="543" type="curve" smooth="yes"/>
      <point x="616" y="302" type="line" smooth="yes"/>
      <point x="616" y="196"/>
      <point x="603" y="143"/>
      <point x="569" y="108" type="curve" smooth="yes"/>
      <point x="541" y="79"/>
      <point x="494" y="65"/>
      <point x="428" y="65" type="curve" smooth="yes"/>
      <point x="359" y="65"/>
      <point x="314" y="81"/>
      <point x="287" y="114" type="curve" smooth="yes"/>
      <point x="261" y="146"/>
      <point x="252" y="193"/>
      <point x="252" y="295" type="curve" smooth="yes"/>
      <point x="252" y="543" type="line" smooth="yes"/>
      <point x="252" y="631"/>
      <point x="255" y="637"/>
      <point x="300" y="641" type="curve" smooth="yes"/>
      <point x="337" y="644" type="line"/>
      <point x="337" y="681" type="line"/>
      <point x="215" y="678"/>
      <point x="215" y="678"/>
      <point x="181" y="678" type="curve" smooth="yes"/>
      <point x="147" y="678"/>
      <point x="146" y="678"/>
      <point x="26" y="681" type="curve"/>
      <point x="26" y="644" type="line"/>
      <point x="63" y="641" type="line" smooth="yes"/>
      <point x="108" y="637"/>
      <point x="111" y="631"/>
      <point x="111" y="543" type="curve" smooth="yes"/>
      <point x="111" y="177" type="line" smooth="yes"/>
      <point x="111" y="58"/>
      <point x="219" y="-17"/>
      <point x="391" y="-17" type="curve" smooth="yes"/>
      <point x="582" y="-17"/>
      <point x="675" y="70"/>
      <point x="675" y="251" type="curve" smooth="yes"/>
    </contour>
    <contour>
      <point x="521" y="895" type="curve" smooth="yes"/>
      <point x="483" y="895"/>
      <point x="453" y="865"/>
      <point x="453" y="829" type="curve" smooth="yes"/>
      <point x="453" y="791"/>
      <point x="483" y="761"/>
      <point x="520" y="761" type="curve" smooth="yes"/>
      <point x="557" y="761"/>
      <point x="587" y="791"/>
      <point x="587" y="828" type="curve" smooth="yes"/>
      <point x="587" y="864"/>
      <point x="557" y="895"/>
    </contour>
    <contour>
      <point x="306" y="895" type="curve" smooth="yes"/>
      <point x="268" y="895"/>
      <point x="238" y="865"/>
      <point x="238" y="828" type="curve" smooth="yes"/>
      <point x="238" y="791"/>
      <point x="268" y="761"/>
      <point x="305" y="761" type="curve" smooth="yes"/>
      <point x="342" y="761"/>
      <point x="372" y="791"/>
      <point x="372" y="828" type="curve" smooth="yes"/>
      <point x="372" y="864"/>
      <point x="342" y="895"/>
    </contour>
  </outline>
</glyph>
<glyph name="Yacute" format="1">
  <advance width="667"/>
  <unicode hex="00DD"/>
  <outline>
    <contour>
      <point x="395" y="356" type="line"/>
      <point x="288" y="559" type="line" smooth="yes"/>
      <point x="247" y="635"/>
      <point x="220" y="668"/>
      <point x="174" y="695" type="curve"/>
      <point x="15" y="659" type="line"/>
      <point x="15" y="622" type="line"/>
      <point x="66" y="622"/>
      <point x="86" y="607"/>
      <point x="145" y="522" type="curve"/>
      <point x="246" y="359" type="line" smooth="yes"/>
      <point x="262" y="332"/>
      <point x="274" y="310"/>
      <point x="290" y="274" type="curve"/>
      <point x="290" y="135" type="line" smooth="yes"/>
      <point x="290" y="46"/>
      <point x="289" y="44"/>
      <point x="242" y="40" type="curve" smooth="yes"/>
      <point x="205" y="37" type="line"/>
      <point x="205" y="-3" type="line"/>
      <point x="326" y="0"/>
      <point x="326" y="0"/>
      <point x="360" y="0" type="curve" smooth="yes"/>
      <point x="394" y="0"/>
      <point x="395" y="0"/>
      <point x="516" y="-3" type="curve"/>
      <point x="516" y="37" type="line"/>
      <point x="479" y="40" type="line" smooth="yes"/>
      <point x="432" y="44"/>
      <point x="431" y="46"/>
      <point x="431" y="135" type="curve" smooth="yes"/>
      <point x="431" y="298" type="line"/>
      <point x="450" y="341"/>
      <point x="466" y="371"/>
      <point x="484" y="398" type="curve" smooth="yes"/>
      <point x="660" y="659" type="line"/>
      <point x="660" y="678" type="line"/>
      <point x="583" y="678" type="line"/>
    </contour>
    <contour>
      <point x="288" y="730" type="line"/>
      <point x="344" y="730" type="line"/>
      <point x="475" y="811" type="line"/>
      <point x="483" y="816" type="line" smooth="yes"/>
      <point x="516" y="835"/>
      <point x="526" y="849"/>
      <point x="526" y="871" type="curve" smooth="yes"/>
      <point x="526" y="898"/>
      <point x="508" y="915"/>
      <point x="482" y="915" type="curve" smooth="yes"/>
      <point x="458" y="915"/>
      <point x="440" y="904"/>
      <point x="417" y="878" type="curve" smooth="yes"/>
    </contour>
  </outline>
</glyph>
